<svg width="73" height="31" viewBox="0 0 73 31" fill="none" xmlns="http://www.w3.org/2000/svg">
<path d="M6.78484 18.1565H0L3.39242 14.8003L6.78484 18.1565Z" fill="#FF8641"/>
<path d="M3.39242 14.8002L0 18.1564V11.444L3.39242 14.8002Z" fill="#D52AE8"/>
<path d="M11.5674 0L0 11.444L3.39242 14.8002L10.8201 7.45181C11.2999 6.97713 11.5674 6.3351 11.5674 5.66569V0Z" fill="#7021CC"/>
<path d="M9.87585 12.8438H16.6607L13.2683 16.2L9.87585 12.8438Z" fill="#FF8641"/>
<path d="M13.2683 16.2L16.6607 12.8438V19.5562L13.2683 16.2Z" fill="#D52AE8"/>
<path d="M5.09326 30.9999L16.6607 19.5559L13.2683 16.1997L5.84064 23.5481C5.36084 24.0227 5.09326 24.6648 5.09326 25.3342V30.9999Z" fill="#7021CC"/>
<path d="M26.3643 8.10925H28.5049V19.6049L38.4146 8.10925H39.9432V23.238H37.8025V11.7424L27.8928 23.238H26.3643V8.10925Z" fill="white"/>
<path d="M42.4191 8.10925H55.875V10.0445H50.2158V23.235H48.0752V10.0445H42.416V8.10925H42.4191Z" fill="white"/>
<path d="M72.391 13.1481C71.982 12.2018 71.4222 11.3802 70.7087 10.6834C69.9951 9.98661 69.1524 9.44195 68.1836 9.04943C67.8483 8.9125 67.5008 8.79992 67.1471 8.71168C67.144 8.70864 67.1379 8.70864 67.1348 8.70864C66.4735 8.54128 65.7784 8.45913 65.0495 8.45913C64.5389 8.45913 64.0161 8.52607 63.4748 8.65691C62.9335 8.78775 62.4137 8.97945 61.9154 9.232C61.4172 9.48455 60.9466 9.78579 60.5099 10.1388C60.1839 10.4004 59.9009 10.6865 59.661 10.9968C59.9655 10.0657 60.4361 9.29894 61.0696 8.69038C61.7863 8.00271 62.8843 7.34242 64.3606 6.70648L65.8676 6.07358L67.4731 5.40416C67.9867 5.15161 68.4235 4.92036 68.7895 4.70736C69.2047 4.47002 69.5399 4.24486 69.7921 4.03186H65.5939C65.5139 4.06229 65.434 4.09576 65.354 4.12923C65.3509 4.12923 65.3478 4.13227 65.3448 4.13227C65.2648 4.16574 65.1818 4.19617 65.0987 4.22964C64.6497 4.42134 64.0284 4.69823 63.238 5.05728C62.5152 5.40112 61.8662 5.75713 61.2849 6.12835C59.8671 7.02293 58.8706 7.99054 58.2954 9.02509C57.6526 10.157 57.2651 11.6845 57.1298 13.6045C57.1082 14.2678 57.099 14.9707 57.099 15.7192C57.099 15.8257 57.1021 15.9322 57.1052 16.0387C57.1359 17.125 57.3389 18.1291 57.7111 19.0481C58.117 20.0583 58.6799 20.9255 59.3934 21.6496C60.107 22.3769 60.9466 22.9428 61.9154 23.3445C62.8843 23.7492 63.93 23.95 65.0495 23.95C66.169 23.95 67.2147 23.7522 68.1836 23.3597C69.1524 22.9672 69.9951 22.4225 70.7087 21.7257C71.4222 21.0289 71.982 20.2074 72.391 19.2611C72.6771 18.5916 72.8647 17.8857 72.9446 17.1433C72.9539 17.0855 72.96 17.0276 72.9662 16.9698C72.9877 16.7173 73 16.4617 73 16.203C73 15.1168 72.797 14.0974 72.391 13.1481ZM70.5764 17.8888C70.5211 18.0987 70.4503 18.3026 70.3703 18.5034C70.0843 19.2093 69.6876 19.824 69.1801 20.3504C68.6695 20.8737 68.0636 21.2815 67.3593 21.5736C66.655 21.8687 65.8861 22.0148 65.0495 22.0148C64.2129 22.0148 63.444 21.8687 62.7428 21.5736C62.0385 21.2815 61.4326 20.8737 60.922 20.3504C60.4115 19.824 60.0147 19.2093 59.7287 18.5034C59.4426 17.7975 59.3012 17.0307 59.3012 16.203C59.3012 16.0113 59.3073 15.8227 59.3258 15.6371C59.375 15.0255 59.5103 14.4473 59.7287 13.9057C59.8486 13.6106 59.987 13.3276 60.15 13.0659C60.3684 12.6977 60.6267 12.363 60.922 12.0588C61.4326 11.5354 62.0385 11.1277 62.7428 10.8356C63.444 10.5434 64.2129 10.3943 65.0495 10.3943C65.8861 10.3943 66.655 10.5434 67.3593 10.8356C67.6453 10.9542 67.916 11.0911 68.1682 11.2494C68.5403 11.4776 68.8756 11.7484 69.1801 12.0588C69.6876 12.5852 70.0843 13.1998 70.3703 13.9057C70.6564 14.6117 70.8009 15.3784 70.8009 16.203C70.8009 16.7964 70.7271 17.3593 70.5764 17.8888Z" fill="white"/>
</svg>
