<svg width="620" height="220" viewBox="0 0 620 220" fill="none" xmlns="http://www.w3.org/2000/svg">
<g clip-path="url(#clip0_31_150)">
<path d="M68.332 108.66V132.434H60.0357L57.3346 127.433V125.721C46.5088 129.986 5.11328 144.82 5.11328 122.075C5.11328 98.6793 48.0844 111.822 57.2167 114.89V111.055C57.2167 101.6 53.2723 88.9931 39.07 87.5328C25.05 86.041 17.354 97.8704 16.2607 106.443H5.17759C6.80683 88.846 27.4724 85.2531 36.7012 85.2531C46.3158 85.2216 68.332 89.1192 68.332 108.66ZM57.2703 123.714L57.206 117.159C48.4381 115.058 14.3313 107.704 14.3313 122.075C14.2885 136.731 49.3171 126.288 57.2703 123.714Z" fill="#1D1D1D"/>
<path d="M113.426 129.093C113.426 129.093 109.589 132.371 98.8382 132.371C89.0306 132.371 89.0306 125.154 89.0306 121.015V88.3104H77.1758V85.663L88.9663 85.4739V67.5408L100.124 69.5263V85.2848L111.915 85.0957V88.2474H100.124L100.039 123.347C100.039 123.347 100.275 132.077 112.322 126.498L113.426 129.093Z" fill="#1D1D1D"/>
<path d="M138.57 102.714V110.204L138.442 121.865V132.024H127.391V67.2361L138.559 69.2217V102.703L138.57 102.714Z" fill="#1D1D1D"/>
<path d="M213.814 108.66V132.434H202.753V127.433V125.721C191.916 129.986 150.531 144.82 150.531 122.075C150.531 98.6793 193.502 111.822 202.635 114.89V111.055C202.635 101.6 198.69 88.9931 184.488 87.5328C170.468 86.041 162.772 97.8704 161.679 106.443H150.66C152.289 88.846 172.955 85.2531 182.183 85.2531C191.798 85.2216 213.814 89.1192 213.814 108.66ZM202.753 123.714L202.688 117.159C193.92 115.058 159.814 107.704 159.814 122.075C159.771 136.731 194.767 126.288 202.753 123.714Z" fill="#1D1D1D"/>
<path d="M287.871 102.062H275.47C275.47 102.062 273.615 87.5638 253.689 87.5638C233.763 87.5638 217.45 101.904 253.668 101.904C282.608 101.904 287.903 113.387 287.903 117.064C287.903 120.741 288 132.37 256.991 132.37C224.352 132.37 224.32 113.691 224.32 113.691H236.111C236.111 113.691 237.408 130.038 257.012 130.038C286.21 130.038 284.613 110.55 253.689 111.012C224.342 111.012 224.374 102.282 224.374 97.4601C224.374 92.638 232.349 85.095 253.668 85.095C286.328 85.095 287.871 102.062 287.871 102.062Z" fill="#1D1D1D"/>
<path d="M51.4496 171.904L44.654 177.746C44.654 177.746 31.4164 164.487 11.1581 178.386V215.051H0L0.139343 167.776H9.67896L11.1689 173.239V175.781C15.0169 172.776 24.4922 166.652 36.6686 167.776C41.7297 168.64 46.684 170.024 51.4496 171.904Z" fill="#1D1D1D"/>
<path d="M117.332 198.694C116.926 200.344 116.291 201.931 115.446 203.411C109.786 213.308 95.895 215.629 84.9941 215.629C70.749 215.629 53.3633 211.427 53.3633 191.866C53.3633 172.304 75.3794 168.427 84.9941 168.427C94.6087 168.427 116.614 172.325 116.614 191.866C116.614 192.527 116.614 193.589 116.518 194.219H105.445H64.2427C64.3821 200.764 66.976 210.975 82.6896 212.646C99.8394 214.453 104.266 204.998 105.413 198.799L117.332 198.694ZM87.32 170.728C73.1071 169.226 65.3789 181.36 64.4464 189.912C64.4464 190.384 64.3392 190.962 64.2963 191.666L105.531 191.025C105.092 182.621 99.818 172.052 87.3093 170.728H87.32Z" fill="#1D1D1D"/>
<path d="M189.904 191.392V215.166H181.587L178.885 210.166V208.453C168.049 212.719 126.664 227.553 126.664 204.797C126.664 181.412 169.635 194.554 178.768 197.611V193.777C178.768 184.322 174.823 171.715 160.621 170.255C146.601 168.773 138.905 180.603 137.811 189.165H126.75C128.379 171.578 149.045 167.986 158.273 167.986C167.888 167.954 189.904 171.852 189.904 191.392ZM178.843 206.447L178.778 199.891C170.01 197.79 135.904 190.384 135.904 204.797C135.861 219.463 170.857 209.063 178.843 206.447Z" fill="#1D1D1D"/>
<path d="M213.677 185.447V192.937L213.58 204.63V214.789H202.508V150.011H213.666V185.436L213.677 185.447Z" fill="#1D1D1D"/>
<path d="M308.238 198.695C307.823 200.343 307.185 201.929 306.34 203.412C300.681 213.308 286.79 215.63 275.889 215.63C261.654 215.63 244.258 211.427 244.258 191.866C244.258 172.304 266.274 168.428 275.889 168.428C285.503 168.428 307.519 172.294 307.519 191.866C307.519 192.528 307.455 193.589 307.412 194.219H296.351H255.105C255.255 200.764 257.838 210.976 273.552 212.646C290.702 214.453 295.129 204.998 296.276 198.8L308.238 198.695ZM278.225 170.728C264.023 169.226 256.316 181.36 255.373 189.912C255.373 190.385 255.255 190.962 255.212 191.666L296.447 191.025C296.018 182.621 290.734 172.052 278.225 170.728Z" fill="#1D1D1D"/>
<path d="M380.899 184.784H368.476C368.476 184.784 366.632 170.297 346.695 170.297C326.759 170.297 310.477 184.637 346.695 184.637C375.636 184.637 380.931 196.12 380.931 199.786C380.931 203.453 381.027 215.051 350.018 215.051C317.38 215.051 317.348 196.372 317.348 196.372H329.138C329.138 196.372 330.435 212.719 350.04 212.719C379.248 212.719 377.64 193.231 346.717 193.693C317.369 193.693 317.401 184.963 317.401 180.141C317.401 175.319 325.397 167.87 346.717 167.87C379.355 167.849 380.899 184.784 380.899 184.784Z" fill="#1D1D1D"/>
<path d="M426.283 211.815C426.283 211.815 422.445 215.05 411.695 215.05C401.887 215.05 401.887 207.833 401.887 203.694V171.042H390.043V168.384L401.887 168.206V150.23L413.056 152.216V167.975L424.793 167.785V170.937H413.002L412.917 206.036C412.917 206.036 413.152 214.756 425.2 209.188L426.283 211.815Z" fill="#1D1D1D"/>
<path d="M501.577 191.393V215.167H493.27L490.558 210.167V208.454C479.732 212.72 438.348 227.554 438.348 204.798C438.348 181.413 481.308 194.555 490.451 197.612V193.778C490.451 184.323 486.496 171.716 472.304 170.256C458.274 168.774 450.578 180.604 449.495 189.166H438.401C440.03 171.579 460.696 167.987 469.925 167.987C479.561 167.955 501.577 171.853 501.577 191.393ZM490.526 206.448L490.451 199.892C481.683 197.791 447.576 190.385 447.576 204.798C447.544 219.464 482.53 209.064 490.526 206.448Z" fill="#1D1D1D"/>
<path d="M546.663 211.816C546.663 211.816 542.826 215.051 532.075 215.051C522.267 215.051 522.267 207.834 522.267 203.695V171.043H510.477V168.385L522.267 168.207V150.231L533.436 152.217V167.975L545.227 167.786V170.938H533.436L533.34 206.037C533.34 206.037 533.575 214.757 545.623 209.189L546.663 211.816Z" fill="#1D1D1D"/>
<path d="M620.003 198.694C619.588 200.343 618.95 201.929 618.106 203.411C612.446 213.308 598.555 215.629 587.654 215.629C573.42 215.629 556.023 211.427 556.023 191.866C556.023 172.304 578.04 168.427 587.654 168.427C597.269 168.427 619.285 172.325 619.285 191.866C619.285 192.527 619.221 193.589 619.178 194.219H608.116H566.903C567.053 200.764 569.636 210.975 585.35 212.646C602.5 214.453 606.926 204.998 608.073 198.799L620.003 198.694ZM589.991 170.728C575.789 169.226 568.082 181.36 567.139 189.912C567.085 190.384 567.021 190.962 566.978 191.666L608.213 191.025C607.784 182.621 602.5 172.052 589.991 170.728Z" fill="#1D1D1D"/>
<path d="M345.504 34.1644C354.755 42.937 366.592 48.6276 379.332 50.4271H327.883V0C329.795 12.9678 335.984 24.9663 345.504 34.1644Z" fill="#738F9C"/>
<path d="M345.504 84.6246C354.748 93.4108 366.587 99.11 379.332 100.908H327.883V50.4287C329.788 63.4078 335.978 75.4183 345.504 84.6246Z" fill="#1D1D1D"/>
<path d="M310.203 66.744C300.964 57.9463 289.124 52.2359 276.375 50.4287H327.825V100.856C325.899 87.9074 319.711 75.9296 310.203 66.744Z" fill="#FC6D3B"/>
<path d="M294.001 34.1644C303.257 42.936 315.097 48.6263 327.84 50.4271H276.391V0C278.3 12.9665 284.485 24.9649 294.001 34.1644Z" fill="#738F9C"/>
</g>
<defs>
<clipPath id="clip0_31_150">
<rect width="620" height="220" fill="white"/>
</clipPath>
</defs>
</svg>
