<svg width="456" height="142" viewBox="0 0 456 142" fill="none" xmlns="http://www.w3.org/2000/svg">
<g clip-path="url(#clip0_155_1502)">
<path d="M205.2 34.7808C206.43 34.8002 207.653 34.5971 208.81 34.1815C209.808 33.8352 210.729 33.2993 211.523 32.6033C212.245 31.9704 212.823 31.1906 213.219 30.3158C213.617 29.4411 213.821 28.4903 213.817 27.529C213.851 26.3726 213.549 25.2313 212.95 24.2427C212.36 23.3186 211.59 22.5236 210.686 21.9053C209.697 21.2148 208.641 20.6258 207.534 20.1473C206.367 19.6379 205.17 19.1484 203.943 18.669C202.717 18.1895 201.5 17.6701 200.323 17.1207C199.192 16.5903 198.134 15.9191 197.171 15.123C196.254 14.3774 195.497 13.4531 194.947 12.406C194.36 11.2291 194.072 9.92531 194.109 8.61029C194.046 7.09593 194.469 5.60116 195.316 4.34511C196.093 3.27269 197.085 2.37451 198.228 1.70806C199.335 1.05957 200.542 0.600466 201.799 0.349608C202.835 0.125025 203.891 0.00126036 204.951 -0.0199703C206.549 -0.0454958 208.138 0.239436 209.628 0.819081C211.005 1.37845 212.142 1.86791 213.029 2.29743C213.269 2.49322 213.56 2.61471 213.867 2.64701C213.967 2.65148 214.067 2.63102 214.158 2.58744C214.248 2.54387 214.327 2.47854 214.386 2.39729C214.485 2.26722 214.544 2.11099 214.555 1.94781H214.805V8.51043H214.555C214.328 7.44473 213.909 6.42935 213.319 5.5138C212.725 4.59291 211.983 3.77622 211.124 3.09651C210.258 2.38106 209.285 1.80484 208.242 1.38845C207.186 0.962946 206.059 0.745855 204.921 0.749152C203.82 0.748169 202.725 0.90629 201.669 1.21862C200.656 1.50961 199.698 1.96882 198.837 2.57711C198.026 3.14945 197.346 3.88838 196.842 4.74465C196.317 5.6538 196.054 6.69133 196.084 7.74127C196.014 9.26897 196.536 10.7648 197.54 11.9166C198.582 13.0383 199.814 13.9651 201.181 14.6535C202.72 15.4397 204.309 16.1237 205.938 16.7012C207.58 17.2775 209.168 17.996 210.686 18.8488C212.081 19.6065 213.32 20.6235 214.336 21.8454C215.351 23.2006 215.862 24.8679 215.782 26.5601C215.794 27.8205 215.5 29.065 214.924 30.186C214.354 31.2792 213.566 32.2444 212.61 33.0228C211.6 33.8322 210.456 34.4577 209.229 34.8707C207.945 35.3123 206.597 35.5384 205.24 35.54C203.944 35.5577 202.648 35.4573 201.37 35.2403C200.429 35.0775 199.504 34.8301 198.607 34.5011C197.92 34.2384 197.253 33.9245 196.613 33.5622C196.076 33.253 195.523 32.9729 194.957 32.7231C194.717 32.5294 194.426 32.4112 194.119 32.3835C194.021 32.3769 193.923 32.3954 193.834 32.4373C193.745 32.4793 193.668 32.5433 193.61 32.6232C193.507 32.7515 193.444 32.9082 193.431 33.0727H193.172V26.5101H193.411C193.671 27.7141 194.166 28.8547 194.867 29.8663C195.574 30.8858 196.46 31.7691 197.48 32.4734C198.556 33.2255 199.745 33.802 201.001 34.1815C202.363 34.5909 203.778 34.7929 205.2 34.7808Z" fill="rgb(42, 57, 76)"/>
<path d="M233.765 35.0605L233.665 34.9606V30.0662C232.848 30.9252 232.08 31.6943 231.371 32.3636C230.716 33.0007 229.997 33.5696 229.227 34.0617C228.505 34.5296 227.719 34.8897 226.893 35.1305C225.971 35.3846 225.017 35.509 224.061 35.5C223.04 35.5116 222.026 35.3355 221.069 34.9806C220.239 34.6674 219.483 34.1881 218.844 33.5722C218.257 32.984 217.799 32.2799 217.498 31.5045C217.18 30.7039 217.021 29.849 217.029 28.9874C216.998 28.1866 217.128 27.3876 217.41 26.6379C217.693 25.8881 218.123 25.2027 218.675 24.6223C219.866 23.4173 221.278 22.454 222.834 21.7855C224.583 20.9986 226.399 20.3701 228.26 19.9076C230.195 19.4148 232 18.9054 233.675 18.3793V18.3294C233.808 16.2814 233.135 14.2628 231.8 12.7057C231.137 12.0298 230.338 11.5023 229.456 11.1579C228.574 10.8136 227.629 10.6602 226.684 10.708C225.533 10.6982 224.404 11.0207 223.432 11.6369C222.348 12.3857 221.494 13.4238 220.969 14.6335C220.833 14.8891 220.638 15.1084 220.4 15.2728C220.185 15.4063 219.936 15.4756 219.682 15.4726C219.39 15.4803 219.102 15.4114 218.844 15.2728C218.641 15.1792 218.472 15.0234 218.363 14.8277C218.254 14.632 218.209 14.4067 218.236 14.1841C218.258 13.7974 218.386 13.4243 218.605 13.1053C219.399 12.1349 220.401 11.3565 221.537 10.8278C223.201 10.0975 225.009 9.75588 226.823 9.82895C227.942 9.82254 229.056 9.98762 230.125 10.3184C231.154 10.6357 232.11 11.1552 232.937 11.8467C233.792 12.5644 234.473 13.4658 234.932 14.4837C235.454 15.6896 235.706 16.9955 235.67 18.3094V31.4346C235.663 31.5872 235.69 31.7395 235.751 31.8798C235.811 32.0201 235.903 32.1446 236.019 32.2437C236.254 32.4255 236.522 32.561 236.807 32.6432C237.08 32.7184 237.362 32.7521 237.645 32.7431C237.795 32.746 237.944 32.7189 238.084 32.6632L238.184 32.913L233.765 35.0605ZM233.665 19.1784C231.89 19.7045 230.131 20.2139 228.389 20.7067C226.778 21.1591 225.212 21.7611 223.712 22.5047C222.424 23.1416 221.277 24.0317 220.34 25.1217C219.448 26.2336 218.969 27.621 218.984 29.0473C218.983 29.7513 219.101 30.4504 219.333 31.115C219.556 31.7656 219.924 32.3567 220.41 32.843C220.943 33.3574 221.574 33.7584 222.265 34.0217C223.073 34.3347 223.933 34.4874 224.799 34.4712C225.657 34.4774 226.509 34.325 227.312 34.0217C228.116 33.7243 228.878 33.3212 229.576 32.8231C230.313 32.2962 231.013 31.7188 231.671 31.095C232.339 30.4457 233.007 29.7865 233.665 29.0972V19.1784Z" fill="rgb(42, 57, 76)"/>
<path d="M244.846 15.4925H244.896C245.152 14.8876 245.466 14.3089 245.833 13.7645C246.289 13.0624 246.855 12.4384 247.509 11.9165C248.246 11.3061 249.074 10.8141 249.962 10.4582C250.997 10.048 252.102 9.84771 253.214 9.86886C254.912 9.82103 256.58 10.3219 257.971 11.2972C259.46 12.5337 260.405 14.3052 260.604 16.2317L260.904 15.4925C261.176 14.884 261.511 14.3049 261.901 13.7645C262.377 13.0687 262.951 12.4462 263.606 11.9165C264.344 11.3061 265.172 10.8141 266.06 10.4582C267.094 10.048 268.199 9.84771 269.311 9.86886C270.359 9.85596 271.401 10.0215 272.393 10.3583C273.332 10.69 274.17 11.2575 274.827 12.0065C275.573 12.8766 276.121 13.8992 276.433 15.0031C276.846 16.4884 277.037 18.0266 277.001 19.5679V32.5533C276.99 32.9057 277.083 33.2535 277.271 33.5522C277.431 33.8105 277.642 34.0345 277.889 34.2114C278.13 34.4471 278.415 34.6337 278.727 34.7608V35.0605H273.361V34.8208C273.49 34.7973 273.615 34.7535 273.73 34.6909C273.933 34.5931 274.119 34.4613 274.278 34.3013C274.474 34.0967 274.639 33.8645 274.767 33.6121C274.926 33.3038 275.001 32.9596 274.987 32.6132V19.6278C274.987 16.6645 274.438 14.5336 273.341 13.2351C272.77 12.5824 272.059 12.068 271.261 11.7306C270.462 11.3932 269.598 11.2416 268.733 11.2873C267.744 11.2877 266.765 11.4811 265.851 11.8566C264.924 12.2258 264.073 12.7606 263.337 13.4348C262.593 14.1141 261.993 14.9361 261.572 15.8521C261.118 16.8134 260.89 17.8656 260.904 18.9287V32.6432C260.892 32.9956 260.986 33.3434 261.173 33.6421C261.334 33.9004 261.544 34.1244 261.791 34.3013C262.032 34.537 262.317 34.7236 262.629 34.8507V35.0605H257.303V34.8208C257.432 34.7973 257.557 34.7535 257.672 34.6909C257.877 34.5954 258.063 34.4634 258.221 34.3013C258.416 34.0967 258.581 33.8645 258.709 33.6121C258.868 33.3038 258.943 32.9596 258.929 32.6132V19.6278C258.929 16.6645 258.38 14.5336 257.283 13.2351C256.712 12.5824 256.001 12.068 255.203 11.7306C254.405 11.3932 253.54 11.2416 252.675 11.2873C251.687 11.2877 250.708 11.4811 249.793 11.8566C248.867 12.2258 248.015 12.7606 247.279 13.4348C246.535 14.1141 245.935 14.9361 245.514 15.8521C245.061 16.8134 244.832 17.8656 244.846 18.9287V32.6432C244.834 32.9956 244.928 33.3434 245.115 33.6421C245.268 33.8911 245.46 34.1137 245.684 34.3013C245.925 34.537 246.209 34.7236 246.521 34.8507V35.0605H241.245V34.8208C241.374 34.7973 241.499 34.7535 241.614 34.6909C241.821 34.5979 242.007 34.4656 242.163 34.3013C242.359 34.0967 242.523 33.8645 242.652 33.6121C242.81 33.3038 242.886 32.9596 242.871 32.6132V13.9143C242.881 13.7608 242.856 13.6071 242.797 13.465C242.738 13.323 242.648 13.1964 242.532 13.0952C242.297 12.9146 242.03 12.7822 241.744 12.7057C241.48 12.6214 241.203 12.5875 240.926 12.6058C240.767 12.6051 240.609 12.6287 240.457 12.6757L240.358 12.426L244.796 10.3583V10.4582L244.846 15.4925Z" fill="rgb(42, 57, 76)"/>
<path d="M286.366 9.96874V32.6032C286.355 32.9556 286.448 33.3035 286.636 33.6021C286.788 33.8512 286.98 34.0738 287.204 34.2614C287.445 34.4971 287.73 34.6836 288.042 34.8107V35.0605H282.726V34.8207C282.854 34.7943 282.978 34.7506 283.095 34.6909C283.302 34.594 283.491 34.4623 283.653 34.3013C283.865 34.1035 284.041 33.8702 284.172 33.6121C284.331 33.3038 284.406 32.9596 284.392 32.6132V13.4148C284.4 13.263 284.374 13.1113 284.316 12.971C284.257 12.8308 284.167 12.7059 284.052 12.6058C283.82 12.4202 283.552 12.2843 283.265 12.2062C282.999 12.1317 282.723 12.098 282.447 12.1063C282.287 12.1074 282.129 12.1344 281.978 12.1862L281.888 11.9365L286.267 9.86885L286.366 9.96874ZM283.604 5.27402C283.604 4.12532 284.212 3.55596 285.429 3.55596C285.905 3.52363 286.375 3.68167 286.735 3.99546C286.898 4.16428 287.024 4.36518 287.104 4.58531C287.185 4.80545 287.219 5.03999 287.204 5.27402C287.221 5.50525 287.188 5.73745 287.107 5.95468C287.026 6.17192 286.9 6.36907 286.735 6.53261C286.368 6.83187 285.902 6.98162 285.429 6.95212C284.212 6.95212 283.604 6.39276 283.604 5.27402Z" fill="rgb(42, 57, 76)"/>
<path d="M294.245 18.3493V32.6033C294.234 32.9557 294.328 33.3035 294.515 33.6022C294.667 33.8512 294.859 34.0738 295.083 34.2614C295.324 34.4971 295.609 34.6837 295.921 34.8108V35.0605H290.655V34.8208C290.783 34.7943 290.907 34.7506 291.024 34.6909C291.226 34.5952 291.408 34.4631 291.563 34.3013C291.761 34.0993 291.926 33.8666 292.051 33.6121C292.213 33.3048 292.292 32.9605 292.281 32.6132V13.9143C292.289 13.7568 292.26 13.5995 292.196 13.4554C292.131 13.3113 292.034 13.1844 291.912 13.0853C291.678 12.9028 291.41 12.7702 291.124 12.6957C290.863 12.612 290.589 12.5781 290.316 12.5958C290.157 12.5932 289.998 12.6168 289.847 12.6657L289.747 12.416L294.176 10.3484L294.226 10.4482V14.7834C294.565 14.0349 295.042 13.3571 295.632 12.7856C296.227 12.1821 296.897 11.6583 297.627 11.2274C298.362 10.7948 299.149 10.459 299.97 10.2285C300.723 10.0097 301.501 9.89535 302.284 9.88885C302.584 9.88885 302.963 9.88887 303.441 9.93882C303.908 9.96666 304.369 10.0471 304.818 10.1785C305.24 10.2965 305.634 10.5006 305.975 10.7779C306.137 10.9049 306.268 11.0691 306.354 11.2568C306.441 11.4444 306.482 11.65 306.473 11.8566C306.456 12.1982 306.334 12.5261 306.124 12.7956C305.985 12.9696 305.804 13.1056 305.598 13.1911C305.393 13.2767 305.169 13.309 304.947 13.2851C304.787 13.3 304.626 13.282 304.474 13.2321C304.321 13.1823 304.18 13.1017 304.06 12.9954L303.391 12.3561C303.095 12.0892 302.758 11.8702 302.394 11.7068C301.839 11.4887 301.244 11.39 300.649 11.4171C299.695 11.4003 298.75 11.6019 297.886 12.0065C297.116 12.3752 296.436 12.9069 295.891 13.5647C295.335 14.2171 294.909 14.9698 294.634 15.7822C294.359 16.6094 294.228 17.4776 294.245 18.3493Z" fill="rgb(42, 57, 76)"/>
<path d="M326.95 31.1249C326.935 31.6898 327.08 32.2473 327.368 32.7331C327.631 33.149 327.935 33.5372 328.276 33.8918C328.674 34.2545 329.125 34.5543 329.613 34.7808V35.0605H322.322V34.8208C322.505 34.7693 322.679 34.6919 322.84 34.591C323.167 34.4061 323.471 34.185 323.748 33.9317C324.099 33.6036 324.392 33.2187 324.616 32.793C324.869 32.2885 324.996 31.7296 324.985 31.1649V4.38505C324.976 3.9703 324.892 3.56063 324.735 3.17639C324.575 2.77656 324.368 2.39759 324.117 2.04768C323.881 1.70674 323.591 1.40647 323.259 1.15867C322.991 0.935078 322.667 0.789923 322.322 0.73916V0.489441H333.293C334.744 0.498534 336.193 0.598605 337.632 0.789091C339.164 0.977311 340.657 1.40187 342.06 2.04768C343.425 2.67308 344.611 3.63123 345.511 4.83452C346.498 6.28347 346.982 8.01744 346.887 9.76896C346.985 11.6364 346.523 13.4904 345.561 15.093C344.682 16.3952 343.465 17.4316 342.04 18.0896C340.465 18.8147 338.779 19.2673 337.053 19.4281C335.137 19.6215 333.213 19.7182 331.288 19.7178H329.024H327.538H326.999L326.95 31.1249ZM326.95 18.9386H330.939C332.415 18.9386 333.931 18.8687 335.617 18.7189C337.178 18.5896 338.709 18.2154 340.155 17.6101C341.673 17.0007 342.956 15.9201 343.816 14.5269C344.675 13.1337 345.067 11.5012 344.932 9.86886C345.005 8.29089 344.583 6.72969 343.725 5.40389C342.95 4.29813 341.925 3.39124 340.733 2.75687C339.548 2.13694 338.267 1.72157 336.943 1.52825C335.735 1.33955 334.515 1.23941 333.293 1.2286H326.989L326.95 18.9386Z" fill="rgb(42, 57, 76)"/>
<path d="M364.83 35.0605L364.73 34.9606V30.0662C363.912 30.9252 363.144 31.6943 362.436 32.3636C361.78 33.0007 361.062 33.5696 360.292 34.0617C359.57 34.5296 358.784 34.8897 357.958 35.1305C357.035 35.3846 356.082 35.509 355.125 35.5C354.105 35.5116 353.09 35.3355 352.133 34.9806C351.304 34.6674 350.547 34.1881 349.909 33.5722C349.322 32.984 348.863 32.2799 348.563 31.5045C348.245 30.7039 348.085 29.849 348.094 28.9874C348.063 28.1866 348.192 27.3876 348.475 26.6379C348.758 25.8881 349.188 25.2027 349.739 24.6223C350.931 23.4173 352.343 22.454 353.899 21.7855C355.648 20.9986 357.463 20.3701 359.324 19.9076C361.259 19.4148 363.064 18.9054 364.74 18.3793V18.3294C364.873 16.2814 364.2 14.2628 362.865 12.7057C362.201 12.0298 361.402 11.5023 360.52 11.1579C359.638 10.8136 358.694 10.6602 357.748 10.708C356.598 10.6982 355.469 11.0207 354.497 11.6369C353.412 12.3857 352.559 13.4238 352.034 14.6335C351.898 14.8891 351.703 15.1084 351.465 15.2728C351.249 15.4063 351 15.4756 350.747 15.4726C350.455 15.4803 350.166 15.4114 349.909 15.2728C349.706 15.1792 349.537 15.0234 349.428 14.8277C349.318 14.632 349.274 14.4067 349.301 14.1841C349.323 13.7974 349.45 13.4243 349.67 13.1053C350.464 12.1349 351.466 11.3565 352.602 10.8278C354.265 10.0975 356.073 9.75588 357.888 9.82895C359.007 9.82254 360.12 9.98762 361.189 10.3184C362.219 10.6357 363.175 11.1552 364.002 11.8467C364.856 12.5644 365.538 13.4658 365.997 14.4837C366.519 15.6896 366.771 16.9955 366.735 18.3094V31.4346C366.727 31.5872 366.755 31.7395 366.815 31.8798C366.876 32.0201 366.968 32.1446 367.084 32.2437C367.319 32.4255 367.586 32.561 367.872 32.6432C368.144 32.7184 368.427 32.7521 368.71 32.7431C368.86 32.746 369.009 32.7189 369.148 32.6632L369.248 32.913L364.83 35.0605ZM364.73 19.1784C362.955 19.7045 361.196 20.2139 359.454 20.7067C357.842 21.1591 356.276 21.7611 354.776 22.5047C353.489 23.1416 352.342 24.0317 351.405 25.1217C350.509 26.2311 350.029 27.6202 350.049 29.0473C350.048 29.7513 350.166 30.4504 350.398 31.115C350.621 31.7656 350.989 32.3567 351.475 32.843C352.007 33.3574 352.639 33.7584 353.33 34.0217C354.137 34.3347 354.998 34.4874 355.863 34.4712C356.722 34.4774 357.574 34.325 358.377 34.0217C359.181 33.7243 359.942 33.3212 360.641 32.8231C361.376 32.2862 362.072 31.6988 362.725 31.065C363.394 30.4158 364.062 29.7565 364.72 29.0673L364.73 19.1784Z" fill="rgb(42, 57, 76)"/>
<path d="M371.034 47.3566L370.934 47.1069C371.759 46.8153 372.49 46.3042 373.048 45.6285C373.549 44.9997 373.924 44.281 374.155 43.5109C374.41 42.694 374.56 41.8484 374.604 40.9938C374.654 40.1048 374.674 39.1958 374.674 38.2768V13.9143C374.684 13.7608 374.659 13.6071 374.6 13.465C374.541 13.3229 374.451 13.1964 374.335 13.0952C374.1 12.9146 373.833 12.7822 373.547 12.7057C373.283 12.6214 373.006 12.5875 372.729 12.6058C372.57 12.6051 372.412 12.6287 372.26 12.6757L372.161 12.426L376.549 10.3583L376.649 10.4582V38.2768C376.653 39.3275 376.57 40.3766 376.399 41.4133C376.258 42.353 375.958 43.2617 375.512 44.1003C375.082 44.8933 374.495 45.5901 373.786 46.148C372.976 46.7619 372.033 47.176 371.034 47.3566ZM373.886 5.27402C373.886 4.12532 374.495 3.55596 375.711 3.55596C376.188 3.52363 376.658 3.68167 377.018 3.99546C377.18 4.16428 377.306 4.36518 377.387 4.58531C377.467 4.80545 377.501 5.03999 377.487 5.27402C377.504 5.50525 377.471 5.73745 377.39 5.95468C377.309 6.17192 377.182 6.36907 377.018 6.53261C376.65 6.83187 376.184 6.98162 375.711 6.95212C374.495 6.95212 373.886 6.39276 373.886 5.27402Z" fill="rgb(42, 57, 76)"/>
<path d="M395.459 35.0605L395.36 34.9606V30.0661C394.542 30.9251 393.784 31.6943 393.076 32.3635C392.418 32.9984 391.7 33.5672 390.931 34.0616C390.206 34.5296 389.416 34.8896 388.587 35.1304C387.665 35.3852 386.712 35.5096 385.755 35.5C384.734 35.5115 383.72 35.3355 382.763 34.9806C381.935 34.6697 381.181 34.1901 380.549 33.5722C379.958 32.9849 379.496 32.2807 379.192 31.5045C378.879 30.7025 378.72 29.8485 378.723 28.9873C378.694 28.1858 378.825 27.3864 379.109 26.6366C379.394 25.8868 379.825 25.2018 380.379 24.6222C381.57 23.4172 382.982 22.454 384.538 21.7854C386.284 21.0001 388.097 20.3716 389.954 19.9075C391.889 19.4181 393.704 18.9087 395.37 18.3793V18.3293C395.505 16.2827 394.836 14.2643 393.504 12.7057C392.839 12.0295 392.038 11.5019 391.155 11.1576C390.271 10.8133 389.325 10.66 388.378 10.7079C387.228 10.6981 386.099 11.0206 385.127 11.6369C384.042 12.3857 383.189 13.4238 382.663 14.6335C382.534 14.8905 382.342 15.1105 382.104 15.2728C381.888 15.4038 381.639 15.4729 381.386 15.4726C381.095 15.4802 380.806 15.4113 380.549 15.2728C380.344 15.1795 380.174 15.0241 380.063 14.8286C379.952 14.6331 379.906 14.4076 379.93 14.184C379.957 13.7983 380.084 13.4264 380.299 13.1052C381.095 12.1371 382.097 11.359 383.232 10.8278C384.898 10.0959 386.709 9.7543 388.528 9.82889C389.646 9.82249 390.76 9.98757 391.829 10.3184C392.862 10.6466 393.819 11.1799 394.641 11.8866C395.495 12.605 396.177 13.5062 396.636 14.5236C397.154 15.7309 397.406 17.0358 397.374 18.3493V31.4745C397.362 31.6277 397.387 31.7816 397.448 31.9226C397.509 32.0637 397.604 32.1876 397.723 32.2836C397.959 32.4654 398.226 32.6009 398.511 32.6831C398.78 32.7588 399.06 32.7925 399.339 32.783C399.493 32.7865 399.645 32.7593 399.788 32.7031L399.888 32.9529L395.459 35.0605ZM395.36 19.1784C393.594 19.7078 391.829 20.1772 390.093 20.7067C388.481 21.1572 386.915 21.7592 385.416 22.5046C384.128 23.1416 382.982 24.0316 382.045 25.1217C381.144 26.229 380.664 27.6195 380.688 29.0473C380.684 29.7507 380.799 30.4498 381.027 31.1149C381.254 31.7661 381.626 32.357 382.114 32.843C382.642 33.3593 383.27 33.7606 383.96 34.0216C384.77 34.3344 385.634 34.4871 386.503 34.4711C387.358 34.4761 388.206 34.3237 389.006 34.0216C389.813 33.722 390.577 33.3191 391.28 32.823C392.016 32.2985 392.713 31.721 393.365 31.0949C394.043 30.4457 394.711 29.7864 395.36 29.0972V19.1784Z" fill="rgb(42, 57, 76)"/>
<path d="M406.54 0.589299V32.6032C406.527 32.9572 406.625 33.3065 406.82 33.6021C406.972 33.8484 407.16 34.0705 407.378 34.2614C407.619 34.4971 407.904 34.6837 408.216 34.8107V35.0605H402.9V34.8207C403.029 34.7973 403.154 34.7535 403.269 34.6909C403.477 34.5914 403.669 34.4599 403.837 34.3013C404.049 34.1035 404.224 33.8702 404.356 33.6121C404.508 33.3016 404.583 32.959 404.575 32.6132V4.09536C404.584 3.94109 404.558 3.78682 404.497 3.64469C404.436 3.50257 404.344 3.37645 404.226 3.27627C403.993 3.09383 403.725 2.96126 403.438 2.88673C403.177 2.8069 402.904 2.77309 402.631 2.78684C402.472 2.78953 402.314 2.81304 402.162 2.85676L402.062 2.61701L406.45 0.539368L406.54 0.589299Z" fill="rgb(42, 57, 76)"/>
<path d="M416.394 9.96874V32.6032C416.383 32.9556 416.476 33.3035 416.664 33.6021C416.816 33.8512 417.008 34.0738 417.232 34.2614C417.473 34.4971 417.758 34.6836 418.07 34.8107V35.0605H412.754V34.8207C412.882 34.7943 413.006 34.7506 413.123 34.6909C413.33 34.594 413.519 34.4623 413.681 34.3013C413.893 34.1035 414.068 33.8702 414.2 33.6121C414.362 33.3048 414.441 32.9605 414.429 32.6132V13.4148C414.437 13.2622 414.409 13.1099 414.349 12.9697C414.288 12.8294 414.196 12.7049 414.08 12.6058C413.848 12.4202 413.579 12.2843 413.292 12.2062C413.026 12.1317 412.751 12.098 412.475 12.1063C412.318 12.1059 412.163 12.1329 412.016 12.1862L411.916 11.9365L416.295 9.86885L416.394 9.96874ZM413.641 5.27402C413.641 4.12532 414.24 3.55596 415.457 3.55596C415.933 3.52363 416.403 3.68167 416.763 3.99546C416.926 4.16428 417.051 4.36518 417.132 4.58531C417.213 4.80545 417.247 5.03999 417.232 5.27402C417.249 5.50525 417.216 5.73745 417.135 5.95468C417.054 6.17192 416.927 6.36907 416.763 6.53261C416.396 6.83187 415.929 6.98162 415.457 6.95212C414.24 6.95212 413.641 6.39276 413.641 5.27402Z" fill="rgb(42, 57, 76)"/>
<path d="M422.747 22.7943C422.738 24.3214 422.964 25.8408 423.416 27.2992C423.812 28.6474 424.436 29.9176 425.261 31.055C426.006 32.0817 426.953 32.9451 428.043 33.5921C429.094 34.2154 430.294 34.54 431.514 34.5311C433.146 34.6284 434.77 34.2463 436.187 33.4318C437.605 32.6173 438.754 31.4058 439.493 29.9463L440.132 30.2859C439.3 31.7492 438.168 33.0191 436.81 34.0117C435.237 35.0768 433.362 35.6057 431.464 35.52C429.873 35.5386 428.298 35.1972 426.857 34.5211C425.55 33.8969 424.398 32.9893 423.485 31.8641C422.537 30.6655 421.835 29.2906 421.421 27.8187C420.946 26.1766 420.714 24.4737 420.733 22.7644C420.71 21.0236 420.994 19.2925 421.57 17.6501C422.074 16.1864 422.849 14.831 423.854 13.6546C424.797 12.5579 425.955 11.6671 427.256 11.0376C428.593 10.3958 430.061 10.0711 431.544 10.0886C432.703 10.0482 433.86 10.2069 434.965 10.5581C435.709 10.8258 436.426 11.1601 437.11 11.557C437.686 11.9579 438.209 12.4312 438.665 12.9654C439.247 13.5894 439.632 14.3711 439.773 15.2129C439.828 15.6039 439.784 16.0026 439.643 16.3716C439.578 16.5883 439.447 16.7792 439.268 16.9172C439.089 17.0552 438.871 17.1334 438.646 17.1407C438.27 17.1864 437.892 17.0863 437.588 16.861C437.252 16.5529 437.018 16.1482 436.92 15.7023C436.846 15.4097 436.789 15.1128 436.75 14.8133C436.694 14.4269 436.594 14.0482 436.451 13.6846C436.291 13.2613 436.058 12.8692 435.763 12.5259C435.407 12.1003 434.96 11.7591 434.457 11.527C434.042 11.3362 433.616 11.1728 433.18 11.0376C432.634 10.8911 432.07 10.8238 431.504 10.8378C430.18 10.8217 428.877 11.167 427.734 11.8367C426.629 12.4832 425.688 13.3751 424.981 14.4437C424.216 15.6102 423.649 16.8964 423.306 18.2494C422.921 19.7333 422.734 21.2614 422.747 22.7943Z" fill="rgb(42, 57, 76)"/>
<path d="M207.654 72.0188C208.519 72.4827 209.243 73.1731 209.748 74.0166C210.41 75.0449 211.003 76.116 211.523 77.2229C212.102 78.4216 212.67 79.6502 213.249 80.9188C213.809 82.1443 214.476 83.3176 215.244 84.4249C215.936 85.4403 216.804 86.3232 217.807 87.0319C218.818 87.716 220.018 88.0653 221.238 88.0308V88.2705H217.308C216.821 88.2633 216.341 88.1517 215.901 87.9433C215.46 87.7348 215.07 87.4342 214.755 87.0619C213.918 86.1564 213.198 85.1497 212.61 84.0652C211.946 82.8466 211.281 81.5381 210.616 80.1397C209.977 78.7413 209.309 77.4327 208.621 76.2141C207.991 75.1134 207.212 74.105 206.307 73.2175C205.938 72.8381 205.498 72.536 205.012 72.3285C204.526 72.121 204.003 72.0123 203.475 72.0088H197.261V84.4348C197.246 84.9997 197.392 85.5572 197.68 86.043C197.943 86.4615 198.25 86.85 198.597 87.2017C198.992 87.5642 199.439 87.864 199.924 88.0907V88.3304H192.633V88.0008C192.817 87.9515 192.992 87.874 193.152 87.7711C193.48 87.5896 193.785 87.3682 194.059 87.1118C194.41 86.7837 194.704 86.3987 194.927 85.9731C195.185 85.4703 195.312 84.9102 195.296 84.3449V57.625C195.292 57.2098 195.207 56.7992 195.047 56.4164C194.891 56.0147 194.683 55.6353 194.428 55.2877C194.192 54.9467 193.903 54.6465 193.571 54.3987C193.303 54.1751 192.978 54.0299 192.633 53.9791V53.7294H204.552C205.797 53.742 207.04 53.8421 208.272 54.0291C209.663 54.2223 211.011 54.6477 212.261 55.2877C213.525 55.9431 214.607 56.9003 215.413 58.0745C216.169 59.4284 216.601 60.9389 216.678 62.488C216.754 64.0371 216.471 65.5829 215.852 67.0045C215.325 68.0217 214.575 68.9061 213.658 69.5916C212.745 70.2766 211.709 70.7785 210.606 71.0699C209.469 71.3896 208.308 71.6135 207.135 71.7391C207.326 71.7944 207.502 71.8897 207.654 72.0188ZM197.261 71.2297H200.811C201.809 71.2297 202.806 71.2297 203.804 71.1498C204.853 71.1037 205.898 70.9969 206.935 70.8302C207.957 70.6779 208.959 70.4201 209.928 70.061C210.824 69.7423 211.658 69.269 212.391 68.6626C213.116 68.0488 213.695 67.2811 214.087 66.4151C214.543 65.385 214.765 64.2656 214.735 63.1388C214.811 61.574 214.426 60.0213 213.628 58.6739C212.943 57.5933 212.014 56.6898 210.915 56.0368C209.892 55.4257 208.767 55.006 207.594 54.7982C206.606 54.6147 205.606 54.5145 204.602 54.4986H197.261V71.2297Z" fill="rgb(42, 57, 76)"/>
<path d="M224.948 74.5959C224.918 74.8346 224.902 75.0747 224.898 75.3151V76.0144C224.889 77.5414 225.114 79.0608 225.566 80.5193C225.963 81.8674 226.587 83.1376 227.412 84.275C228.154 85.3042 229.102 86.1681 230.194 86.8122C231.244 87.4354 232.444 87.7601 233.665 87.7511C235.303 87.8092 236.926 87.4336 238.373 86.6624C239.763 85.8038 240.907 84.5994 241.694 83.1663L242.332 83.5059C241.495 84.9649 240.364 86.2336 239.011 87.2317C237.438 88.2995 235.563 88.8286 233.665 88.74C232.073 88.7646 230.497 88.4229 229.057 87.7411C227.751 87.117 226.599 86.2094 225.686 85.0841C224.738 83.8837 224.034 82.5095 223.612 81.0387C223.142 79.3956 222.91 77.6935 222.923 75.9844C222.906 74.244 223.19 72.5138 223.761 70.8702C224.273 69.4078 225.05 68.0531 226.055 66.8747C226.998 65.7779 228.155 64.8871 229.456 64.2576C230.77 63.6302 232.209 63.3092 233.665 63.3187C235.05 63.2948 236.419 63.6103 237.655 64.2376C238.784 64.827 239.76 65.6717 240.507 66.7048C241.292 67.7907 241.876 69.0086 242.233 70.3008C242.631 71.6871 242.829 73.1234 242.821 74.566L224.948 74.5959ZM233.665 64.1377C232.496 64.1209 231.34 64.3846 230.294 64.9069C229.297 65.4106 228.414 66.1145 227.701 66.9746C226.951 67.8985 226.361 68.9418 225.955 70.0611C225.503 71.2855 225.198 72.5598 225.048 73.8568H240.906C240.901 72.7351 240.761 71.6182 240.487 70.5305C240.218 69.4231 239.777 68.3648 239.181 67.3941C238.604 66.4595 237.832 65.6619 236.916 65.0567C235.949 64.4315 234.816 64.1114 233.665 64.1377Z" fill="rgb(42, 57, 76)"/>
<path d="M248.536 76.0143C248.532 77.5411 248.757 79.0597 249.204 80.5193C249.601 81.8674 250.225 83.1376 251.049 84.275C251.792 85.3042 252.739 86.1681 253.832 86.8122C254.882 87.4354 256.082 87.76 257.303 87.7511C258.942 87.8584 260.577 87.4811 262.005 86.6661C263.432 85.851 264.589 84.6341 265.332 83.1663L265.98 83.5059C265.142 84.9674 264.007 86.2366 262.649 87.2317C261.077 88.3021 259.201 88.8315 257.303 88.74C255.714 88.7649 254.141 88.4231 252.705 87.7411C251.394 87.12 250.238 86.212 249.324 85.0841C248.375 83.8856 247.674 82.5106 247.259 81.0387C246.79 79.3955 246.558 77.6934 246.571 75.9844C246.554 74.244 246.837 72.5138 247.409 70.8702C247.917 69.4083 248.691 68.0536 249.693 66.8747C250.635 65.7779 251.793 64.8871 253.094 64.2576C254.408 63.6312 255.847 63.3102 257.303 63.3187C258.465 63.2782 259.625 63.437 260.734 63.7881C261.474 64.0555 262.188 64.3899 262.868 64.787C263.445 65.1879 263.968 65.6613 264.424 66.1954C265.006 66.8194 265.391 67.6011 265.531 68.4429C265.596 68.8329 265.554 69.233 265.411 69.6016C265.344 69.8168 265.212 70.006 265.034 70.1436C264.855 70.2812 264.639 70.3605 264.414 70.3707C264.039 70.4154 263.661 70.3154 263.357 70.091C263.02 69.7845 262.79 69.3787 262.699 68.9323C262.615 68.6412 262.555 68.3439 262.519 68.0433C262.462 67.6582 262.365 67.28 262.23 66.9146C262.065 66.4932 261.833 66.1017 261.542 65.7559C261.183 65.3326 260.737 64.9919 260.235 64.757C259.817 64.5679 259.387 64.4044 258.949 64.2676C258.402 64.1211 257.838 64.0539 257.273 64.0678C255.952 64.0516 254.652 64.3969 253.513 65.0667C252.403 65.71 251.457 66.6024 250.75 67.6737C249.984 68.8402 249.418 70.1264 249.074 71.4795C248.698 72.961 248.517 74.4856 248.536 76.0143Z" fill="rgb(42, 57, 76)"/>
<path d="M272.423 53.8293V68.7325C272.679 68.1276 272.993 67.5489 273.361 67.0045C273.823 66.3071 274.387 65.684 275.036 65.1566C275.776 64.5439 276.607 64.0517 277.5 63.6982C278.533 63.2862 279.639 63.0858 280.751 63.1088C281.844 63.1032 282.931 63.2683 283.973 63.5983C285.001 63.9237 285.937 64.4885 286.706 65.2465C287.549 66.0961 288.199 67.1184 288.611 68.2431C289.119 69.7095 289.359 71.256 289.319 72.8079V85.7933C289.306 86.1459 289.4 86.4941 289.588 86.7922C289.749 87.0505 289.959 87.2745 290.206 87.4514C290.447 87.6871 290.732 87.8737 291.044 88.0008V88.2405H285.728V88.0008C285.857 87.9759 285.981 87.9321 286.097 87.871C286.299 87.7752 286.482 87.6432 286.636 87.4814C286.834 87.2794 286.999 87.0467 287.124 86.7922C287.286 86.4849 287.365 86.1406 287.354 85.7933V72.8079C287.384 71.5161 287.191 70.2288 286.785 69.0022C286.459 68.0441 285.94 67.1634 285.259 66.4151C284.632 65.7505 283.856 65.244 282.995 64.9368C282.101 64.6227 281.16 64.464 280.213 64.4673C279.224 64.4678 278.245 64.6612 277.33 65.0367C276.404 65.4059 275.552 65.9407 274.817 66.6149C274.07 67.2936 273.466 68.1156 273.042 69.0322C272.594 69.9956 272.366 71.0463 272.373 72.1087V85.8233C272.359 86.1774 272.456 86.5271 272.653 86.8221C272.805 87.0684 272.993 87.2906 273.211 87.4814C273.452 87.7171 273.737 87.9037 274.049 88.0308V88.2705H268.733V88.0008C268.862 87.9774 268.987 87.9336 269.102 87.871C269.31 87.7715 269.502 87.64 269.67 87.4814C269.882 87.2836 270.057 87.0503 270.189 86.7922C270.342 86.482 270.417 86.1392 270.408 85.7933V57.2854C270.417 57.1312 270.391 56.9769 270.33 56.8348C270.27 56.6926 270.177 56.5665 270.059 56.4663C269.826 56.2839 269.558 56.1513 269.271 56.0768C269.01 55.9974 268.737 55.9636 268.464 55.9769C268.305 55.9796 268.147 56.0031 267.995 56.0468L267.895 55.8071L272.274 53.7294L272.423 53.8293Z" fill="rgb(42, 57, 76)"/>
<path d="M292.819 64.1877C293.16 64.1818 293.497 64.1176 293.817 63.9979C294.2 63.8575 294.571 63.6837 294.924 63.4785C295.277 63.2681 295.594 63.0016 295.861 62.6894C296.117 62.392 296.259 62.013 296.26 61.6206H296.5V63.948L299.751 63.7681L303.402 63.5984C303.736 63.5713 304.072 63.5949 304.399 63.6683C304.768 63.7582 304.947 64.0379 304.947 64.5373C304.947 65.0367 304.768 65.3164 304.399 65.3963C304.073 65.4775 303.736 65.5046 303.402 65.4762L299.751 65.2964C298.704 65.2964 297.617 65.1966 296.5 65.1266V82.3972C296.424 83.8046 296.852 85.1929 297.706 86.3128C298.097 86.7888 298.591 87.1681 299.152 87.4211C299.712 87.6741 300.324 87.7938 300.938 87.7711C302.208 87.7637 303.429 87.2789 304.359 86.4126C305.423 85.4648 306.242 84.2718 306.743 82.9366L307.192 83.1363C306.95 83.8443 306.646 84.5296 306.284 85.184C305.909 85.8572 305.435 86.4701 304.878 87.002C304.318 87.5266 303.678 87.9582 302.983 88.2805C302.248 88.618 301.447 88.7885 300.639 88.78C299.817 88.787 299.001 88.6519 298.225 88.3804C297.498 88.1361 296.834 87.7336 296.28 87.2018C295.717 86.6349 295.282 85.9537 295.004 85.204C294.669 84.3071 294.51 83.3542 294.535 82.3972V66.1155C294.535 65.5561 294.375 65.2165 294.066 65.1166C293.678 64.9856 293.269 64.9247 292.859 64.9368L292.819 64.1877Z" fill="rgb(42, 57, 76)"/>
<path d="M317.694 88.76C316.574 88.7653 315.457 88.648 314.363 88.4104C313.417 88.214 312.506 87.8773 311.66 87.4115C310.925 86.9973 310.286 86.4322 309.785 85.7534C309.306 85.1043 309.01 84.3385 308.927 83.5359C308.871 83.2886 308.911 83.0293 309.039 82.8104C309.167 82.5915 309.373 82.4295 309.615 82.3572C309.787 82.2752 309.978 82.2411 310.168 82.2587C310.357 82.2763 310.539 82.3449 310.692 82.4571C311.159 82.8327 311.489 83.3525 311.63 83.9354C311.73 84.2651 311.859 84.6646 312.029 85.1441C312.211 85.6519 312.504 86.1126 312.887 86.4925C313.382 86.9786 313.978 87.3502 314.632 87.5813C315.617 87.9171 316.655 88.0695 317.694 88.0308C318.477 88.093 319.265 87.991 320.007 87.7313C320.749 87.4717 321.429 87.0599 322.003 86.5225C322.476 86.0007 322.84 85.3883 323.071 84.7224C323.302 84.0564 323.397 83.3504 323.349 82.6469C323.379 82.1315 323.306 81.6152 323.135 81.1282C322.964 80.6412 322.697 80.1931 322.352 79.8101C321.608 79.0695 320.749 78.4555 319.808 77.9921C318.748 77.4549 317.656 76.9845 316.537 76.5837C315.39 76.1699 314.285 75.6481 313.236 75.0255C312.256 74.4491 311.396 73.6895 310.702 72.788C309.994 71.7797 309.643 70.5631 309.705 69.3319C309.654 68.2426 309.966 67.1673 310.593 66.2753C311.16 65.5043 311.88 64.8584 312.707 64.3775C313.5 63.9044 314.367 63.5668 315.27 63.3786C316.014 63.2149 316.773 63.1246 317.534 63.1089C318.364 63.1155 319.19 63.2126 319.998 63.3986C320.807 63.5839 321.586 63.8833 322.312 64.2876C322.986 64.6728 323.573 65.1931 324.037 65.8159C324.498 66.4472 324.739 67.2118 324.726 67.9934C324.751 68.2389 324.684 68.485 324.538 68.6842C324.393 68.8834 324.179 69.0216 323.938 69.0722C323.75 69.1383 323.549 69.1529 323.354 69.1142C323.159 69.0755 322.978 68.9851 322.831 68.8524C322.411 68.4316 322.141 67.884 322.063 67.2942C321.963 66.9346 321.843 66.555 321.694 66.1655C321.537 65.7551 321.304 65.3787 321.005 65.0567C320.641 64.6713 320.195 64.374 319.699 64.1877C319.006 63.9367 318.271 63.8214 317.534 63.8481C316.768 63.8415 316.005 63.9492 315.27 64.1677C314.581 64.362 313.941 64.7027 313.395 65.1666C312.851 65.6281 312.421 66.2093 312.139 66.8647C311.807 67.6613 311.647 68.5191 311.67 69.3818C311.648 69.8768 311.724 70.3714 311.896 70.8362C312.067 71.3011 312.329 71.727 312.667 72.0888C313.403 72.8273 314.265 73.4293 315.211 73.8668C316.286 74.392 317.388 74.8621 318.512 75.2752C319.655 75.7 320.756 76.2282 321.803 76.8534C322.792 77.4342 323.656 78.2048 324.347 79.1208C325.052 80.1568 325.402 81.3944 325.344 82.6469C325.347 83.486 325.134 84.3117 324.726 85.0442C324.308 85.8173 323.738 86.497 323.05 87.0419C322.319 87.6138 321.496 88.0563 320.616 88.3505C319.671 88.6466 318.684 88.785 317.694 88.76Z" fill="rgb(42, 57, 76)"/>
<path d="M345.271 88.2606L345.172 88.1607V83.3261C344.354 84.1851 343.586 84.9543 342.888 85.6235C342.23 86.2584 341.512 86.8272 340.743 87.3216C340.017 87.7878 339.227 88.1477 338.399 88.3904C337.477 88.6452 336.524 88.7696 335.567 88.76C334.546 88.7715 333.532 88.5954 332.575 88.2406C331.747 87.9297 330.993 87.4501 330.36 86.8321C329.77 86.2449 329.308 85.5407 329.004 84.7645C328.691 83.9625 328.532 83.1085 328.535 82.2473C328.504 81.4465 328.634 80.6476 328.917 79.8978C329.199 79.1481 329.629 78.4627 330.181 77.8822C331.38 76.6824 332.795 75.72 334.35 75.0454C336.096 74.2601 337.908 73.6316 339.766 73.1675C341.701 72.6814 343.506 72.172 345.181 71.6393V71.5893C345.317 69.5428 344.648 67.5243 343.316 65.9657C342.65 65.2905 341.849 64.7636 340.966 64.4194C340.082 64.0751 339.137 63.9213 338.19 63.9679C337.039 63.9581 335.911 64.2806 334.938 64.8969C333.854 65.6457 333 66.6838 332.475 67.8935C332.345 68.1533 332.149 68.3739 331.906 68.5328C331.694 68.6649 331.448 68.7341 331.198 68.7325C330.906 68.7402 330.618 68.6713 330.36 68.5328C330.156 68.4395 329.986 68.2841 329.875 68.0886C329.764 67.8931 329.718 67.6676 329.742 67.444C329.764 67.0574 329.892 66.6842 330.111 66.3652C330.907 65.3971 331.909 64.619 333.043 64.0878C334.71 63.3559 336.521 63.0143 338.339 63.0889C339.458 63.0833 340.572 63.2483 341.641 63.5783C342.667 63.8958 343.62 64.4154 344.443 65.1066C345.294 65.8278 345.975 66.7283 346.438 67.7437C346.956 68.9509 347.208 70.2558 347.176 71.5693V84.6946C347.168 84.8464 347.194 84.9982 347.252 85.1384C347.311 85.2786 347.401 85.4035 347.515 85.5036C347.749 85.6873 348.017 85.8231 348.303 85.9032C348.576 85.9783 348.858 86.012 349.141 86.0031C349.294 86.0052 349.447 85.9781 349.59 85.9232L349.69 86.1729L345.271 88.2606ZM345.172 72.3784C343.396 72.9045 341.641 73.414 339.905 73.9067C338.293 74.3556 336.726 74.9576 335.228 75.7047C333.937 76.3415 332.787 77.2314 331.847 78.3217C330.954 79.4325 330.477 80.8214 330.5 82.2473C330.496 82.9508 330.611 83.6499 330.839 84.315C331.062 84.968 331.434 85.5598 331.926 86.0431C332.455 86.5594 333.083 86.9637 333.771 87.2317C334.581 87.5356 335.44 87.6847 336.305 87.6712C337.162 87.6749 338.013 87.526 338.818 87.2317C339.622 86.9204 340.383 86.5075 341.082 86.0031C341.823 85.4813 342.524 84.9036 343.177 84.275C343.855 83.6357 344.513 82.9665 345.172 82.2773V72.3784Z" fill="rgb(42, 57, 76)"/>
<path d="M356.352 68.7326C356.608 68.1276 356.922 67.549 357.29 67.0045C357.752 66.3071 358.317 65.684 358.965 65.1566C359.705 64.5439 360.536 64.0518 361.429 63.6983C362.463 63.2863 363.568 63.0859 364.68 63.1089C365.773 63.1032 366.86 63.2684 367.902 63.5984C368.93 63.9237 369.867 64.4885 370.635 65.2465C371.475 66.097 372.121 67.1192 372.53 68.2431C373.047 69.7077 373.29 71.2551 373.248 72.808V85.7934C373.235 86.1459 373.329 86.4941 373.517 86.7922C373.678 87.0505 373.888 87.2746 374.135 87.4515C374.377 87.6872 374.661 87.8738 374.973 88.0009V88.2406H369.707V88.0009C369.835 87.9744 369.959 87.9307 370.076 87.871C370.278 87.7752 370.46 87.6432 370.615 87.4815C370.813 87.2794 370.978 87.0467 371.103 86.7922C371.265 86.4849 371.344 86.1406 371.333 85.7934V72.808C371.363 71.5162 371.17 70.2288 370.764 69.0023C370.438 68.0441 369.919 67.1635 369.238 66.4152C368.609 65.7526 367.834 65.2464 366.974 64.9369C366.077 64.6219 365.132 64.4631 364.182 64.4674C363.196 64.4679 362.22 64.6613 361.309 65.0367C360.383 65.406 359.531 65.9407 358.796 66.615C358.049 67.2937 357.445 68.1157 357.02 69.0322C356.567 69.9935 356.339 71.0457 356.352 72.1088V85.8233C356.339 86.1759 356.433 86.5241 356.622 86.8222C356.774 87.0712 356.966 87.2939 357.19 87.4815C357.431 87.7172 357.716 87.9037 358.028 88.0308V88.2705H352.752V88.0009C352.88 87.9759 353.005 87.9322 353.121 87.871C353.323 87.7752 353.505 87.6432 353.659 87.4815C353.858 87.2794 354.023 87.0467 354.148 86.7922C354.31 86.4849 354.389 86.1406 354.377 85.7934V67.1544C354.39 66.9968 354.364 66.8386 354.304 66.6927C354.243 66.5469 354.149 66.4175 354.028 66.3153C353.803 66.1185 353.532 65.9812 353.24 65.9158C352.975 65.856 352.704 65.8225 352.433 65.8159C352.277 65.7888 352.119 65.7888 351.964 65.8159L351.864 65.6161L356.292 63.5484L356.342 63.6483L356.352 68.7326Z" fill="rgb(42, 57, 76)"/>
<path d="M384.528 88.2605L377.546 66.3652C377.399 65.9417 377.164 65.5539 376.858 65.2265C376.578 64.9466 376.281 64.6831 375.971 64.4374C375.596 64.2015 375.198 64.004 374.784 63.848V63.5983H380.01V63.848C379.91 63.848 379.741 64.0478 379.511 64.4573C379.398 64.7656 379.349 65.0936 379.366 65.4215C379.383 65.7495 379.466 66.0705 379.611 66.3652L385.525 84.7645L391.38 63.5983H392.118L399.708 84.9043L405.124 66.3652C405.284 66.0152 405.329 65.6238 405.253 65.2465C405.176 64.9589 405.04 64.6903 404.855 64.4573C404.711 64.274 404.535 64.1184 404.336 63.9979C404.235 63.9235 404.119 63.8723 403.997 63.848V63.5983H409.213V63.848C408.719 63.9965 408.241 64.1939 407.787 64.4374C407.386 64.667 407.005 64.931 406.65 65.2265C406.291 65.529 406.018 65.9221 405.862 66.3652L399.459 88.2605H398.721L391.141 67.1044L385.276 88.2605H384.528Z" fill="rgb(42, 57, 76)"/>
<path d="M427.186 88.2606L427.086 88.1607V83.3261C426.258 84.1851 425.5 84.9543 424.792 85.6235C424.137 86.2606 423.418 86.8296 422.648 87.3216C421.926 87.7896 421.14 88.1496 420.314 88.3904C419.391 88.6446 418.438 88.769 417.481 88.76C416.461 88.7704 415.447 88.5944 414.489 88.2406C413.663 87.9271 412.91 87.4478 412.275 86.8321C411.688 86.242 411.226 85.5386 410.919 84.7645C410.605 83.9625 410.446 83.1085 410.45 82.2473C410.42 81.4458 410.551 80.6465 410.836 79.8967C411.12 79.1469 411.552 78.4618 412.106 77.8822C413.299 76.6805 414.711 75.7177 416.265 75.0454C418.011 74.2601 419.823 73.6316 421.68 73.1675C423.622 72.6814 425.431 72.172 427.106 71.6393V71.5893C427.239 69.5414 426.566 67.5227 425.231 65.9657C424.566 65.2889 423.765 64.761 422.882 64.4167C421.998 64.0724 421.051 63.9194 420.105 63.9679C418.954 63.9581 417.825 64.2806 416.853 64.8969C415.772 65.6463 414.921 66.6845 414.4 67.8935C414.264 68.1491 414.069 68.3683 413.831 68.5328C413.614 68.6638 413.366 68.7328 413.113 68.7325C412.821 68.7402 412.532 68.6713 412.275 68.5328C412.072 68.4383 411.903 68.2827 411.792 68.0875C411.681 67.8923 411.634 67.6674 411.657 67.444C411.682 67.0564 411.813 66.6832 412.036 66.3652C412.826 65.3948 413.825 64.6162 414.958 64.0878C416.625 63.3559 418.436 63.0143 420.254 63.0889C421.373 63.0825 422.486 63.2475 423.555 63.5783C424.584 63.8978 425.54 64.4171 426.368 65.1066C427.222 65.8244 427.904 66.7257 428.363 67.7437C428.885 68.9495 429.137 70.2554 429.101 71.5693V84.6946C429.093 84.8472 429.121 84.9995 429.181 85.1397C429.242 85.28 429.334 85.4045 429.45 85.5036C429.683 85.6892 429.951 85.8251 430.238 85.9032C430.51 85.9794 430.793 86.0131 431.076 86.0031C431.226 86.006 431.375 85.9788 431.514 85.9232L431.614 86.1729L427.186 88.2606ZM427.086 72.3784C425.311 72.9045 423.552 73.414 421.81 73.9067C420.198 74.3573 418.632 74.9593 417.132 75.7047C415.845 76.3417 414.698 77.2317 413.761 78.3217C412.865 79.4312 412.385 80.8202 412.405 82.2473C412.399 82.9517 412.517 83.6517 412.754 84.315C412.977 84.9657 413.345 85.5567 413.831 86.0431C414.362 86.5571 414.989 86.9611 415.676 87.2317C416.489 87.5352 417.352 87.6843 418.22 87.6712C419.077 87.6749 419.928 87.526 420.733 87.2317C421.535 86.9245 422.295 86.5185 422.997 86.0231C423.734 85.4962 424.434 84.9188 425.091 84.295C425.76 83.6557 426.428 82.9865 427.086 82.2973V72.3784Z" fill="rgb(42, 57, 76)"/>
<path d="M438.267 53.8293V85.7933C438.254 86.1459 438.348 86.4941 438.536 86.7922C438.689 87.0412 438.881 87.2639 439.105 87.4514C439.346 87.6871 439.63 87.8737 439.942 88.0008V88.2405H434.616V88.0008C434.745 87.9774 434.87 87.9336 434.985 87.871C435.194 87.7715 435.386 87.64 435.554 87.4814C435.765 87.2836 435.941 87.0503 436.073 86.7922C436.231 86.4839 436.307 86.1397 436.292 85.7933V57.2854C436.302 57.132 436.277 56.9782 436.218 56.8361C436.159 56.6941 436.069 56.5675 435.953 56.4663C435.717 56.2877 435.45 56.1555 435.165 56.0768C434.9 55.9974 434.623 55.9636 434.347 55.9769C434.189 55.9806 434.031 56.0041 433.878 56.0468L433.779 55.8071L438.167 53.7294L438.267 53.8293Z" fill="rgb(42, 57, 76)"/>
<path d="M441.658 64.1877C441.998 64.1818 442.336 64.1176 442.655 63.9979C443.038 63.8556 443.408 63.6819 443.762 63.4785C444.113 63.2654 444.429 62.9992 444.7 62.6894C444.953 62.3911 445.091 62.0119 445.089 61.6206H445.338V63.948C446.415 63.878 447.502 63.8181 448.589 63.7681L452.23 63.5984C452.564 63.5719 452.9 63.5955 453.227 63.6683C453.586 63.7582 453.766 64.0379 453.766 64.5373C453.766 65.0367 453.586 65.3164 453.227 65.3963C452.901 65.4768 452.564 65.5038 452.23 65.4762L448.589 65.2964C447.532 65.2964 446.455 65.1966 445.338 65.1266V82.3972C445.262 83.8046 445.69 85.1929 446.545 86.3128C446.934 86.7874 447.427 87.1659 447.985 87.4188C448.544 87.6718 449.154 87.7923 449.766 87.7711C451.037 87.7647 452.258 87.2797 453.187 86.4126C454.255 85.4654 455.076 84.2724 455.581 82.9366L456.02 83.1363C455.782 83.846 455.478 84.5316 455.112 85.184C454.736 85.8502 454.262 86.4562 453.706 86.982C453.148 87.5088 452.508 87.9407 451.811 88.2606C451.079 88.5969 450.282 88.7674 449.477 88.76C448.655 88.7681 447.839 88.6328 447.063 88.3604C446.318 88.1228 445.637 87.7199 445.069 87.1818C444.499 86.6181 444.06 85.9361 443.782 85.184C443.453 84.2858 443.294 83.3339 443.313 82.3772V66.0955C443.313 65.5362 443.164 65.1966 442.844 65.0967C442.456 64.9639 442.048 64.903 441.638 64.9169L441.658 64.1877Z" fill="rgb(42, 57, 76)"/>
<path d="M207.653 141.011C209.191 141.033 210.719 140.773 212.162 140.242C213.463 139.776 214.66 139.056 215.682 138.124C216.659 137.237 217.441 136.155 217.976 134.948C218.53 133.69 218.809 132.327 218.794 130.952C218.828 130.087 218.639 129.227 218.246 128.455C217.862 127.793 217.289 127.26 216.6 126.927C215.73 126.513 214.795 126.253 213.837 126.158C212.555 126.02 211.266 125.957 209.977 125.968V125.718H220.27V141.451H220.021L218.295 136.816H218.246C217.072 138.328 215.607 139.588 213.937 140.522C212 141.532 209.836 142.024 207.653 141.95C205.428 141.99 203.222 141.525 201.2 140.592C199.376 139.717 197.771 138.444 196.503 136.866C195.19 135.194 194.212 133.285 193.62 131.242C192.942 128.954 192.606 126.577 192.623 124.19C192.597 121.755 192.999 119.334 193.81 117.038C194.535 114.973 195.645 113.065 197.081 111.414C198.461 109.846 200.162 108.592 202.068 107.739C204.056 106.858 206.208 106.412 208.382 106.43C209.495 106.412 210.605 106.563 211.673 106.88C212.542 107.135 213.379 107.491 214.166 107.938C214.816 108.311 215.434 108.739 216.011 109.217C216.467 109.612 216.943 109.982 217.438 110.326C217.677 110.521 217.968 110.643 218.275 110.675C218.376 110.682 218.477 110.662 218.567 110.618C218.658 110.575 218.736 110.508 218.794 110.426C218.897 110.302 218.957 110.147 218.964 109.986H219.213V116.539H218.964C218.68 115.285 218.192 114.087 217.517 112.993C216.853 111.918 216.01 110.965 215.024 110.176C214.03 109.386 212.915 108.761 211.723 108.328C210.491 107.885 209.191 107.662 207.883 107.669C205.962 107.64 204.065 108.097 202.367 108.997C200.73 109.881 199.301 111.107 198.178 112.593C196.995 114.176 196.097 115.954 195.525 117.847C194.89 119.901 194.574 122.04 194.588 124.19C194.566 126.358 194.903 128.515 195.585 130.573C196.224 132.499 197.174 134.308 198.398 135.927C199.519 137.423 200.935 138.674 202.557 139.603C204.1 140.519 205.86 141.005 207.653 141.011Z" fill="rgb(42, 57, 76)"/>
<path d="M226.474 121.963H226.524C226.78 121.358 227.094 120.779 227.461 120.235C227.917 119.532 228.483 118.909 229.137 118.387C229.877 117.78 230.704 117.288 231.59 116.928C232.626 116.523 233.73 116.323 234.842 116.339C236.539 116.296 238.206 116.796 239.599 117.767C241.088 119.004 242.033 120.775 242.232 122.702L242.532 121.963C242.804 121.354 243.139 120.775 243.529 120.235C244.005 119.539 244.579 118.916 245.235 118.387C245.974 117.78 246.802 117.288 247.688 116.928C248.724 116.523 249.828 116.323 250.939 116.339C251.987 116.326 253.029 116.492 254.021 116.828C254.963 117.16 255.801 117.731 256.455 118.486C257.205 119.354 257.753 120.378 258.061 121.483C258.473 122.969 258.665 124.507 258.629 126.048V139.033C258.616 139.386 258.71 139.734 258.899 140.032C259.059 140.291 259.27 140.515 259.517 140.691C259.755 140.931 260.041 141.118 260.355 141.241V141.481H255.009V141.241C255.139 141.222 255.265 141.178 255.378 141.111C255.581 141.013 255.767 140.881 255.926 140.721C256.122 140.517 256.287 140.285 256.415 140.032C256.574 139.724 256.649 139.38 256.635 139.033V126.048C256.635 123.078 256.086 120.947 254.989 119.655C254.418 119.002 253.707 118.488 252.909 118.151C252.11 117.813 251.246 117.662 250.381 117.707C249.392 117.708 248.413 117.901 247.499 118.277C246.572 118.646 245.721 119.181 244.985 119.855C244.241 120.534 243.641 121.356 243.22 122.272C242.767 123.237 242.538 124.293 242.552 125.359V139.063C242.539 139.416 242.633 139.764 242.821 140.062C242.982 140.32 243.192 140.545 243.439 140.721C243.678 140.961 243.963 141.148 244.277 141.271V141.511H238.951V141.271C239.081 141.252 239.207 141.208 239.32 141.141C239.525 141.045 239.711 140.913 239.869 140.751C240.064 140.547 240.229 140.315 240.357 140.062C240.516 139.754 240.591 139.41 240.577 139.063V126.078C240.577 123.108 240.028 120.977 238.931 119.685C238.361 119.031 237.65 118.516 236.852 118.179C236.053 117.841 235.189 117.69 234.323 117.737C233.335 117.738 232.356 117.931 231.441 118.307C230.514 118.676 229.663 119.211 228.927 119.885C228.183 120.564 227.583 121.386 227.162 122.302C226.709 123.267 226.481 124.323 226.494 125.389V139.093C226.481 139.446 226.575 139.794 226.763 140.092C226.916 140.341 227.108 140.564 227.332 140.751C227.57 140.99 227.855 141.178 228.169 141.301V141.54H222.893V141.301C223.024 141.282 223.149 141.238 223.262 141.171C223.469 141.078 223.655 140.946 223.811 140.781C224.007 140.577 224.171 140.345 224.3 140.092C224.458 139.784 224.534 139.44 224.519 139.093V120.394C224.529 120.241 224.504 120.087 224.445 119.945C224.386 119.803 224.296 119.676 224.18 119.575C223.946 119.395 223.678 119.262 223.392 119.186C223.128 119.101 222.851 119.068 222.574 119.086C222.415 119.085 222.257 119.109 222.105 119.156L222.006 118.916L226.444 116.838V116.938L226.474 121.963Z" fill="rgb(42, 57, 76)"/>
<path d="M266.17 109.387V121.963C266.426 121.358 266.74 120.779 267.107 120.235C267.569 119.537 268.134 118.914 268.783 118.387C269.525 117.778 270.356 117.286 271.246 116.928C272.281 116.521 273.386 116.321 274.498 116.339C275.83 116.338 277.147 116.63 278.354 117.197C279.56 117.763 280.628 118.589 281.479 119.615C282.474 120.833 283.241 122.22 283.743 123.711C284.346 125.547 284.636 127.472 284.601 129.404C284.635 131.237 284.369 133.062 283.813 134.808C283.362 136.266 282.634 137.623 281.669 138.804C280.805 139.849 279.708 140.677 278.467 141.221C277.211 141.776 275.851 142.056 274.478 142.04C273.366 142.058 272.261 141.858 271.226 141.451C270.338 141.089 269.507 140.598 268.763 139.992C268.119 139.46 267.554 138.838 267.087 138.144C266.722 137.599 266.408 137.02 266.15 136.416L264.474 141.54H264.185V109.387C264.194 109.041 264.119 108.698 263.965 108.388C263.83 108.132 263.655 107.899 263.447 107.699C263.276 107.541 263.085 107.406 262.878 107.299C262.763 107.239 262.638 107.199 262.509 107.179V106.979H267.825V107.229C267.512 107.349 267.226 107.533 266.987 107.769C266.766 107.962 266.575 108.188 266.419 108.438C266.247 108.724 266.16 109.053 266.17 109.387ZM266.17 132.97C266.157 134.036 266.385 135.092 266.838 136.057C267.265 136.972 267.868 137.793 268.613 138.474C269.351 139.145 270.202 139.679 271.127 140.052C272.038 140.424 273.014 140.614 273.999 140.612C275.198 140.625 276.382 140.347 277.45 139.802C278.518 139.247 279.451 138.462 280.183 137.505C281 136.451 281.618 135.256 282.008 133.979C282.467 132.502 282.693 130.961 282.676 129.414C282.688 127.844 282.462 126.282 282.008 124.779C281.612 123.453 280.995 122.204 280.183 121.084C279.459 120.074 278.527 119.233 277.45 118.616C276.397 118.023 275.207 117.717 273.999 117.727C273.014 117.728 272.038 117.921 271.127 118.297C270.2 118.666 269.349 119.201 268.613 119.875C267.866 120.554 267.262 121.376 266.838 122.292C266.385 123.257 266.157 124.313 266.17 125.379V132.97Z" fill="rgb(42, 57, 76)"/>
<path d="M289.029 110.875C289.041 110.31 288.914 109.751 288.66 109.247C288.437 108.821 288.144 108.436 287.793 108.108C287.518 107.849 287.214 107.624 286.885 107.439C286.723 107.341 286.549 107.268 286.366 107.219V106.979H293.657V107.229C293.172 107.456 292.725 107.756 292.331 108.118C291.972 108.452 291.663 108.835 291.413 109.257C291.125 109.75 290.98 110.314 290.994 110.885V122.372H311.78V110.875C311.796 110.31 311.669 109.75 311.411 109.247C311.194 108.82 310.903 108.434 310.553 108.108C310.275 107.849 309.967 107.624 309.635 107.439C309.476 107.344 309.305 107.271 309.127 107.219V106.979H316.417V107.229C315.929 107.456 315.479 107.755 315.081 108.118C314.726 108.452 314.42 108.836 314.173 109.257C313.885 109.75 313.74 110.314 313.754 110.885V137.615C313.74 138.18 313.885 138.737 314.173 139.223C314.433 139.641 314.737 140.03 315.081 140.382C315.479 140.745 315.929 141.044 316.417 141.271V141.511H309.127V141.271C309.306 141.219 309.477 141.141 309.635 141.041C309.967 140.86 310.275 140.639 310.553 140.382C310.903 140.056 311.194 139.67 311.411 139.243C311.669 138.74 311.796 138.18 311.78 137.615V123.101H290.994V137.605C290.98 138.17 291.125 138.727 291.413 139.213C291.676 139.632 291.984 140.02 292.331 140.372C292.725 140.734 293.172 141.034 293.657 141.261V141.501H286.366V141.261C286.55 141.211 286.725 141.134 286.885 141.031C287.214 140.85 287.518 140.628 287.793 140.372C288.144 140.044 288.437 139.659 288.66 139.233C288.914 138.729 289.041 138.17 289.029 137.605V110.875Z" fill="rgb(42, 57, 76)"/>
<path d="M0 43.4311H47.116L94.232 19.8376H141.348V43.4311H94.232L47.116 67.0245H0V43.4311Z" fill="rgb(81, 115, 167)"/>
<path d="M94.232 53.9193H141.348V77.5127H94.232L47.116 114.211V90.6179L94.232 53.9193Z" fill="rgb(81, 115, 167)"/>
</g>
<defs>
<clipPath id="clip0_155_1502">
<rect width="456" height="142" fill="rgb(42, 57, 76)"/>
</clipPath>
</defs>
</svg>
