<svg width="280" height="26" viewBox="0 0 280 26" fill="none" xmlns="http://www.w3.org/2000/svg">
<path d="M8.932 14.14C6.03867 14.14 3.82667 13.412 2.296 11.956C0.765333 10.5 0 8.39067 0 5.628V0.392H3.696V5.348C3.696 7.15867 4.2 8.54 5.208 9.492C6.216 10.4253 7.7 10.892 9.66 10.892C10.78 10.892 11.956 10.7613 13.188 10.5C14.42 10.22 15.6427 9.83733 16.856 9.352L17.108 12.348C15.876 12.9267 14.5507 13.3747 13.132 13.692C11.732 13.9907 10.332 14.14 8.932 14.14ZM16.296 21.392V0.392H19.992V21.392H16.296Z" fill="black"/>
<path d="M29.4223 6.804H33.0623V21.392H29.4223V6.804ZM22.8423 5.544H39.6423V8.4H22.8423V5.544Z" fill="black"/>
<path d="M50.1581 21.784C48.2354 21.784 46.5461 21.4387 45.0901 20.748C43.6527 20.0387 42.5234 19.0587 41.7021 17.808C40.8994 16.5573 40.4981 15.1107 40.4981 13.468C40.4981 11.8067 40.8994 10.36 41.7021 9.128C42.5234 7.87734 43.6527 6.90667 45.0901 6.216C46.5461 5.50667 48.2354 5.152 50.1581 5.152C52.0807 5.152 53.7607 5.50667 55.1981 6.216C56.6541 6.90667 57.7834 7.87734 58.5861 9.128C59.4074 10.36 59.8181 11.8067 59.8181 13.468C59.8181 15.1107 59.4074 16.5573 58.5861 17.808C57.7834 19.0587 56.6541 20.0387 55.1981 20.748C53.7607 21.4387 52.0807 21.784 50.1581 21.784ZM50.1581 18.928C51.3901 18.928 52.4447 18.704 53.3221 18.256C54.2181 17.808 54.9087 17.1827 55.3941 16.38C55.8794 15.5587 56.1221 14.588 56.1221 13.468C56.1221 12.348 55.8794 11.3867 55.3941 10.584C54.9087 9.76267 54.2181 9.128 53.3221 8.68C52.4447 8.232 51.3901 8.008 50.1581 8.008C48.9447 8.008 47.8901 8.232 46.9941 8.68C46.0981 9.128 45.4074 9.76267 44.9221 10.584C44.4367 11.3867 44.1941 12.348 44.1941 13.468C44.1941 14.588 44.4367 15.5587 44.9221 16.38C45.4074 17.1827 46.0981 17.808 46.9941 18.256C47.8901 18.704 48.9447 18.928 50.1581 18.928Z" fill="black"/>
<path d="M70.467 21.392V5.544H75.871L82.535 19.656H81.107L87.715 5.544H93.119V21.392H89.703V6.748H90.655L83.571 21.392H80.015L72.931 6.804L73.883 6.776V21.392H70.467Z" fill="url(#paint0_linear_4002_7223)"/>
<path d="M114.938 5.544H118.578V21.392H114.938V5.544ZM97.1305 21.392V5.544H100.77V20.384L99.4825 18.704H106.258C107.248 18.704 108.022 18.4613 108.582 17.976C109.142 17.472 109.422 16.7907 109.422 15.932C109.422 15.0547 109.142 14.3733 108.582 13.888C108.022 13.384 107.248 13.132 106.258 13.132H99.5945V10.528H106.734C108.022 10.528 109.142 10.7613 110.094 11.228C111.046 11.676 111.784 12.3107 112.306 13.132C112.848 13.9347 113.118 14.8773 113.118 15.96C113.118 17.0427 112.848 17.9947 112.306 18.816C111.784 19.6373 111.046 20.272 110.094 20.72C109.142 21.168 108.032 21.392 106.762 21.392H97.1305Z" fill="url(#paint1_linear_4002_7223)"/>
<path d="M150.145 18.592V25.396H146.981V21.392H131.133V25.396H127.969V18.592H132.057L133.065 18.648H144.629L145.525 18.592H150.145ZM131.497 5.544H147.205V20.328H143.565V6.664L145.245 8.344H133.401L134.969 7.112C135.063 7.93333 135.119 8.72667 135.137 9.492C135.175 10.2387 135.193 10.9387 135.193 11.592C135.193 14.3173 134.82 16.4547 134.073 18.004C133.345 19.5533 132.319 20.328 130.993 20.328L129.509 19.068C131.04 17.948 131.805 15.2227 131.805 10.892C131.805 10.052 131.777 9.184 131.721 8.288C131.665 7.37333 131.591 6.45867 131.497 5.544Z" fill="black"/>
<path d="M161.136 21.784C159.288 21.784 157.645 21.4387 156.208 20.748C154.771 20.0387 153.641 19.0587 152.82 17.808C151.999 16.5573 151.588 15.1013 151.588 13.44C151.588 11.7973 151.971 10.36 152.736 9.128C153.52 7.87734 154.593 6.90667 155.956 6.216C157.337 5.50667 158.915 5.152 160.688 5.152C162.461 5.152 163.992 5.55333 165.28 6.356C166.587 7.14 167.595 8.25067 168.304 9.688C169.013 11.1253 169.368 12.8147 169.368 14.756H154.444V11.984H167.548L165.728 13.02C165.672 11.9747 165.42 11.0787 164.972 10.332C164.543 9.58533 163.955 9.016 163.208 8.624C162.48 8.21333 161.612 8.008 160.604 8.008C159.54 8.008 158.607 8.22267 157.804 8.652C157.02 9.08133 156.404 9.688 155.956 10.472C155.508 11.2373 155.284 12.152 155.284 13.216C155.284 14.392 155.545 15.4093 156.068 16.268C156.609 17.1267 157.365 17.7893 158.336 18.256C159.325 18.704 160.492 18.928 161.836 18.928C163.049 18.928 164.291 18.7413 165.56 18.368C166.829 17.976 167.949 17.4347 168.92 16.744V19.376C167.949 20.1227 166.764 20.7107 165.364 21.14C163.983 21.5693 162.573 21.784 161.136 21.784Z" fill="black"/>
<path d="M175.002 5.544H190.598V21.392H186.958V6.664L188.638 8.344H176.822L178.39 7.056C178.483 8.21333 178.558 9.31467 178.614 10.36C178.688 11.3867 178.726 12.3107 178.726 13.132C178.726 16.1187 178.306 18.2933 177.466 19.656C176.626 21.0187 175.272 21.7 173.406 21.7C172.902 21.7 172.416 21.644 171.95 21.532C171.483 21.42 171.035 21.2427 170.606 21V18.284C170.942 18.4147 171.268 18.5173 171.586 18.592C171.922 18.6667 172.23 18.704 172.51 18.704C173.536 18.704 174.274 18.228 174.722 17.276C175.188 16.324 175.422 14.7747 175.422 12.628C175.422 11.6947 175.384 10.6307 175.31 9.436C175.254 8.24133 175.151 6.944 175.002 5.544Z" fill="black"/>
<path d="M209.384 21.392L208.768 15.512L209.496 13.468L208.768 11.452L209.384 5.544H213.136L212.296 13.468L213.136 21.392H209.384ZM210.504 13.468C210.149 15.1293 209.561 16.5853 208.74 17.836C207.919 19.0867 206.901 20.0573 205.688 20.748C204.493 21.4387 203.159 21.784 201.684 21.784C200.135 21.784 198.763 21.4387 197.568 20.748C196.373 20.0387 195.44 19.0587 194.768 17.808C194.096 16.5573 193.76 15.1107 193.76 13.468C193.76 11.8067 194.096 10.36 194.768 9.128C195.44 7.87734 196.373 6.90667 197.568 6.216C198.763 5.50667 200.135 5.152 201.684 5.152C203.159 5.152 204.493 5.49733 205.688 6.188C206.901 6.87867 207.919 7.84933 208.74 9.1C209.58 10.332 210.168 11.788 210.504 13.468ZM197.456 13.468C197.456 14.532 197.671 15.4747 198.1 16.296C198.548 17.0987 199.155 17.7333 199.92 18.2C200.685 18.648 201.563 18.872 202.552 18.872C203.56 18.872 204.493 18.648 205.352 18.2C206.211 17.7333 206.967 17.0987 207.62 16.296C208.292 15.4747 208.824 14.532 209.216 13.468C208.824 12.404 208.292 11.4707 207.62 10.668C206.967 9.84667 206.211 9.212 205.352 8.764C204.493 8.29733 203.56 8.064 202.552 8.064C201.563 8.064 200.685 8.29733 199.92 8.764C199.155 9.212 198.548 9.84667 198.1 10.668C197.671 11.4707 197.456 12.404 197.456 13.468Z" fill="black"/>
<path d="M225.431 21.784C223.583 21.784 221.94 21.4387 220.503 20.748C219.066 20.0387 217.936 19.0587 217.115 17.808C216.294 16.5573 215.883 15.1013 215.883 13.44C215.883 11.7973 216.266 10.36 217.031 9.128C217.815 7.87734 218.888 6.90667 220.251 6.216C221.632 5.50667 223.21 5.152 224.983 5.152C226.756 5.152 228.287 5.55333 229.575 6.356C230.882 7.14 231.89 8.25067 232.599 9.688C233.308 11.1253 233.663 12.8147 233.663 14.756H218.739V11.984H231.843L230.023 13.02C229.967 11.9747 229.715 11.0787 229.267 10.332C228.838 9.58533 228.25 9.016 227.503 8.624C226.775 8.21333 225.907 8.008 224.899 8.008C223.835 8.008 222.902 8.22267 222.099 8.652C221.315 9.08133 220.699 9.688 220.251 10.472C219.803 11.2373 219.579 12.152 219.579 13.216C219.579 14.392 219.84 15.4093 220.363 16.268C220.904 17.1267 221.66 17.7893 222.631 18.256C223.62 18.704 224.787 18.928 226.131 18.928C227.344 18.928 228.586 18.7413 229.855 18.368C231.124 17.976 232.244 17.4347 233.215 16.744V19.376C232.244 20.1227 231.059 20.7107 229.659 21.14C228.278 21.5693 226.868 21.784 225.431 21.784Z" fill="black"/>
<path d="M236.798 21.392V5.544H242.202L248.866 19.656H247.438L254.046 5.544H259.45V21.392H256.034V6.748H256.986L249.902 21.392H246.346L239.262 6.804L240.214 6.776V21.392H236.798Z" fill="black"/>
<path d="M268.641 14.056C268.641 13.1787 268.875 12.4413 269.341 11.844C269.808 11.228 270.536 10.6587 271.525 10.136L273.653 8.988C274.232 8.67067 274.699 8.29733 275.053 7.868C275.408 7.42 275.585 6.93467 275.585 6.412C275.585 5.36667 275.156 4.536 274.297 3.92C273.457 3.304 272.291 2.996 270.797 2.996C269.323 2.996 268.119 3.34133 267.185 4.032C266.252 4.704 265.711 5.63733 265.561 6.832H262.033C262.201 4.68533 263.051 3.01467 264.581 1.82C266.131 0.606667 268.203 0 270.797 0C273.411 0 275.445 0.550667 276.901 1.652C278.376 2.75333 279.113 4.27467 279.113 6.216C279.113 7.14933 278.833 8.02667 278.273 8.848C277.713 9.66933 276.901 10.36 275.837 10.92L273.569 12.124C273.028 12.4227 272.608 12.74 272.309 13.076C272.029 13.3933 271.889 13.804 271.889 14.308V15.204H268.781C268.725 14.9987 268.688 14.8027 268.669 14.616C268.651 14.4293 268.641 14.2427 268.641 14.056ZM270.265 21.616C269.612 21.616 269.071 21.42 268.641 21.028C268.212 20.6173 267.997 20.0947 267.997 19.46C267.997 18.8253 268.212 18.312 268.641 17.92C269.071 17.5093 269.612 17.304 270.265 17.304C270.937 17.304 271.479 17.5093 271.889 17.92C272.319 18.312 272.533 18.8253 272.533 19.46C272.533 20.0947 272.319 20.6173 271.889 21.028C271.479 21.42 270.937 21.616 270.265 21.616Z" fill="black"/>
<defs>
<linearGradient id="paint0_linear_4002_7223" x1="-2.70483" y1="10.392" x2="281.295" y2="10.392" gradientUnits="userSpaceOnUse">
<stop offset="0.3125" stop-color="#6187EC"/>
<stop offset="0.418269" stop-color="#FF4043"/>
<stop offset="0.538462" stop-color="#FF00C8"/>
</linearGradient>
<linearGradient id="paint1_linear_4002_7223" x1="-2.70483" y1="10.392" x2="281.295" y2="10.392" gradientUnits="userSpaceOnUse">
<stop offset="0.3125" stop-color="#6187EC"/>
<stop offset="0.418269" stop-color="#FF4043"/>
<stop offset="0.538462" stop-color="#FF00C8"/>
</linearGradient>
</defs>
</svg>
