<svg width="290" height="30" viewBox="0 0 290 30" fill="none" xmlns="http://www.w3.org/2000/svg">
<path d="M9.64538 29.4503L14.4681 21.2042H14.5465L26.8581 0H32.5041L15.2915 29.4503H9.64538ZM14.5857 24.8953L0 0H5.72449L18.0361 21.0079L14.5857 24.8953Z" fill="#0A0A0A"/>
<path d="M32.2851 29.4503L33.4222 18.3377L32.2851 7.22513H48.3607C50.5042 7.22513 52.1771 7.72251 53.3795 8.71728C54.608 9.71204 55.2223 11.0864 55.2223 12.8403C55.2223 14.4634 54.608 15.7723 53.3795 16.767C52.1771 17.7356 50.4911 18.3115 48.3215 18.4948L48.7136 17.5524C51.2753 17.6047 53.2357 18.1283 54.595 19.123C55.9542 20.1178 56.6338 21.5183 56.6338 23.3246C56.6338 25.2356 55.9411 26.7408 54.5557 27.8403C53.1965 28.9136 51.3014 29.4503 48.8705 29.4503H32.2851ZM37.2254 28.1937L35.265 25.9162H47.5766C48.962 25.9162 49.9552 25.6545 50.5564 25.1309C51.1838 24.5812 51.4975 23.822 51.4975 22.8534C51.4975 21.9895 51.1446 21.2696 50.4388 20.6937C49.7592 20.1178 48.6091 19.8298 46.9884 19.8298H36.3628V16.5314H46.2435C47.5766 16.5314 48.5437 16.2696 49.1449 15.7461C49.7723 15.1963 50.0859 14.4895 50.0859 13.6257C50.0859 12.788 49.8115 12.1073 49.2626 11.5838C48.7398 11.034 47.851 10.7592 46.5964 10.7592H35.3042L37.2254 8.52094L38.3233 18.3377L37.2254 28.1937Z" fill="#0A0A0A"/>
<path d="M81.6448 29.4503L80.7822 21.2042L81.8016 18.3377L80.7822 15.5105L81.6448 7.22513H86.8988L85.7225 18.3377L86.8988 29.4503H81.6448ZM83.2131 18.3377C82.7165 20.6675 81.8931 22.7094 80.743 24.4634C79.5928 26.2173 78.1683 27.5785 76.4692 28.5471C74.7963 29.5157 72.9273 30 70.8623 30C68.6928 30 66.7715 29.5157 65.0986 28.5471C63.4257 27.5524 62.1188 26.178 61.1778 24.4241C60.2367 22.6702 59.7662 20.6414 59.7662 18.3377C59.7662 16.0079 60.2367 13.9791 61.1778 12.2513C62.1188 10.4974 63.4257 9.13613 65.0986 8.16754C66.7715 7.17277 68.6928 6.67539 70.8623 6.67539C72.9273 6.67539 74.7963 7.15969 76.4692 8.12827C78.1683 9.09686 79.5928 10.4581 80.743 12.212C81.9192 13.9398 82.7426 15.9817 83.2131 18.3377ZM64.9418 18.3377C64.9418 19.8298 65.2424 21.1518 65.8436 22.3037C66.4709 23.4293 67.3205 24.3194 68.3922 24.9738C69.4639 25.6021 70.6924 25.9162 72.0778 25.9162C73.4893 25.9162 74.7963 25.6021 75.9987 24.9738C77.2011 24.3194 78.2597 23.4293 79.1746 22.3037C80.1156 21.1518 80.8606 19.8298 81.4095 18.3377C80.8606 16.8456 80.1156 15.5367 79.1746 14.411C78.2597 13.2592 77.2011 12.3691 75.9987 11.7408C74.7963 11.0864 73.4893 10.7592 72.0778 10.7592C70.6924 10.7592 69.4639 11.0864 68.3922 11.7408C67.3205 12.3691 66.4709 13.2592 65.8436 14.411C65.2424 15.5367 64.9418 16.8456 64.9418 18.3377Z" fill="#0A0A0A"/>
<path d="M89.2556 29.4503L98.5481 15.2356L102.116 18.4555L95.2153 29.4503H89.2556ZM126.504 29.4503L119.642 18.4555L123.171 15.2356L132.464 29.4503H126.504ZM113.369 25.0524L111.879 24.5026L125.955 7.22513H131.758L112.899 29.4503H108.821L89.9613 7.22513H95.7643L109.84 24.5026L108.35 25.0524V7.22513H113.369V25.0524Z" fill="#0A0A0A"/>
<path d="M154.979 29.4503L154.117 21.2042L155.136 18.3377L154.117 15.5105L154.979 7.22513H160.233L159.057 18.3377L160.233 29.4503H154.979ZM156.547 18.3377C156.051 20.6675 155.227 22.7094 154.077 24.4634C152.927 26.2173 151.503 27.5785 149.804 28.5471C148.131 29.5157 146.262 30 144.197 30C142.027 30 140.106 29.5157 138.433 28.5471C136.76 27.5524 135.453 26.178 134.512 24.4241C133.571 22.6702 133.101 20.6414 133.101 18.3377C133.101 16.0079 133.571 13.9791 134.512 12.2513C135.453 10.4974 136.76 9.13613 138.433 8.16754C140.106 7.17277 142.027 6.67539 144.197 6.67539C146.262 6.67539 148.131 7.15969 149.804 8.12827C151.503 9.09686 152.927 10.4581 154.077 12.212C155.254 13.9398 156.077 15.9817 156.547 18.3377ZM138.276 18.3377C138.276 19.8298 138.577 21.1518 139.178 22.3037C139.805 23.4293 140.655 24.3194 141.727 24.9738C142.798 25.6021 144.027 25.9162 145.412 25.9162C146.824 25.9162 148.131 25.6021 149.333 24.9738C150.535 24.3194 151.594 23.4293 152.509 22.3037C153.45 21.1518 154.195 19.8298 154.744 18.3377C154.195 16.8456 153.45 15.5367 152.509 14.411C151.594 13.2592 150.535 12.3691 149.333 11.7408C148.131 11.0864 146.824 10.7592 145.412 10.7592C144.027 10.7592 142.798 11.0864 141.727 11.7408C140.655 12.3691 139.805 13.2592 139.178 14.411C138.577 15.5367 138.276 16.8456 138.276 18.3377Z" fill="#0A0A0A"/>
<path d="M177.45 30C174.862 30 172.562 29.5157 170.549 28.5471C168.537 27.5524 166.955 26.178 165.805 24.4241C164.655 22.6702 164.08 20.6283 164.08 18.2984C164.08 15.9948 164.616 13.9791 165.687 12.2513C166.785 10.4974 168.288 9.13613 170.196 8.16754C172.131 7.17277 174.34 6.67539 176.823 6.67539C179.306 6.67539 181.449 7.23822 183.253 8.36388C185.083 9.46335 186.494 11.0209 187.488 13.0367C188.481 15.0524 188.977 17.4215 188.977 20.144H168.079V16.2565H186.429L183.88 17.7094C183.802 16.2435 183.449 14.9869 182.822 13.9398C182.22 12.8927 181.397 12.0942 180.352 11.5445C179.332 10.9686 178.117 10.6806 176.705 10.6806C175.215 10.6806 173.908 10.9817 172.784 11.5838C171.686 12.1859 170.824 13.0367 170.196 14.1361C169.569 15.2094 169.255 16.4921 169.255 17.9843C169.255 19.6335 169.621 21.0602 170.353 22.2644C171.111 23.4686 172.17 24.3979 173.529 25.0524C174.915 25.6806 176.548 25.9948 178.43 25.9948C180.129 25.9948 181.868 25.733 183.645 25.2094C185.423 24.6597 186.991 23.9005 188.35 22.9319V26.623C186.991 27.6702 185.331 28.4948 183.371 29.0969C181.436 29.699 179.463 30 177.45 30Z" fill="#0A0A0A"/>
<path d="M193.367 29.4503V7.22513H200.935L210.266 27.0157H208.267L217.52 7.22513H225.087V29.4503H220.304V8.91361H221.637L211.717 29.4503H206.738L196.818 8.99215L198.151 8.95288V29.4503H193.367Z" fill="#0A0A0A"/>
<path d="M255.641 7.22513H260.739V29.4503H255.641V7.22513ZM230.705 29.4503V7.22513H235.802V28.0366L233.998 25.6806H243.487C244.872 25.6806 245.957 25.3403 246.741 24.6597C247.525 23.9529 247.917 22.9974 247.917 21.7932C247.917 20.5628 247.525 19.6073 246.741 18.9267C245.957 18.2199 244.872 17.8665 243.487 17.8665H234.155V14.2147H244.153C245.957 14.2147 247.525 14.5419 248.858 15.1963C250.191 15.8246 251.224 16.7147 251.956 17.8665C252.714 18.9921 253.093 20.3141 253.093 21.8325C253.093 23.3508 252.714 24.6859 251.956 25.8377C251.224 26.9895 250.191 27.8796 248.858 28.5079C247.525 29.1361 245.97 29.4503 244.192 29.4503H230.705Z" fill="#0A0A0A"/>
<path d="M278.473 30C275.885 30 273.585 29.5157 271.572 28.5471C269.559 27.5524 267.978 26.178 266.828 24.4241C265.677 22.6702 265.102 20.6283 265.102 18.2984C265.102 15.9948 265.638 13.9791 266.71 12.2513C267.808 10.4974 269.311 9.13613 271.219 8.16754C273.153 7.17277 275.362 6.67539 277.845 6.67539C280.328 6.67539 282.472 7.23822 284.275 8.36388C286.105 9.46335 287.517 11.0209 288.51 13.0367C289.503 15.0524 290 17.4215 290 20.144H269.102V16.2565H287.451L284.903 17.7094C284.824 16.2435 284.472 14.9869 283.844 13.9398C283.243 12.8927 282.42 12.0942 281.374 11.5445C280.355 10.9686 279.139 10.6806 277.728 10.6806C276.238 10.6806 274.931 10.9817 273.807 11.5838C272.709 12.1859 271.846 13.0367 271.219 14.1361C270.592 15.2094 270.278 16.4921 270.278 17.9843C270.278 19.6335 270.644 21.0602 271.376 22.2644C272.134 23.4686 273.192 24.3979 274.552 25.0524C275.937 25.6806 277.571 25.9948 279.453 25.9948C281.152 25.9948 282.89 25.733 284.668 25.2094C286.445 24.6597 288.013 23.9005 289.373 22.9319V26.623C288.013 27.6702 286.354 28.4948 284.393 29.0969C282.459 29.699 280.485 30 278.473 30Z" fill="#0A0A0A"/>
</svg>
