<svg width="237" height="25" viewBox="0 0 237 25" fill="none" xmlns="http://www.w3.org/2000/svg">
<path d="M7.872 24L11.808 17.28H11.872L21.92 0H26.528L12.48 24H7.872ZM11.904 20.288L0 0H4.672L14.72 17.12L11.904 20.288Z" fill="#0A0A0A"/>
<path d="M26.3493 24L27.2773 14.944L26.3493 5.888H39.4692C41.2186 5.888 42.5839 6.29333 43.5653 7.104C44.5679 7.91467 45.0693 9.03467 45.0693 10.464C45.0693 11.7867 44.5679 12.8533 43.5653 13.664C42.5839 14.4533 41.2079 14.9227 39.4373 15.072L39.7573 14.304C41.8479 14.3467 43.4479 14.7733 44.5573 15.584C45.6666 16.3947 46.2213 17.536 46.2213 19.008C46.2213 20.5653 45.6559 21.792 44.5252 22.688C43.4159 23.5627 41.8692 24 39.8853 24H26.3493ZM30.3813 22.976L28.7812 21.12H38.8293C39.9599 21.12 40.7706 20.9067 41.2612 20.48C41.7732 20.032 42.0293 19.4133 42.0293 18.624C42.0293 17.92 41.7413 17.3333 41.1653 16.864C40.6106 16.3947 39.6719 16.16 38.3493 16.16H29.6772V13.472H37.7412C38.8292 13.472 39.6186 13.2587 40.1092 12.832C40.6212 12.384 40.8773 11.808 40.8773 11.104C40.8773 10.4213 40.6533 9.86667 40.2052 9.44C39.7786 8.992 39.0533 8.768 38.0293 8.768H28.8132L30.3813 6.944L31.2773 14.944L30.3813 22.976Z" fill="#0A0A0A"/>
<path d="M66.6338 24L65.9297 17.28L66.7617 14.944L65.9297 12.64L66.6338 5.888H70.9218L69.9618 14.944L70.9218 24H66.6338ZM67.9137 14.944C67.5084 16.8427 66.8364 18.5067 65.8978 19.936C64.9591 21.3653 63.7964 22.4747 62.4098 23.264C61.0444 24.0533 59.5191 24.448 57.8338 24.448C56.0631 24.448 54.4951 24.0533 53.1297 23.264C51.7644 22.4533 50.6977 21.3333 49.9297 19.904C49.1617 18.4747 48.7777 16.8213 48.7777 14.944C48.7777 13.0453 49.1617 11.392 49.9297 9.984C50.6977 8.55467 51.7644 7.44533 53.1297 6.656C54.4951 5.84533 56.0631 5.44 57.8338 5.44C59.5191 5.44 61.0444 5.83467 62.4098 6.624C63.7964 7.41333 64.9591 8.52267 65.8978 9.952C66.8578 11.36 67.5297 13.024 67.9137 14.944ZM53.0018 14.944C53.0018 16.16 53.2471 17.2373 53.7378 18.176C54.2498 19.0933 54.9431 19.8187 55.8177 20.352C56.6924 20.864 57.6951 21.12 58.8257 21.12C59.9777 21.12 61.0444 20.864 62.0257 20.352C63.0071 19.8187 63.8711 19.0933 64.6178 18.176C65.3858 17.2373 65.9938 16.16 66.4417 14.944C65.9938 13.728 65.3858 12.6613 64.6178 11.744C63.8711 10.8053 63.0071 10.08 62.0257 9.568C61.0444 9.03467 59.9777 8.768 58.8257 8.768C57.6951 8.768 56.6924 9.03467 55.8177 9.568C54.9431 10.08 54.2498 10.8053 53.7378 11.744C53.2471 12.6613 53.0018 13.728 53.0018 14.944Z" fill="#0A0A0A"/>
<path d="M72.8453 24L80.4293 12.416L83.3413 15.04L77.7093 24H72.8453ZM103.245 24L97.6453 15.04L100.525 12.416L108.109 24H103.245ZM92.5253 20.416L91.3093 19.968L102.797 5.888H107.533L92.1413 24H88.8133L73.4213 5.888H78.1573L89.6453 19.968L88.4293 20.416V5.888H92.5253V20.416Z" fill="#0A0A0A"/>
<path d="M126.485 24L125.781 17.28L126.613 14.944L125.781 12.64L126.485 5.888H130.773L129.813 14.944L130.773 24H126.485ZM127.765 14.944C127.36 16.8427 126.688 18.5067 125.749 19.936C124.81 21.3653 123.648 22.4747 122.261 23.264C120.896 24.0533 119.37 24.448 117.685 24.448C115.914 24.448 114.346 24.0533 112.981 23.264C111.616 22.4533 110.549 21.3333 109.781 19.904C109.013 18.4747 108.629 16.8213 108.629 14.944C108.629 13.0453 109.013 11.392 109.781 9.984C110.549 8.55467 111.616 7.44533 112.981 6.656C114.346 5.84533 115.914 5.44 117.685 5.44C119.37 5.44 120.896 5.83467 122.261 6.624C123.648 7.41333 124.81 8.52267 125.749 9.952C126.709 11.36 127.381 13.024 127.765 14.944ZM112.853 14.944C112.853 16.16 113.098 17.2373 113.589 18.176C114.101 19.0933 114.794 19.8187 115.669 20.352C116.544 20.864 117.546 21.12 118.677 21.12C119.829 21.12 120.896 20.864 121.877 20.352C122.858 19.8187 123.722 19.0933 124.469 18.176C125.237 17.2373 125.845 16.16 126.293 14.944C125.845 13.728 125.237 12.6613 124.469 11.744C123.722 10.8053 122.858 10.08 121.877 9.568C120.896 9.03467 119.829 8.768 118.677 8.768C117.546 8.768 116.544 9.03467 115.669 9.568C114.794 10.08 114.101 10.8053 113.589 11.744C113.098 12.6613 112.853 13.728 112.853 14.944Z" fill="#0A0A0A"/>
<path d="M144.825 24.448C142.713 24.448 140.835 24.0533 139.193 23.264C137.55 22.4533 136.259 21.3333 135.32 19.904C134.382 18.4747 133.913 16.8107 133.913 14.912C133.913 13.0347 134.35 11.392 135.225 9.984C136.121 8.55467 137.347 7.44533 138.905 6.656C140.483 5.84533 142.286 5.44 144.312 5.44C146.339 5.44 148.089 5.89867 149.561 6.816C151.054 7.712 152.206 8.98133 153.017 10.624C153.827 12.2667 154.232 14.1973 154.232 16.416H137.176V13.248H152.153L150.073 14.432C150.009 13.2373 149.721 12.2133 149.209 11.36C148.718 10.5067 148.046 9.856 147.193 9.408C146.361 8.93867 145.369 8.704 144.217 8.704C143.001 8.704 141.934 8.94933 141.017 9.44C140.121 9.93067 139.417 10.624 138.905 11.52C138.393 12.3947 138.137 13.44 138.137 14.656C138.137 16 138.435 17.1627 139.033 18.144C139.651 19.1253 140.515 19.8827 141.624 20.416C142.755 20.928 144.088 21.184 145.624 21.184C147.011 21.184 148.43 20.9707 149.881 20.544C151.331 20.096 152.611 19.4773 153.721 18.688V21.696C152.611 22.5493 151.257 23.2213 149.657 23.712C148.078 24.2027 146.467 24.448 144.825 24.448Z" fill="#0A0A0A"/>
<path d="M157.815 24V5.888H163.991L171.607 22.016H169.975L177.527 5.888H183.703V24H179.799V7.264H180.887L172.791 24H168.727L160.631 7.328L161.719 7.296V24H157.815Z" fill="#0A0A0A"/>
<path d="M208.64 5.888H212.8V24H208.64V5.888ZM188.288 24V5.888H192.448V22.848L190.976 20.928H198.72C199.85 20.928 200.736 20.6507 201.376 20.096C202.016 19.52 202.336 18.7413 202.336 17.76C202.336 16.7573 202.016 15.9787 201.376 15.424C200.736 14.848 199.85 14.56 198.72 14.56H191.104V11.584H199.264C200.736 11.584 202.016 11.8507 203.104 12.384C204.192 12.896 205.034 13.6213 205.632 14.56C206.25 15.4773 206.56 16.5547 206.56 17.792C206.56 19.0293 206.25 20.1173 205.632 21.056C205.034 21.9947 204.192 22.72 203.104 23.232C202.016 23.744 200.746 24 199.296 24H188.288Z" fill="#0A0A0A"/>
<path d="M227.273 24.448C225.161 24.448 223.284 24.0533 221.641 23.264C219.999 22.4533 218.708 21.3333 217.769 19.904C216.831 18.4747 216.361 16.8107 216.361 14.912C216.361 13.0347 216.799 11.392 217.673 9.984C218.569 8.55467 219.796 7.44533 221.353 6.656C222.932 5.84533 224.735 5.44 226.761 5.44C228.788 5.44 230.537 5.89867 232.009 6.816C233.503 7.712 234.655 8.98133 235.465 10.624C236.276 12.2667 236.681 14.1973 236.681 16.416H219.625V13.248H234.601L232.521 14.432C232.457 13.2373 232.169 12.2133 231.657 11.36C231.167 10.5067 230.495 9.856 229.641 9.408C228.809 8.93867 227.817 8.704 226.665 8.704C225.449 8.704 224.383 8.94933 223.465 9.44C222.569 9.93067 221.865 10.624 221.353 11.52C220.841 12.3947 220.585 13.44 220.585 14.656C220.585 16 220.884 17.1627 221.481 18.144C222.1 19.1253 222.964 19.8827 224.073 20.416C225.204 20.928 226.537 21.184 228.073 21.184C229.46 21.184 230.879 20.9707 232.329 20.544C233.78 20.096 235.06 19.4773 236.169 18.688V21.696C235.06 22.5493 233.705 23.2213 232.105 23.712C230.527 24.2027 228.916 24.448 227.273 24.448Z" fill="#0A0A0A"/>
</svg>
