<svg width="142" height="18" viewBox="0 0 142 18" fill="none" xmlns="http://www.w3.org/2000/svg">
<g clip-path="url(#clip0_4002_7266)">
<path d="M-179.779 0.809999V2.916H-187.933L-186.853 1.836V14.31H-189.229V0.809999H-179.779Z" fill="url(#paint0_linear_4002_7266)"/>
<path d="M-175.619 14.562C-176.855 14.562 -177.941 14.34 -178.877 13.896C-179.801 13.44 -180.527 12.81 -181.055 12.006C-181.571 11.202 -181.829 10.272 -181.829 9.216C-181.829 8.148 -181.571 7.218 -181.055 6.426C-180.527 5.622 -179.801 4.998 -178.877 4.554C-177.941 4.098 -176.855 3.87 -175.619 3.87C-174.383 3.87 -173.303 4.098 -172.379 4.554C-171.443 4.998 -170.717 5.622 -170.201 6.426C-169.673 7.218 -169.409 8.148 -169.409 9.216C-169.409 10.272 -169.673 11.202 -170.201 12.006C-170.717 12.81 -171.443 13.44 -172.379 13.896C-173.303 14.34 -174.383 14.562 -175.619 14.562ZM-175.619 12.726C-174.827 12.726 -174.149 12.582 -173.585 12.294C-173.009 12.006 -172.565 11.604 -172.253 11.088C-171.941 10.56 -171.785 9.936 -171.785 9.216C-171.785 8.496 -171.941 7.878 -172.253 7.362C-172.565 6.834 -173.009 6.426 -173.585 6.138C-174.149 5.85 -174.827 5.706 -175.619 5.706C-176.399 5.706 -177.077 5.85 -177.653 6.138C-178.229 6.426 -178.673 6.834 -178.985 7.362C-179.297 7.878 -179.453 8.496 -179.453 9.216C-179.453 9.936 -179.297 10.56 -178.985 11.088C-178.673 11.604 -178.229 12.006 -177.653 12.294C-177.077 12.582 -176.399 12.726 -175.619 12.726Z" fill="url(#paint1_linear_4002_7266)"/>
<path d="M-164.634 4.932H-162.294V14.31H-164.634V4.932ZM-168.864 4.122H-158.064V5.958H-168.864V4.122Z" fill="url(#paint2_linear_4002_7266)"/>
<path d="M-151.304 14.562C-152.54 14.562 -153.626 14.34 -154.562 13.896C-155.486 13.44 -156.212 12.81 -156.74 12.006C-157.256 11.202 -157.514 10.272 -157.514 9.216C-157.514 8.148 -157.256 7.218 -156.74 6.426C-156.212 5.622 -155.486 4.998 -154.562 4.554C-153.626 4.098 -152.54 3.87 -151.304 3.87C-150.068 3.87 -148.988 4.098 -148.064 4.554C-147.128 4.998 -146.402 5.622 -145.886 6.426C-145.358 7.218 -145.094 8.148 -145.094 9.216C-145.094 10.272 -145.358 11.202 -145.886 12.006C-146.402 12.81 -147.128 13.44 -148.064 13.896C-148.988 14.34 -150.068 14.562 -151.304 14.562ZM-151.304 12.726C-150.512 12.726 -149.834 12.582 -149.27 12.294C-148.694 12.006 -148.25 11.604 -147.938 11.088C-147.626 10.56 -147.47 9.936 -147.47 9.216C-147.47 8.496 -147.626 7.878 -147.938 7.362C-148.25 6.834 -148.694 6.426 -149.27 6.138C-149.834 5.85 -150.512 5.706 -151.304 5.706C-152.084 5.706 -152.762 5.85 -153.338 6.138C-153.914 6.426 -154.358 6.834 -154.67 7.362C-154.982 7.878 -155.138 8.496 -155.138 9.216C-155.138 9.936 -154.982 10.56 -154.67 11.088C-154.358 11.604 -153.914 12.006 -153.338 12.294C-152.762 12.582 -152.084 12.726 -151.304 12.726Z" fill="url(#paint3_linear_4002_7266)"/>
<path d="M-143.336 14.31L-142.814 9.216L-143.336 4.122H-135.956C-134.972 4.122 -134.204 4.35 -133.652 4.806C-133.088 5.262 -132.806 5.892 -132.806 6.696C-132.806 7.44 -133.088 8.04 -133.652 8.496C-134.204 8.94 -134.978 9.204 -135.974 9.288L-135.794 8.856C-134.618 8.88 -133.718 9.12 -133.094 9.576C-132.47 10.032 -132.158 10.674 -132.158 11.502C-132.158 12.378 -132.476 13.068 -133.112 13.572C-133.736 14.064 -134.606 14.31 -135.722 14.31H-143.336ZM-141.068 13.734L-141.968 12.69H-136.316C-135.68 12.69 -135.224 12.57 -134.948 12.33C-134.66 12.078 -134.516 11.73 -134.516 11.286C-134.516 10.89 -134.678 10.56 -135.002 10.296C-135.314 10.032 -135.842 9.9 -136.586 9.9H-141.464V8.388H-136.928C-136.316 8.388 -135.872 8.268 -135.596 8.028C-135.308 7.776 -135.164 7.452 -135.164 7.056C-135.164 6.672 -135.29 6.36 -135.542 6.12C-135.782 5.868 -136.19 5.742 -136.766 5.742H-141.95L-141.068 4.716L-140.564 9.216L-141.068 13.734Z" fill="url(#paint4_linear_4002_7266)"/>
<path d="M-118.732 4.122H-116.392V14.31H-118.732V4.122ZM-130.18 14.31V4.122H-127.84V13.662L-128.668 12.582H-124.312C-123.676 12.582 -123.178 12.426 -122.818 12.114C-122.458 11.79 -122.278 11.352 -122.278 10.8C-122.278 10.236 -122.458 9.798 -122.818 9.486C-123.178 9.162 -123.676 9 -124.312 9H-128.596V7.326H-124.006C-123.178 7.326 -122.458 7.476 -121.846 7.776C-121.234 8.064 -120.76 8.472 -120.424 9C-120.076 9.516 -119.902 10.122 -119.902 10.818C-119.902 11.514 -120.076 12.126 -120.424 12.654C-120.76 13.182 -121.234 13.59 -121.846 13.878C-122.458 14.166 -123.172 14.31 -123.988 14.31H-130.18Z" fill="url(#paint5_linear_4002_7266)"/>
<path d="M-103.325 14.562C-104.561 14.562 -105.647 14.34 -106.583 13.896C-107.507 13.44 -108.233 12.81 -108.761 12.006C-109.277 11.202 -109.535 10.272 -109.535 9.216C-109.535 8.148 -109.277 7.218 -108.761 6.426C-108.233 5.622 -107.507 4.998 -106.583 4.554C-105.647 4.098 -104.561 3.87 -103.325 3.87C-102.089 3.87 -101.009 4.098 -100.085 4.554C-99.1491 4.998 -98.4231 5.622 -97.9071 6.426C-97.3791 7.218 -97.1151 8.148 -97.1151 9.216C-97.1151 10.272 -97.3791 11.202 -97.9071 12.006C-98.4231 12.81 -99.1491 13.44 -100.085 13.896C-101.009 14.34 -102.089 14.562 -103.325 14.562ZM-103.325 12.726C-102.533 12.726 -101.855 12.582 -101.291 12.294C-100.715 12.006 -100.271 11.604 -99.9591 11.088C-99.6471 10.56 -99.4911 9.936 -99.4911 9.216C-99.4911 8.496 -99.6471 7.878 -99.9591 7.362C-100.271 6.834 -100.715 6.426 -101.291 6.138C-101.855 5.85 -102.533 5.706 -103.325 5.706C-104.105 5.706 -104.783 5.85 -105.359 6.138C-105.935 6.426 -106.379 6.834 -106.691 7.362C-107.003 7.878 -107.159 8.496 -107.159 9.216C-107.159 9.936 -107.003 10.56 -106.691 11.088C-106.379 11.604 -105.935 12.006 -105.359 12.294C-104.783 12.582 -104.105 12.726 -103.325 12.726Z" fill="url(#paint6_linear_4002_7266)"/>
<path d="M-89.075 14.562C-90.431 14.562 -91.595 14.298 -92.567 13.77C-93.527 13.23 -94.265 12.456 -94.781 11.448C-95.285 10.44 -95.537 9.228 -95.537 7.812C-95.537 5.7 -94.985 4.032 -93.881 2.808C-92.777 1.584 -91.199 0.887999 -89.147 0.719999C-88.319 0.648 -87.635 0.588 -87.095 0.539999C-86.543 0.491999 -86.093 0.443999 -85.745 0.395999C-85.397 0.335999 -85.103 0.275999 -84.863 0.215999C-84.611 0.155999 -84.371 0.0839996 -84.143 0V1.998C-84.371 2.094 -84.677 2.184 -85.061 2.268C-85.445 2.34 -85.931 2.4 -86.519 2.448C-87.107 2.496 -87.827 2.544 -88.679 2.592C-90.287 2.676 -91.499 3.156 -92.315 4.032C-93.131 4.908 -93.539 6.156 -93.539 7.776V8.352L-93.665 8.208C-93.401 7.5 -93.023 6.9 -92.531 6.408C-92.027 5.916 -91.427 5.538 -90.731 5.274C-90.035 5.01 -89.273 4.878 -88.445 4.878C-87.401 4.878 -86.489 5.076 -85.709 5.472C-84.929 5.868 -84.323 6.426 -83.891 7.146C-83.447 7.854 -83.225 8.682 -83.225 9.63C-83.225 10.626 -83.471 11.496 -83.963 12.24C-84.443 12.972 -85.121 13.542 -85.997 13.95C-86.873 14.358 -87.899 14.562 -89.075 14.562ZM-89.021 12.726C-88.325 12.726 -87.725 12.6 -87.221 12.348C-86.705 12.096 -86.309 11.742 -86.033 11.286C-85.745 10.818 -85.601 10.278 -85.601 9.666C-85.601 9.054 -85.745 8.52 -86.033 8.064C-86.309 7.608 -86.705 7.254 -87.221 7.002C-87.725 6.75 -88.325 6.624 -89.021 6.624C-89.957 6.624 -90.785 6.876 -91.505 7.38C-92.213 7.884 -92.741 8.598 -93.089 9.522C-92.885 10.506 -92.423 11.286 -91.703 11.862C-90.971 12.438 -90.077 12.726 -89.021 12.726Z" fill="url(#paint7_linear_4002_7266)"/>
<path d="M-69.949 10.296C-70.069 11.136 -70.399 11.88 -70.939 12.528C-71.479 13.164 -72.169 13.662 -73.009 14.022C-73.849 14.382 -74.785 14.562 -75.817 14.562C-76.993 14.562 -78.031 14.34 -78.931 13.896C-79.819 13.44 -80.515 12.81 -81.019 12.006C-81.523 11.202 -81.775 10.272 -81.775 9.216C-81.775 8.16 -81.523 7.23 -81.019 6.426C-80.515 5.622 -79.819 4.998 -78.931 4.554C-78.031 4.098 -76.993 3.87 -75.817 3.87C-74.785 3.87 -73.849 4.05 -73.009 4.41C-72.169 4.77 -71.479 5.274 -70.939 5.922C-70.399 6.558 -70.069 7.302 -69.949 8.154H-72.307C-72.475 7.386 -72.877 6.786 -73.513 6.354C-74.149 5.922 -74.917 5.706 -75.817 5.706C-76.537 5.706 -77.167 5.85 -77.707 6.138C-78.247 6.414 -78.667 6.816 -78.967 7.344C-79.255 7.86 -79.399 8.484 -79.399 9.216C-79.399 9.936 -79.255 10.56 -78.967 11.088C-78.667 11.616 -78.247 12.024 -77.707 12.312C-77.167 12.588 -76.537 12.726 -75.817 12.726C-74.905 12.726 -74.131 12.504 -73.495 12.06C-72.859 11.616 -72.463 11.028 -72.307 10.296H-69.949Z" fill="url(#paint8_linear_4002_7266)"/>
<path d="M-66.1102 17.532C-66.7102 17.532 -67.2562 17.454 -67.7482 17.298C-68.2282 17.154 -68.6782 16.95 -69.0982 16.686V14.904C-68.6422 15.192 -68.2102 15.402 -67.8022 15.534C-67.3822 15.666 -66.9142 15.732 -66.3982 15.732C-65.9062 15.732 -65.4682 15.618 -65.0842 15.39C-64.7002 15.174 -64.3822 14.79 -64.1302 14.238L-59.5402 4.122H-57.0562L-62.3302 15.03C-62.6182 15.63 -62.9602 16.11 -63.3562 16.47C-63.7402 16.842 -64.1662 17.112 -64.6342 17.28C-65.0902 17.448 -65.5822 17.532 -66.1102 17.532ZM-64.9402 13.986L-69.6202 4.122H-67.0462L-62.6182 13.986H-64.9402Z" fill="url(#paint9_linear_4002_7266)"/>
<path d="M-43.2684 12.51V16.884H-45.3024V14.31H-55.4904V16.884H-57.5244V12.51H-54.8964L-54.2484 12.546H-46.8144L-46.2384 12.51H-43.2684ZM-55.2564 4.122H-45.1584V13.626H-47.4984V4.842L-46.4184 5.922H-54.0324L-53.0244 5.13C-52.9644 5.658 -52.9284 6.168 -52.9164 6.66C-52.8924 7.14 -52.8804 7.59 -52.8804 8.01C-52.8804 9.762 -53.1204 11.136 -53.6004 12.132C-54.0684 13.128 -54.7284 13.626 -55.5804 13.626L-56.5344 12.816C-55.5504 12.096 -55.0584 10.344 -55.0584 7.56C-55.0584 7.02 -55.0764 6.462 -55.1124 5.886C-55.1484 5.298 -55.1964 4.71 -55.2564 4.122Z" fill="url(#paint10_linear_4002_7266)"/>
<path d="M-41.4837 14.31V4.122H-39.1797V13.14L-39.8817 12.978L-32.9157 4.122H-29.8917V14.31H-32.1957V5.166L-31.4757 5.346L-38.5317 14.31H-41.4837Z" fill="url(#paint11_linear_4002_7266)"/>
<path d="M-24.0916 4.932H-21.7516V14.31H-24.0916V4.932ZM-28.3216 4.122H-17.5216V5.958H-28.3216V4.122Z" fill="url(#paint12_linear_4002_7266)"/>
<path d="M-15.9561 14.31V4.122H-13.616V13.662L-14.444 12.582H-10.088C-9.45204 12.582 -8.95406 12.426 -8.59406 12.114C-8.23406 11.79 -8.05405 11.352 -8.05405 10.8C-8.05405 10.236 -8.23406 9.798 -8.59406 9.486C-8.95406 9.162 -9.45204 9 -10.088 9H-14.3721V7.326H-9.78204C-8.95404 7.326 -8.23405 7.476 -7.62206 7.776C-7.01006 8.064 -6.53606 8.472 -6.20006 9C-5.85206 9.516 -5.67805 10.122 -5.67805 10.818C-5.67805 11.514 -5.85206 12.126 -6.20006 12.654C-6.53606 13.182 -7.01006 13.59 -7.62206 13.878C-8.23405 14.166 -8.94805 14.31 -9.76405 14.31H-15.9561Z" fill="url(#paint13_linear_4002_7266)"/>
<path d="M0.179428 14.31L0.701431 9.216L0.179428 4.122H7.55943C8.54343 4.122 9.31143 4.35 9.86343 4.806C10.4274 5.262 10.7094 5.892 10.7094 6.696C10.7094 7.44 10.4274 8.04 9.86343 8.496C9.31143 8.94 8.53743 9.204 7.54143 9.288L7.72142 8.856C8.89742 8.88 9.79743 9.12 10.4214 9.576C11.0454 10.032 11.3574 10.674 11.3574 11.502C11.3574 12.378 11.0394 13.068 10.4034 13.572C9.77943 14.064 8.90943 14.31 7.79343 14.31H0.179428ZM2.44743 13.734L1.54742 12.69H7.19943C7.83543 12.69 8.29143 12.57 8.56743 12.33C8.85543 12.078 8.99942 11.73 8.99942 11.286C8.99942 10.89 8.83743 10.56 8.51343 10.296C8.20143 10.032 7.67343 9.9 6.92943 9.9H2.05142V8.388H6.58743C7.19943 8.388 7.64343 8.268 7.91943 8.028C8.20743 7.776 8.35143 7.452 8.35143 7.056C8.35143 6.672 8.22542 6.36 7.97342 6.12C7.73342 5.868 7.32542 5.742 6.74942 5.742H1.56543L2.44743 4.716L2.95143 9.216L2.44743 13.734Z" fill="url(#paint14_linear_4002_7266)"/>
<path d="M22.8394 14.31L22.4434 10.53L22.9114 9.216L22.4434 7.92L22.8394 4.122H25.2514L24.7114 9.216L25.2514 14.31H22.8394ZM23.5594 9.216C23.3314 10.284 22.9534 11.22 22.4254 12.024C21.8974 12.828 21.2434 13.452 20.4634 13.896C19.6954 14.34 18.8374 14.562 17.8894 14.562C16.8934 14.562 16.0114 14.34 15.2434 13.896C14.4754 13.44 13.8754 12.81 13.4434 12.006C13.0114 11.202 12.7954 10.272 12.7954 9.216C12.7954 8.148 13.0114 7.218 13.4434 6.426C13.8754 5.622 14.4754 4.998 15.2434 4.554C16.0114 4.098 16.8934 3.87 17.8894 3.87C18.8374 3.87 19.6954 4.092 20.4634 4.536C21.2434 4.98 21.8974 5.604 22.4254 6.408C22.9654 7.2 23.3434 8.136 23.5594 9.216ZM15.1714 9.216C15.1714 9.9 15.3094 10.506 15.5854 11.034C15.8734 11.55 16.2634 11.958 16.7554 12.258C17.2474 12.546 17.8114 12.69 18.4474 12.69C19.0954 12.69 19.6954 12.546 20.2474 12.258C20.7994 11.958 21.2854 11.55 21.7054 11.034C22.1374 10.506 22.4794 9.9 22.7314 9.216C22.4794 8.532 22.1374 7.932 21.7054 7.416C21.2854 6.888 20.7994 6.48 20.2474 6.192C19.6954 5.892 19.0954 5.742 18.4474 5.742C17.8114 5.742 17.2474 5.892 16.7554 6.192C16.2634 6.48 15.8734 6.888 15.5854 7.416C15.3094 7.932 15.1714 8.532 15.1714 9.216Z" fill="url(#paint15_linear_4002_7266)"/>
<path d="M27.5934 14.31V4.122H29.9334V13.212L29.2134 12.51H35.6934L35.2974 13.212V4.122H37.6374V13.212L37.0614 12.51H43.7214L43.0014 13.212V4.122H45.3414V14.31H27.5934Z" fill="url(#paint16_linear_4002_7266)"/>
<path d="M63.6775 4.122V14.31H61.3375V4.86L62.4175 5.922H54.0295L55.1095 4.86V14.31H52.7695V4.122H63.6775Z" fill="url(#paint17_linear_4002_7266)"/>
<path d="M66.254 4.122H68.594V7.668L68.486 8.028V10.08L68.594 10.71V17.28H66.254V4.122ZM67.694 9.216C67.922 8.136 68.3 7.2 68.828 6.408C69.356 5.604 70.004 4.98 70.772 4.536C71.552 4.092 72.416 3.87 73.364 3.87C74.36 3.87 75.242 4.098 76.01 4.554C76.778 4.998 77.378 5.622 77.81 6.426C78.242 7.218 78.458 8.148 78.458 9.216C78.458 10.272 78.242 11.202 77.81 12.006C77.378 12.81 76.778 13.44 76.01 13.896C75.242 14.34 74.36 14.562 73.364 14.562C72.416 14.562 71.558 14.34 70.79 13.896C70.022 13.452 69.368 12.828 68.828 12.024C68.3 11.22 67.922 10.284 67.694 9.216ZM76.082 9.216C76.082 8.532 75.938 7.932 75.65 7.416C75.374 6.888 74.99 6.48 74.498 6.192C74.006 5.892 73.442 5.742 72.806 5.742C72.17 5.742 71.57 5.892 71.006 6.192C70.454 6.48 69.968 6.888 69.548 7.416C69.128 7.932 68.786 8.532 68.522 9.216C68.786 9.9 69.128 10.506 69.548 11.034C69.968 11.55 70.454 11.958 71.006 12.258C71.57 12.546 72.17 12.69 72.806 12.69C73.442 12.69 74.006 12.546 74.498 12.258C74.99 11.958 75.374 11.55 75.65 11.034C75.938 10.506 76.082 9.9 76.082 9.216Z" fill="url(#paint18_linear_4002_7266)"/>
<path d="M86.1284 14.562C84.8924 14.562 83.8064 14.34 82.8704 13.896C81.9464 13.44 81.2204 12.81 80.6924 12.006C80.1764 11.202 79.9184 10.272 79.9184 9.216C79.9184 8.148 80.1764 7.218 80.6924 6.426C81.2204 5.622 81.9464 4.998 82.8704 4.554C83.8064 4.098 84.8924 3.87 86.1284 3.87C87.3644 3.87 88.4444 4.098 89.3684 4.554C90.3044 4.998 91.0304 5.622 91.5464 6.426C92.0744 7.218 92.3384 8.148 92.3384 9.216C92.3384 10.272 92.0744 11.202 91.5464 12.006C91.0304 12.81 90.3044 13.44 89.3684 13.896C88.4444 14.34 87.3644 14.562 86.1284 14.562ZM86.1284 12.726C86.9204 12.726 87.5984 12.582 88.1624 12.294C88.7384 12.006 89.1824 11.604 89.4944 11.088C89.8064 10.56 89.9624 9.936 89.9624 9.216C89.9624 8.496 89.8064 7.878 89.4944 7.362C89.1824 6.834 88.7384 6.426 88.1624 6.138C87.5984 5.85 86.9204 5.706 86.1284 5.706C85.3484 5.706 84.6704 5.85 84.0944 6.138C83.5184 6.426 83.0744 6.834 82.7624 7.362C82.4504 7.878 82.2944 8.496 82.2944 9.216C82.2944 9.936 82.4504 10.56 82.7624 11.088C83.0744 11.604 83.5184 12.006 84.0944 12.294C84.6704 12.582 85.3484 12.726 86.1284 12.726Z" fill="url(#paint19_linear_4002_7266)"/>
<path d="M99.8925 14.562C98.7045 14.562 97.6485 14.34 96.7245 13.896C95.8005 13.44 95.0745 12.81 94.5465 12.006C94.0185 11.202 93.7545 10.266 93.7545 9.198C93.7545 8.142 94.0006 7.218 94.4926 6.426C94.9966 5.622 95.6865 4.998 96.5625 4.554C97.4505 4.098 98.4646 3.87 99.6046 3.87C100.745 3.87 101.729 4.128 102.557 4.644C103.397 5.148 104.045 5.862 104.501 6.786C104.957 7.71 105.185 8.796 105.185 10.044H95.5905V8.262H104.015L102.845 8.928C102.809 8.256 102.647 7.68 102.359 7.2C102.083 6.72 101.705 6.354 101.225 6.102C100.757 5.838 100.199 5.706 99.5505 5.706C98.8665 5.706 98.2665 5.844 97.7505 6.12C97.2465 6.396 96.8505 6.786 96.5625 7.29C96.2745 7.782 96.1306 8.37 96.1306 9.054C96.1306 9.81 96.2986 10.464 96.6346 11.016C96.9826 11.568 97.4685 11.994 98.0925 12.294C98.7285 12.582 99.4785 12.726 100.343 12.726C101.123 12.726 101.921 12.606 102.737 12.366C103.553 12.114 104.273 11.766 104.897 11.322V13.014C104.273 13.494 103.511 13.872 102.611 14.148C101.723 14.424 100.817 14.562 99.8925 14.562Z" fill="url(#paint20_linear_4002_7266)"/>
<path d="M107.2 14.31V4.122H109.54V12.33L108.838 12.078L115.336 4.122H118L109.36 14.31H107.2ZM115.588 14.31L112.42 9.27L114.058 7.794L118.324 14.31H115.588Z" fill="url(#paint21_linear_4002_7266)"/>
<path d="M122.799 4.932H125.139V14.31H122.799V4.932ZM118.569 4.122H129.369V5.958H118.569V4.122Z" fill="url(#paint22_linear_4002_7266)"/>
<path d="M134.809 9.594C134.809 9.03 134.959 8.556 135.259 8.172C135.559 7.776 136.027 7.41 136.663 7.074L138.031 6.336C138.403 6.132 138.703 5.892 138.931 5.616C139.159 5.328 139.273 5.016 139.273 4.68C139.273 4.008 138.997 3.474 138.445 3.078C137.905 2.682 137.155 2.484 136.195 2.484C135.247 2.484 134.473 2.706 133.873 3.15C133.273 3.582 132.925 4.182 132.829 4.95H130.561C130.669 3.57 131.215 2.496 132.199 1.728C133.195 0.947999 134.527 0.557999 136.195 0.557999C137.875 0.557999 139.183 0.911999 140.119 1.62C141.067 2.328 141.541 3.306 141.541 4.554C141.541 5.154 141.361 5.718 141.001 6.246C140.641 6.774 140.119 7.218 139.435 7.578L137.977 8.352C137.629 8.544 137.359 8.748 137.167 8.964C136.987 9.168 136.897 9.432 136.897 9.756V10.332H134.899C134.863 10.2 134.839 10.074 134.827 9.954C134.815 9.834 134.809 9.714 134.809 9.594ZM135.853 14.454C135.433 14.454 135.085 14.328 134.809 14.076C134.533 13.812 134.395 13.476 134.395 13.068C134.395 12.66 134.533 12.33 134.809 12.078C135.085 11.814 135.433 11.682 135.853 11.682C136.285 11.682 136.633 11.814 136.897 12.078C137.173 12.33 137.311 12.66 137.311 13.068C137.311 13.476 137.173 13.812 136.897 14.076C136.633 14.328 136.285 14.454 135.853 14.454Z" fill="url(#paint23_linear_4002_7266)"/>
</g>
<defs>
<linearGradient id="paint0_linear_4002_7266" x1="-189.229" y1="8.766" x2="22.0859" y2="8.766" gradientUnits="userSpaceOnUse">
<stop stop-color="#6187EC"/>
<stop offset="0.0001" stop-color="#FF4043"/>
<stop offset="1" stop-color="#FF00C8"/>
</linearGradient>
<linearGradient id="paint1_linear_4002_7266" x1="-189.229" y1="8.766" x2="22.0859" y2="8.766" gradientUnits="userSpaceOnUse">
<stop stop-color="#6187EC"/>
<stop offset="0.0001" stop-color="#FF4043"/>
<stop offset="1" stop-color="#FF00C8"/>
</linearGradient>
<linearGradient id="paint2_linear_4002_7266" x1="-189.229" y1="8.766" x2="22.0859" y2="8.766" gradientUnits="userSpaceOnUse">
<stop stop-color="#6187EC"/>
<stop offset="0.0001" stop-color="#FF4043"/>
<stop offset="1" stop-color="#FF00C8"/>
</linearGradient>
<linearGradient id="paint3_linear_4002_7266" x1="-189.229" y1="8.766" x2="22.0859" y2="8.766" gradientUnits="userSpaceOnUse">
<stop stop-color="#6187EC"/>
<stop offset="0.0001" stop-color="#FF4043"/>
<stop offset="1" stop-color="#FF00C8"/>
</linearGradient>
<linearGradient id="paint4_linear_4002_7266" x1="-189.229" y1="8.766" x2="22.0859" y2="8.766" gradientUnits="userSpaceOnUse">
<stop stop-color="#6187EC"/>
<stop offset="0.0001" stop-color="#FF4043"/>
<stop offset="1" stop-color="#FF00C8"/>
</linearGradient>
<linearGradient id="paint5_linear_4002_7266" x1="-189.229" y1="8.766" x2="22.0859" y2="8.766" gradientUnits="userSpaceOnUse">
<stop stop-color="#6187EC"/>
<stop offset="0.0001" stop-color="#FF4043"/>
<stop offset="1" stop-color="#FF00C8"/>
</linearGradient>
<linearGradient id="paint6_linear_4002_7266" x1="-189.229" y1="8.766" x2="22.0859" y2="8.766" gradientUnits="userSpaceOnUse">
<stop stop-color="#6187EC"/>
<stop offset="0.0001" stop-color="#FF4043"/>
<stop offset="1" stop-color="#FF00C8"/>
</linearGradient>
<linearGradient id="paint7_linear_4002_7266" x1="-189.229" y1="8.766" x2="22.0859" y2="8.766" gradientUnits="userSpaceOnUse">
<stop stop-color="#6187EC"/>
<stop offset="0.0001" stop-color="#FF4043"/>
<stop offset="1" stop-color="#FF00C8"/>
</linearGradient>
<linearGradient id="paint8_linear_4002_7266" x1="-189.229" y1="8.766" x2="22.0859" y2="8.766" gradientUnits="userSpaceOnUse">
<stop stop-color="#6187EC"/>
<stop offset="0.0001" stop-color="#FF4043"/>
<stop offset="1" stop-color="#FF00C8"/>
</linearGradient>
<linearGradient id="paint9_linear_4002_7266" x1="-189.229" y1="8.766" x2="22.0859" y2="8.766" gradientUnits="userSpaceOnUse">
<stop stop-color="#6187EC"/>
<stop offset="0.0001" stop-color="#FF4043"/>
<stop offset="1" stop-color="#FF00C8"/>
</linearGradient>
<linearGradient id="paint10_linear_4002_7266" x1="-189.229" y1="8.766" x2="22.0859" y2="8.766" gradientUnits="userSpaceOnUse">
<stop stop-color="#6187EC"/>
<stop offset="0.0001" stop-color="#FF4043"/>
<stop offset="1" stop-color="#FF00C8"/>
</linearGradient>
<linearGradient id="paint11_linear_4002_7266" x1="-189.229" y1="8.766" x2="22.0859" y2="8.766" gradientUnits="userSpaceOnUse">
<stop stop-color="#6187EC"/>
<stop offset="0.0001" stop-color="#FF4043"/>
<stop offset="1" stop-color="#FF00C8"/>
</linearGradient>
<linearGradient id="paint12_linear_4002_7266" x1="-189.229" y1="8.766" x2="22.0859" y2="8.766" gradientUnits="userSpaceOnUse">
<stop stop-color="#6187EC"/>
<stop offset="0.0001" stop-color="#FF4043"/>
<stop offset="1" stop-color="#FF00C8"/>
</linearGradient>
<linearGradient id="paint13_linear_4002_7266" x1="-189.229" y1="8.766" x2="22.0859" y2="8.766" gradientUnits="userSpaceOnUse">
<stop stop-color="#6187EC"/>
<stop offset="0.0001" stop-color="#FF4043"/>
<stop offset="1" stop-color="#FF00C8"/>
</linearGradient>
<linearGradient id="paint14_linear_4002_7266" x1="-189.229" y1="8.766" x2="22.0859" y2="8.766" gradientUnits="userSpaceOnUse">
<stop stop-color="#6187EC"/>
<stop offset="0.0001" stop-color="#FF4043"/>
<stop offset="1" stop-color="#FF00C8"/>
</linearGradient>
<linearGradient id="paint15_linear_4002_7266" x1="-189.229" y1="8.766" x2="22.0859" y2="8.766" gradientUnits="userSpaceOnUse">
<stop stop-color="#6187EC"/>
<stop offset="0.0001" stop-color="#FF4043"/>
<stop offset="1" stop-color="#FF00C8"/>
</linearGradient>
<linearGradient id="paint16_linear_4002_7266" x1="-189.229" y1="8.766" x2="22.0859" y2="8.766" gradientUnits="userSpaceOnUse">
<stop stop-color="#6187EC"/>
<stop offset="0.0001" stop-color="#FF4043"/>
<stop offset="1" stop-color="#FF00C8"/>
</linearGradient>
<linearGradient id="paint17_linear_4002_7266" x1="-189.229" y1="8.766" x2="22.0859" y2="8.766" gradientUnits="userSpaceOnUse">
<stop stop-color="#6187EC"/>
<stop offset="0.0001" stop-color="#FF4043"/>
<stop offset="1" stop-color="#FF00C8"/>
</linearGradient>
<linearGradient id="paint18_linear_4002_7266" x1="-189.229" y1="8.766" x2="22.0859" y2="8.766" gradientUnits="userSpaceOnUse">
<stop stop-color="#6187EC"/>
<stop offset="0.0001" stop-color="#FF4043"/>
<stop offset="1" stop-color="#FF00C8"/>
</linearGradient>
<linearGradient id="paint19_linear_4002_7266" x1="-189.229" y1="8.766" x2="22.0859" y2="8.766" gradientUnits="userSpaceOnUse">
<stop stop-color="#6187EC"/>
<stop offset="0.0001" stop-color="#FF4043"/>
<stop offset="1" stop-color="#FF00C8"/>
</linearGradient>
<linearGradient id="paint20_linear_4002_7266" x1="-189.229" y1="8.766" x2="22.0859" y2="8.766" gradientUnits="userSpaceOnUse">
<stop stop-color="#6187EC"/>
<stop offset="0.0001" stop-color="#FF4043"/>
<stop offset="1" stop-color="#FF00C8"/>
</linearGradient>
<linearGradient id="paint21_linear_4002_7266" x1="-189.229" y1="8.766" x2="22.0859" y2="8.766" gradientUnits="userSpaceOnUse">
<stop stop-color="#6187EC"/>
<stop offset="0.0001" stop-color="#FF4043"/>
<stop offset="1" stop-color="#FF00C8"/>
</linearGradient>
<linearGradient id="paint22_linear_4002_7266" x1="-189.229" y1="8.766" x2="22.0859" y2="8.766" gradientUnits="userSpaceOnUse">
<stop stop-color="#6187EC"/>
<stop offset="0.0001" stop-color="#FF4043"/>
<stop offset="1" stop-color="#FF00C8"/>
</linearGradient>
<linearGradient id="paint23_linear_4002_7266" x1="-189.229" y1="8.766" x2="22.0859" y2="8.766" gradientUnits="userSpaceOnUse">
<stop stop-color="#6187EC"/>
<stop offset="0.0001" stop-color="#FF4043"/>
<stop offset="1" stop-color="#FF00C8"/>
</linearGradient>
<clipPath id="clip0_4002_7266">
<rect width="142" height="18" fill="white"/>
</clipPath>
</defs>
</svg>
