<svg width="261" height="33" viewBox="0 0 261 33" fill="none" xmlns="http://www.w3.org/2000/svg">
<path d="M8.68084 26.5052L13.0213 19.0838H13.0918L24.1723 0H29.2537L13.7623 26.5052H8.68084ZM13.1271 22.4058L0 0H5.15204L16.2325 18.9071L13.1271 22.4058Z" fill="#0A0A0A"/>
<path d="M29.0566 26.5052L30.08 16.5039L29.0566 6.50262H43.5247C45.4537 6.50262 46.9594 6.95026 48.0415 7.84555C49.1472 8.74084 49.7001 9.97775 49.7001 11.5563C49.7001 13.017 49.1472 14.195 48.0415 15.0903C46.9594 15.962 45.442 16.4804 43.4894 16.6453L43.8423 15.7971C46.1477 15.8442 47.9121 16.3154 49.1355 17.2107C50.3588 18.106 50.9704 19.3665 50.9704 20.9921C50.9704 22.712 50.347 24.0668 49.1002 25.0563C47.8769 26.0223 46.1713 26.5052 43.9834 26.5052H29.0566ZM33.5029 25.3743L31.7385 23.3246H42.8189C44.0658 23.3246 44.9597 23.089 45.5008 22.6178C46.0654 22.123 46.3477 21.4398 46.3477 20.5681C46.3477 19.7906 46.0301 19.1427 45.3949 18.6243C44.7833 18.106 43.7482 17.8469 42.2896 17.8469H32.7266V14.8783H41.6191C42.8189 14.8783 43.6893 14.6427 44.2304 14.1715C44.795 13.6767 45.0773 13.0406 45.0773 12.2631C45.0773 11.5092 44.8303 10.8966 44.3363 10.4254C43.8658 9.93063 43.0659 9.68325 41.9367 9.68325H31.7738L33.5029 7.66885L34.491 16.5039L33.5029 25.3743Z" fill="#0A0A0A"/>
<path d="M73.4803 26.5052L72.704 19.0838L73.6214 16.5039L72.704 13.9594L73.4803 6.50262H78.2089L77.1502 16.5039L78.2089 26.5052H73.4803ZM74.8918 16.5039C74.4448 18.6008 73.7038 20.4385 72.6687 22.017C71.6336 23.5955 70.3514 24.8207 68.8223 25.6924C67.3167 26.5641 65.6346 27 63.7761 27C61.8235 27 60.0944 26.5641 58.5888 25.6924C57.0832 24.7971 55.9069 23.5602 55.06 21.9817C54.2131 20.4031 53.7896 18.5772 53.7896 16.5039C53.7896 14.4071 54.2131 12.5812 55.06 11.0262C55.9069 9.44764 57.0832 8.22251 58.5888 7.35078C60.0944 6.4555 61.8235 6.00785 63.7761 6.00785C65.6346 6.00785 67.3167 6.44372 68.8223 7.31544C70.3514 8.18717 71.6336 9.4123 72.6687 10.9908C73.7273 12.5458 74.4684 14.3835 74.8918 16.5039ZM58.4476 16.5039C58.4476 17.8469 58.7182 19.0367 59.2592 20.0733C59.8239 21.0864 60.5884 21.8874 61.553 22.4764C62.5175 23.0419 63.6232 23.3246 64.87 23.3246C66.1404 23.3246 67.3167 23.0419 68.3988 22.4764C69.481 21.8874 70.4338 21.0864 71.2572 20.0733C72.1041 19.0367 72.7745 17.8469 73.2686 16.5039C72.7745 15.161 72.1041 13.983 71.2572 12.9699C70.4338 11.9332 69.481 11.1322 68.3988 10.5668C67.3167 9.97775 66.1404 9.68325 64.87 9.68325C63.6232 9.68325 62.5175 9.97775 61.553 10.5668C60.5884 11.1322 59.8239 11.9332 59.2592 12.9699C58.7182 13.983 58.4476 15.161 58.4476 16.5039Z" fill="#0A0A0A"/>
<path d="M80.33 26.5052L88.6933 13.712L91.9045 16.6099L85.6938 26.5052H80.33ZM113.854 26.5052L107.678 16.6099L110.854 13.712L119.217 26.5052H113.854ZM102.032 22.5471L100.691 22.0524L113.36 6.50262H118.582L101.609 26.5052H97.9387L80.9652 6.50262H86.1878L98.8562 22.0524L97.5153 22.5471V6.50262H102.032V22.5471Z" fill="#0A0A0A"/>
<path d="M139.481 26.5052L138.705 19.0838L139.622 16.5039L138.705 13.9594L139.481 6.50262H144.21L143.151 16.5039L144.21 26.5052H139.481ZM140.893 16.5039C140.446 18.6008 139.705 20.4385 138.67 22.017C137.634 23.5955 136.352 24.8207 134.823 25.6924C133.318 26.5641 131.635 27 129.777 27C127.824 27 126.095 26.5641 124.59 25.6924C123.084 24.7971 121.908 23.5602 121.061 21.9817C120.214 20.4031 119.791 18.5772 119.791 16.5039C119.791 14.4071 120.214 12.5812 121.061 11.0262C121.908 9.44764 123.084 8.22251 124.59 7.35078C126.095 6.4555 127.824 6.00785 129.777 6.00785C131.635 6.00785 133.318 6.44372 134.823 7.31544C136.352 8.18717 137.634 9.4123 138.67 10.9908C139.728 12.5458 140.469 14.3835 140.893 16.5039ZM124.449 16.5039C124.449 17.8469 124.719 19.0367 125.26 20.0733C125.825 21.0864 126.589 21.8874 127.554 22.4764C128.518 23.0419 129.624 23.3246 130.871 23.3246C132.141 23.3246 133.318 23.0419 134.4 22.4764C135.482 21.8874 136.435 21.0864 137.258 20.0733C138.105 19.0367 138.775 17.8469 139.269 16.5039C138.775 15.161 138.105 13.983 137.258 12.9699C136.435 11.9332 135.482 11.1322 134.4 10.5668C133.318 9.97775 132.141 9.68325 130.871 9.68325C129.624 9.68325 128.518 9.97775 127.554 10.5668C126.589 11.1322 125.825 11.9332 125.26 12.9699C124.719 13.983 124.449 15.161 124.449 16.5039Z" fill="#0A0A0A"/>
<path d="M159.705 27C157.376 27 155.306 26.5641 153.494 25.6924C151.683 24.7971 150.26 23.5602 149.225 21.9817C148.189 20.4031 147.672 18.5654 147.672 16.4686C147.672 14.3953 148.154 12.5812 149.119 11.0262C150.107 9.44764 151.459 8.22251 153.177 7.35078C154.918 6.4555 156.906 6.00785 159.14 6.00785C161.375 6.00785 163.304 6.5144 164.928 7.52749C166.574 8.51702 167.845 9.91885 168.739 11.733C169.633 13.5471 170.08 15.6793 170.08 18.1296H151.271V14.6309H167.786L165.492 15.9385C165.422 14.6191 165.104 13.4882 164.54 12.5458C163.998 11.6034 163.257 10.8848 162.316 10.3901C161.399 9.87173 160.305 9.61257 159.035 9.61257C157.694 9.61257 156.517 9.88351 155.506 10.4254C154.518 10.9673 153.741 11.733 153.177 12.7225C152.612 13.6885 152.33 14.8429 152.33 16.1859C152.33 17.6702 152.659 18.9542 153.318 20.038C154 21.1217 154.953 21.9581 156.176 22.5471C157.423 23.1126 158.893 23.3953 160.587 23.3953C162.116 23.3953 163.681 23.1597 165.281 22.6885C166.88 22.1937 168.292 21.5105 169.515 20.6387V23.9607C168.292 24.9031 166.798 25.6453 165.034 26.1872C163.293 26.7291 161.517 27 159.705 27Z" fill="#0A0A0A"/>
<path d="M174.031 26.5052V6.50262H180.841L189.24 24.3141H187.44L195.768 6.50262H202.579V26.5052H198.273V8.02225H199.473L190.545 26.5052H186.064L177.136 8.09293L178.336 8.05759V26.5052H174.031Z" fill="#0A0A0A"/>
<path d="M230.077 6.50262H234.665V26.5052H230.077V6.50262ZM207.634 26.5052V6.50262H212.222V25.233L210.598 23.1126H219.138C220.385 23.1126 221.361 22.8063 222.067 22.1937C222.773 21.5576 223.126 20.6976 223.126 19.6139C223.126 18.5065 222.773 17.6466 222.067 17.034C221.361 16.3979 220.385 16.0798 219.138 16.0798H210.739V12.7932H219.738C221.361 12.7932 222.773 13.0877 223.972 13.6767C225.172 14.2421 226.101 15.0432 226.76 16.0798C227.442 17.0929 227.784 18.2827 227.784 19.6492C227.784 21.0157 227.442 22.2173 226.76 23.2539C226.101 24.2906 225.172 25.0916 223.972 25.6571C222.773 26.2225 221.373 26.5052 219.773 26.5052H207.634Z" fill="#0A0A0A"/>
<path d="M250.625 27C248.296 27 246.226 26.5641 244.415 25.6924C242.603 24.7971 241.18 23.5602 240.145 21.9817C239.11 20.4031 238.592 18.5654 238.592 16.4686C238.592 14.3953 239.074 12.5812 240.039 11.0262C241.027 9.44764 242.38 8.22251 244.097 7.35078C245.838 6.4555 247.826 6.00785 250.061 6.00785C252.296 6.00785 254.225 6.5144 255.848 7.52749C257.495 8.51702 258.765 9.91885 259.659 11.733C260.553 13.5471 261 15.6793 261 18.1296H242.192V14.6309H258.706L256.413 15.9385C256.342 14.6191 256.024 13.4882 255.46 12.5458C254.919 11.6034 254.178 10.8848 253.237 10.3901C252.319 9.87173 251.225 9.61257 249.955 9.61257C248.614 9.61257 247.438 9.88351 246.426 10.4254C245.438 10.9673 244.662 11.733 244.097 12.7225C243.532 13.6885 243.25 14.8429 243.25 16.1859C243.25 17.6702 243.579 18.9542 244.238 20.038C244.92 21.1217 245.873 21.9581 247.097 22.5471C248.343 23.1126 249.814 23.3953 251.508 23.3953C253.037 23.3953 254.601 23.1597 256.201 22.6885C257.801 22.1937 259.212 21.5105 260.435 20.6387V23.9607C259.212 24.9031 257.718 25.6453 255.954 26.1872C254.213 26.7291 252.437 27 250.625 27Z" fill="#0A0A0A"/>
</svg>
