<svg width="180" height="32" viewBox="0 0 180 32" fill="none" xmlns="http://www.w3.org/2000/svg">
<g clip-path="url(#clip0_4002_7244)">
<path d="M18.1661 7.00001V25H15.0221V8.36801L16.4621 9.80801H2.1821L3.6221 8.36801V25H0.454102V7.00001H18.1661Z" fill="black"/>
<path d="M29.2886 25.336C27.6406 25.336 26.1926 25.04 24.9446 24.448C23.7126 23.84 22.7446 23 22.0406 21.928C21.3526 20.856 21.0086 19.616 21.0086 18.208C21.0086 16.784 21.3526 15.544 22.0406 14.488C22.7446 13.416 23.7126 12.584 24.9446 11.992C26.1926 11.384 27.6406 11.08 29.2886 11.08C30.9366 11.08 32.3766 11.384 33.6086 11.992C34.8566 12.584 35.8246 13.416 36.5126 14.488C37.2166 15.544 37.5686 16.784 37.5686 18.208C37.5686 19.616 37.2166 20.856 36.5126 21.928C35.8246 23 34.8566 23.84 33.6086 24.448C32.3766 25.04 30.9366 25.336 29.2886 25.336ZM29.2886 22.888C30.3446 22.888 31.2486 22.696 32.0006 22.312C32.7686 21.928 33.3606 21.392 33.7766 20.704C34.1926 20 34.4006 19.168 34.4006 18.208C34.4006 17.248 34.1926 16.424 33.7766 15.736C33.3606 15.032 32.7686 14.488 32.0006 14.104C31.2486 13.72 30.3446 13.528 29.2886 13.528C28.2486 13.528 27.3446 13.72 26.5766 14.104C25.8086 14.488 25.2166 15.032 24.8006 15.736C24.3846 16.424 24.1766 17.248 24.1766 18.208C24.1766 19.168 24.3846 20 24.8006 20.704C25.2166 21.392 25.8086 21.928 26.5766 22.312C27.3446 22.696 28.2486 22.888 29.2886 22.888Z" fill="black"/>
<path d="M45.0275 20.8C43.1715 20.8 41.7555 20.296 40.7795 19.288C39.8035 18.264 39.3155 16.776 39.3155 14.824V11.416H42.4115V14.704C42.4115 17.104 43.5395 18.304 45.7955 18.304C46.7235 18.304 47.5955 18.088 48.4115 17.656C49.2435 17.224 50.0035 16.576 50.6915 15.712L50.8835 17.92C50.3235 18.832 49.5235 19.544 48.4835 20.056C47.4595 20.552 46.3075 20.8 45.0275 20.8ZM50.3075 25V11.416H53.4275V25H50.3075Z" fill="black"/>
<path d="M64.2842 25.336C62.7002 25.336 61.2922 25.04 60.0602 24.448C58.8282 23.84 57.8602 23 57.1562 21.928C56.4522 20.856 56.1002 19.608 56.1002 18.184C56.1002 16.776 56.4282 15.544 57.0842 14.488C57.7562 13.416 58.6762 12.584 59.8442 11.992C61.0282 11.384 62.3802 11.08 63.9002 11.08C65.4202 11.08 66.7322 11.424 67.8362 12.112C68.9562 12.784 69.8202 13.736 70.4282 14.968C71.0362 16.2 71.3402 17.648 71.3402 19.312H58.5482V16.936H69.7802L68.2202 17.824C68.1722 16.928 67.9562 16.16 67.5722 15.52C67.2042 14.88 66.7002 14.392 66.0602 14.056C65.4362 13.704 64.6922 13.528 63.8282 13.528C62.9162 13.528 62.1162 13.712 61.4282 14.08C60.7562 14.448 60.2282 14.968 59.8442 15.64C59.4602 16.296 59.2682 17.08 59.2682 17.992C59.2682 19 59.4922 19.872 59.9402 20.608C60.4042 21.344 61.0522 21.912 61.8842 22.312C62.7322 22.696 63.7322 22.888 64.8842 22.888C65.9242 22.888 66.9882 22.728 68.0762 22.408C69.1642 22.072 70.1242 21.608 70.9562 21.016V23.272C70.1242 23.912 69.1082 24.416 67.9082 24.784C66.7242 25.152 65.5162 25.336 64.2842 25.336Z" fill="black"/>
<path d="M74.0272 25V11.416H78.6592L84.3712 23.512H83.1472L88.8112 11.416H93.4432V25H90.5152V12.448H91.3312L85.2592 25H82.2112L76.1392 12.496L76.9552 12.472V25H74.0272Z" fill="black"/>
<path d="M100.146 29.296C99.3456 29.296 98.6176 29.192 97.9616 28.984C97.3216 28.792 96.7216 28.52 96.1616 28.168V25.792C96.7696 26.176 97.3456 26.456 97.8896 26.632C98.4496 26.808 99.0736 26.896 99.7616 26.896C100.418 26.896 101.002 26.744 101.514 26.44C102.026 26.152 102.45 25.64 102.786 24.904L108.906 11.416H112.218L105.186 25.96C104.802 26.76 104.346 27.4 103.818 27.88C103.306 28.376 102.738 28.736 102.114 28.96C101.506 29.184 100.85 29.296 100.146 29.296ZM101.706 24.568L95.4656 11.416H98.8976L104.802 24.568H101.706Z" fill="black"/>
<path d="M119.879 11.416H122.975V25H119.879V11.416ZM131.423 11.416H134.519V25H131.423V11.416ZM121.631 16.912H132.719V19.312H121.631V16.912Z" fill="black"/>
<path d="M150.625 25L150.097 19.96L150.721 18.208L150.097 16.48L150.625 11.416H153.841L153.121 18.208L153.841 25H150.625ZM151.585 18.208C151.281 19.632 150.777 20.88 150.073 21.952C149.369 23.024 148.497 23.856 147.457 24.448C146.433 25.04 145.289 25.336 144.025 25.336C142.697 25.336 141.521 25.04 140.497 24.448C139.473 23.84 138.673 23 138.097 21.928C137.521 20.856 137.233 19.616 137.233 18.208C137.233 16.784 137.521 15.544 138.097 14.488C138.673 13.416 139.473 12.584 140.497 11.992C141.521 11.384 142.697 11.08 144.025 11.08C145.289 11.08 146.433 11.376 147.457 11.968C148.497 12.56 149.369 13.392 150.073 14.464C150.793 15.52 151.297 16.768 151.585 18.208ZM140.401 18.208C140.401 19.12 140.585 19.928 140.953 20.632C141.337 21.32 141.857 21.864 142.513 22.264C143.169 22.648 143.921 22.84 144.769 22.84C145.633 22.84 146.433 22.648 147.169 22.264C147.905 21.864 148.553 21.32 149.113 20.632C149.689 19.928 150.145 19.12 150.481 18.208C150.145 17.296 149.689 16.496 149.113 15.808C148.553 15.104 147.905 14.56 147.169 14.176C146.433 13.776 145.633 13.576 144.769 13.576C143.921 13.576 143.169 13.776 142.513 14.176C141.857 14.56 141.337 15.104 140.953 15.808C140.585 16.496 140.401 17.296 140.401 18.208Z" fill="black"/>
<path d="M171.963 19.648C171.803 20.768 171.363 21.76 170.643 22.624C169.923 23.472 169.003 24.136 167.883 24.616C166.763 25.096 165.515 25.336 164.139 25.336C162.571 25.336 161.187 25.04 159.987 24.448C158.803 23.84 157.875 23 157.203 21.928C156.531 20.856 156.195 19.616 156.195 18.208C156.195 16.8 156.531 15.56 157.203 14.488C157.875 13.416 158.803 12.584 159.987 11.992C161.187 11.384 162.571 11.08 164.139 11.08C165.515 11.08 166.763 11.32 167.883 11.8C169.003 12.28 169.923 12.952 170.643 13.816C171.363 14.664 171.803 15.656 171.963 16.792H168.819C168.595 15.768 168.059 14.968 167.211 14.392C166.363 13.816 165.339 13.528 164.139 13.528C163.179 13.528 162.339 13.72 161.619 14.104C160.899 14.472 160.339 15.008 159.939 15.712C159.555 16.4 159.363 17.232 159.363 18.208C159.363 19.168 159.555 20 159.939 20.704C160.339 21.408 160.899 21.952 161.619 22.336C162.339 22.704 163.179 22.888 164.139 22.888C165.355 22.888 166.387 22.592 167.235 22C168.083 21.408 168.611 20.624 168.819 19.648H171.963Z" fill="black"/>
<path d="M180.61 25L181.306 18.208L180.61 11.416H190.45C191.762 11.416 192.786 11.72 193.522 12.328C194.274 12.936 194.65 13.776 194.65 14.848C194.65 15.84 194.274 16.64 193.522 17.248C192.786 17.84 191.754 18.192 190.426 18.304L190.666 17.728C192.234 17.76 193.434 18.08 194.266 18.688C195.098 19.296 195.514 20.152 195.514 21.256C195.514 22.424 195.09 23.344 194.242 24.016C193.41 24.672 192.25 25 190.762 25H180.61ZM183.634 24.232L182.434 22.84H189.97C190.818 22.84 191.426 22.68 191.794 22.36C192.178 22.024 192.37 21.56 192.37 20.968C192.37 20.44 192.154 20 191.722 19.648C191.306 19.296 190.602 19.12 189.61 19.12H183.106V17.104H189.154C189.97 17.104 190.562 16.944 190.93 16.624C191.314 16.288 191.506 15.856 191.506 15.328C191.506 14.816 191.338 14.4 191.002 14.08C190.682 13.744 190.138 13.576 189.37 13.576H182.458L183.634 12.208L184.306 18.208L183.634 24.232Z" fill="url(#paint0_linear_4002_7244)"/>
<path d="M213.415 11.416H216.535V25H213.415V11.416ZM198.151 25V11.416H201.271V24.136L200.167 22.696H205.975C206.823 22.696 207.487 22.488 207.967 22.072C208.447 21.64 208.687 21.056 208.687 20.32C208.687 19.568 208.447 18.984 207.967 18.568C207.487 18.136 206.823 17.92 205.975 17.92H200.263V15.688H206.383C207.487 15.688 208.447 15.888 209.263 16.288C210.079 16.672 210.711 17.216 211.159 17.92C211.623 18.608 211.855 19.416 211.855 20.344C211.855 21.272 211.623 22.088 211.159 22.792C210.711 23.496 210.079 24.04 209.263 24.424C208.447 24.808 207.495 25 206.407 25H198.151Z" fill="url(#paint1_linear_4002_7244)"/>
<path d="M228.038 25.336C226.23 25.336 224.678 24.984 223.382 24.28C222.102 23.56 221.118 22.528 220.43 21.184C219.758 19.84 219.422 18.224 219.422 16.336C219.422 13.52 220.158 11.296 221.63 9.66401C223.102 8.03201 225.206 7.10401 227.942 6.88001C229.046 6.78401 229.958 6.70401 230.678 6.64001C231.414 6.57601 232.014 6.51201 232.478 6.44801C232.942 6.36801 233.334 6.28801 233.654 6.20801C233.99 6.12801 234.31 6.03201 234.614 5.92001V8.58401C234.31 8.71201 233.902 8.83201 233.39 8.94401C232.878 9.04001 232.23 9.12001 231.446 9.18401C230.662 9.24801 229.702 9.31201 228.566 9.37601C226.422 9.48801 224.806 10.128 223.718 11.296C222.63 12.464 222.086 14.128 222.086 16.288V17.056L221.918 16.864C222.27 15.92 222.774 15.12 223.43 14.464C224.102 13.808 224.902 13.304 225.83 12.952C226.758 12.6 227.774 12.424 228.878 12.424C230.27 12.424 231.486 12.688 232.526 13.216C233.566 13.744 234.374 14.488 234.95 15.448C235.542 16.392 235.838 17.496 235.838 18.76C235.838 20.088 235.51 21.248 234.854 22.24C234.214 23.216 233.31 23.976 232.142 24.52C230.974 25.064 229.606 25.336 228.038 25.336ZM228.11 22.888C229.038 22.888 229.838 22.72 230.51 22.384C231.198 22.048 231.726 21.576 232.094 20.968C232.478 20.344 232.67 19.624 232.67 18.808C232.67 17.992 232.478 17.28 232.094 16.672C231.726 16.064 231.198 15.592 230.51 15.256C229.838 14.92 229.038 14.752 228.11 14.752C226.862 14.752 225.758 15.088 224.798 15.76C223.854 16.432 223.15 17.384 222.686 18.616C222.958 19.928 223.574 20.968 224.534 21.736C225.51 22.504 226.702 22.888 228.11 22.888Z" fill="url(#paint2_linear_4002_7244)"/>
<path d="M238.54 25V11.416H241.612V23.44L240.676 23.224L249.964 11.416H253.996V25H250.924V12.808L251.884 13.048L242.476 25H238.54Z" fill="url(#paint3_linear_4002_7244)"/>
<path d="M257.433 11.416H260.553V16.144L260.409 16.624V19.36L260.553 20.2V28.96H257.433V11.416ZM259.353 18.208C259.657 16.768 260.161 15.52 260.865 14.464C261.569 13.392 262.433 12.56 263.457 11.968C264.497 11.376 265.649 11.08 266.913 11.08C268.241 11.08 269.417 11.384 270.441 11.992C271.465 12.584 272.265 13.416 272.841 14.488C273.417 15.544 273.705 16.784 273.705 18.208C273.705 19.616 273.417 20.856 272.841 21.928C272.265 23 271.465 23.84 270.441 24.448C269.417 25.04 268.241 25.336 266.913 25.336C265.649 25.336 264.505 25.04 263.481 24.448C262.457 23.856 261.585 23.024 260.865 21.952C260.161 20.88 259.657 19.632 259.353 18.208ZM270.537 18.208C270.537 17.296 270.345 16.496 269.961 15.808C269.593 15.104 269.081 14.56 268.425 14.176C267.769 13.776 267.017 13.576 266.169 13.576C265.321 13.576 264.521 13.776 263.769 14.176C263.033 14.56 262.385 15.104 261.825 15.808C261.265 16.496 260.809 17.296 260.457 18.208C260.809 19.12 261.265 19.928 261.825 20.632C262.385 21.32 263.033 21.864 263.769 22.264C264.521 22.648 265.321 22.84 266.169 22.84C267.017 22.84 267.769 22.648 268.425 22.264C269.081 21.864 269.593 21.32 269.961 20.632C270.345 19.928 270.537 19.12 270.537 18.208Z" fill="url(#paint4_linear_4002_7244)"/>
<path d="M289.092 25L288.564 19.96L289.188 18.208L288.564 16.48L289.092 11.416H292.308L291.588 18.208L292.308 25H289.092ZM290.052 18.208C289.748 19.632 289.244 20.88 288.54 21.952C287.836 23.024 286.964 23.856 285.924 24.448C284.9 25.04 283.756 25.336 282.492 25.336C281.164 25.336 279.988 25.04 278.964 24.448C277.94 23.84 277.14 23 276.564 21.928C275.988 20.856 275.7 19.616 275.7 18.208C275.7 16.784 275.988 15.544 276.564 14.488C277.14 13.416 277.94 12.584 278.964 11.992C279.988 11.384 281.164 11.08 282.492 11.08C283.756 11.08 284.9 11.376 285.924 11.968C286.964 12.56 287.836 13.392 288.54 14.464C289.26 15.52 289.764 16.768 290.052 18.208ZM278.868 18.208C278.868 19.12 279.052 19.928 279.42 20.632C279.804 21.32 280.324 21.864 280.98 22.264C281.636 22.648 282.388 22.84 283.236 22.84C284.1 22.84 284.9 22.648 285.636 22.264C286.372 21.864 287.02 21.32 287.58 20.632C288.156 19.928 288.612 19.12 288.948 18.208C288.612 17.296 288.156 16.496 287.58 15.808C287.02 15.104 286.372 14.56 285.636 14.176C284.9 13.776 284.1 13.576 283.236 13.576C282.388 13.576 281.636 13.776 280.98 14.176C280.324 14.56 279.804 15.104 279.42 15.808C279.052 16.496 278.868 17.296 278.868 18.208Z" fill="url(#paint5_linear_4002_7244)"/>
<path d="M309.399 25.336C307.783 25.336 306.359 25.04 305.127 24.448C303.895 23.84 302.935 23 302.247 21.928C301.575 20.856 301.239 19.616 301.239 18.208C301.239 16.784 301.575 15.544 302.247 14.488C302.935 13.416 303.895 12.584 305.127 11.992C306.359 11.384 307.783 11.08 309.399 11.08C311.031 11.08 312.455 11.384 313.671 11.992C314.903 12.584 315.863 13.416 316.551 14.488C317.239 15.544 317.583 16.784 317.583 18.208C317.583 19.616 317.239 20.856 316.551 21.928C315.863 23 314.903 23.84 313.671 24.448C312.455 25.04 311.031 25.336 309.399 25.336ZM295.431 25V11.416H298.551V25H295.431ZM297.159 19.312V16.912H303.159V19.312H297.159ZM309.399 22.888C310.439 22.888 311.327 22.696 312.063 22.312C312.815 21.928 313.391 21.384 313.791 20.68C314.207 19.976 314.415 19.152 314.415 18.208C314.415 17.248 314.207 16.424 313.791 15.736C313.391 15.032 312.815 14.488 312.063 14.104C311.327 13.72 310.439 13.528 309.399 13.528C308.375 13.528 307.487 13.72 306.735 14.104C305.983 14.488 305.399 15.032 304.983 15.736C304.583 16.424 304.383 17.248 304.383 18.208C304.383 19.152 304.583 19.976 304.983 20.68C305.399 21.384 305.983 21.928 306.735 22.312C307.487 22.696 308.375 22.888 309.399 22.888Z" fill="url(#paint6_linear_4002_7244)"/>
<path d="M323.964 12.496H327.084V25H323.964V12.496ZM318.324 11.416H332.724V13.864H318.324V11.416Z" fill="url(#paint7_linear_4002_7244)"/>
<path d="M339.978 18.712C339.978 17.96 340.178 17.328 340.578 16.816C340.978 16.288 341.602 15.8 342.45 15.352L344.274 14.368C344.77 14.096 345.17 13.776 345.474 13.408C345.778 13.024 345.93 12.608 345.93 12.16C345.93 11.264 345.562 10.552 344.826 10.024C344.106 9.49601 343.106 9.23201 341.826 9.23201C340.562 9.23201 339.53 9.52801 338.73 10.12C337.93 10.696 337.466 11.496 337.338 12.52H334.314C334.458 10.68 335.186 9.24801 336.498 8.22401C337.826 7.18401 339.602 6.66401 341.826 6.66401C344.066 6.66401 345.81 7.13601 347.058 8.08001C348.322 9.02401 348.954 10.328 348.954 11.992C348.954 12.792 348.714 13.544 348.234 14.248C347.754 14.952 347.058 15.544 346.146 16.024L344.202 17.056C343.738 17.312 343.378 17.584 343.122 17.872C342.882 18.144 342.762 18.496 342.762 18.928V19.696H340.098C340.05 19.52 340.018 19.352 340.002 19.192C339.986 19.032 339.978 18.872 339.978 18.712ZM341.37 25.192C340.81 25.192 340.346 25.024 339.978 24.688C339.61 24.336 339.426 23.888 339.426 23.344C339.426 22.8 339.61 22.36 339.978 22.024C340.346 21.672 340.81 21.496 341.37 21.496C341.946 21.496 342.41 21.672 342.762 22.024C343.13 22.36 343.314 22.8 343.314 23.344C343.314 23.888 343.13 24.336 342.762 24.688C342.41 25.024 341.946 25.192 341.37 25.192Z" fill="url(#paint8_linear_4002_7244)"/>
</g>
<defs>
<linearGradient id="paint0_linear_4002_7244" x1="-146" y1="16" x2="494" y2="16" gradientUnits="userSpaceOnUse">
<stop offset="0.0288462" stop-color="#6187EC"/>
<stop offset="0.903846" stop-color="#FF4043"/>
<stop offset="1" stop-color="#FF00C8"/>
</linearGradient>
<linearGradient id="paint1_linear_4002_7244" x1="-146" y1="16" x2="494" y2="16" gradientUnits="userSpaceOnUse">
<stop offset="0.0288462" stop-color="#6187EC"/>
<stop offset="0.903846" stop-color="#FF4043"/>
<stop offset="1" stop-color="#FF00C8"/>
</linearGradient>
<linearGradient id="paint2_linear_4002_7244" x1="-146" y1="16" x2="494" y2="16" gradientUnits="userSpaceOnUse">
<stop offset="0.0288462" stop-color="#6187EC"/>
<stop offset="0.903846" stop-color="#FF4043"/>
<stop offset="1" stop-color="#FF00C8"/>
</linearGradient>
<linearGradient id="paint3_linear_4002_7244" x1="-146" y1="16" x2="494" y2="16" gradientUnits="userSpaceOnUse">
<stop offset="0.0288462" stop-color="#6187EC"/>
<stop offset="0.903846" stop-color="#FF4043"/>
<stop offset="1" stop-color="#FF00C8"/>
</linearGradient>
<linearGradient id="paint4_linear_4002_7244" x1="-146" y1="16" x2="494" y2="16" gradientUnits="userSpaceOnUse">
<stop offset="0.0288462" stop-color="#6187EC"/>
<stop offset="0.903846" stop-color="#FF4043"/>
<stop offset="1" stop-color="#FF00C8"/>
</linearGradient>
<linearGradient id="paint5_linear_4002_7244" x1="-146" y1="16" x2="494" y2="16" gradientUnits="userSpaceOnUse">
<stop offset="0.0288462" stop-color="#6187EC"/>
<stop offset="0.903846" stop-color="#FF4043"/>
<stop offset="1" stop-color="#FF00C8"/>
</linearGradient>
<linearGradient id="paint6_linear_4002_7244" x1="-146" y1="16" x2="494" y2="16" gradientUnits="userSpaceOnUse">
<stop offset="0.0288462" stop-color="#6187EC"/>
<stop offset="0.903846" stop-color="#FF4043"/>
<stop offset="1" stop-color="#FF00C8"/>
</linearGradient>
<linearGradient id="paint7_linear_4002_7244" x1="-146" y1="16" x2="494" y2="16" gradientUnits="userSpaceOnUse">
<stop offset="0.0288462" stop-color="#6187EC"/>
<stop offset="0.903846" stop-color="#FF4043"/>
<stop offset="1" stop-color="#FF00C8"/>
</linearGradient>
<linearGradient id="paint8_linear_4002_7244" x1="-146" y1="16" x2="494" y2="16" gradientUnits="userSpaceOnUse">
<stop stop-color="#6187EC"/>
<stop offset="0.484033" stop-color="#FF4043"/>
<stop offset="1" stop-color="#FF00C8"/>
</linearGradient>
<clipPath id="clip0_4002_7244">
<rect width="180" height="32" fill="white"/>
</clipPath>
</defs>
</svg>
