<svg width="189" height="17" viewBox="0 0 189 17" fill="none" xmlns="http://www.w3.org/2000/svg">
<g clip-path="url(#clip0_4002_7267)">
<path d="M9.73565 0.500002V2.606H1.58164L2.66164 1.526V14H0.285645V0.500002H9.73565Z" fill="url(#paint0_linear_4002_7267)"/>
<path d="M13.8959 14.252C12.6599 14.252 11.5739 14.03 10.6379 13.586C9.71389 13.13 8.98789 12.5 8.45989 11.696C7.94389 10.892 7.68589 9.962 7.68589 8.906C7.68589 7.838 7.94389 6.908 8.45989 6.116C8.98789 5.312 9.71389 4.688 10.6379 4.244C11.5739 3.788 12.6599 3.56 13.8959 3.56C15.1319 3.56 16.2119 3.788 17.1359 4.244C18.0719 4.688 18.7979 5.312 19.3139 6.116C19.8419 6.908 20.1059 7.838 20.1059 8.906C20.1059 9.962 19.8419 10.892 19.3139 11.696C18.7979 12.5 18.0719 13.13 17.1359 13.586C16.2119 14.03 15.1319 14.252 13.8959 14.252ZM13.8959 12.416C14.6879 12.416 15.3659 12.272 15.9299 11.984C16.5059 11.696 16.9499 11.294 17.2619 10.778C17.5739 10.25 17.7299 9.626 17.7299 8.906C17.7299 8.186 17.5739 7.568 17.2619 7.052C16.9499 6.524 16.5059 6.116 15.9299 5.828C15.3659 5.54 14.6879 5.396 13.8959 5.396C13.1159 5.396 12.4379 5.54 11.8619 5.828C11.2859 6.116 10.8419 6.524 10.5299 7.052C10.2179 7.568 10.0619 8.186 10.0619 8.906C10.0619 9.626 10.2179 10.25 10.5299 10.778C10.8419 11.294 11.2859 11.696 11.8619 11.984C12.4379 12.272 13.1159 12.416 13.8959 12.416Z" fill="url(#paint1_linear_4002_7267)"/>
<path d="M24.8805 4.622H27.2205V14H24.8805V4.622ZM20.6505 3.812H31.4505V5.648H20.6505V3.812Z" fill="url(#paint2_linear_4002_7267)"/>
<path d="M38.2107 14.252C36.9747 14.252 35.8887 14.03 34.9527 13.586C34.0287 13.13 33.3027 12.5 32.7747 11.696C32.2587 10.892 32.0007 9.962 32.0007 8.906C32.0007 7.838 32.2587 6.908 32.7747 6.116C33.3027 5.312 34.0287 4.688 34.9527 4.244C35.8887 3.788 36.9747 3.56 38.2107 3.56C39.4467 3.56 40.5267 3.788 41.4507 4.244C42.3867 4.688 43.1127 5.312 43.6287 6.116C44.1567 6.908 44.4207 7.838 44.4207 8.906C44.4207 9.962 44.1567 10.892 43.6287 11.696C43.1127 12.5 42.3867 13.13 41.4507 13.586C40.5267 14.03 39.4467 14.252 38.2107 14.252ZM38.2107 12.416C39.0027 12.416 39.6807 12.272 40.2447 11.984C40.8207 11.696 41.2647 11.294 41.5767 10.778C41.8887 10.25 42.0447 9.626 42.0447 8.906C42.0447 8.186 41.8887 7.568 41.5767 7.052C41.2647 6.524 40.8207 6.116 40.2447 5.828C39.6807 5.54 39.0027 5.396 38.2107 5.396C37.4307 5.396 36.7527 5.54 36.1767 5.828C35.6007 6.116 35.1567 6.524 34.8447 7.052C34.5327 7.568 34.3767 8.186 34.3767 8.906C34.3767 9.626 34.5327 10.25 34.8447 10.778C35.1567 11.294 35.6007 11.696 36.1767 11.984C36.7527 12.272 37.4307 12.416 38.2107 12.416Z" fill="url(#paint3_linear_4002_7267)"/>
<path d="M46.1788 14L46.7008 8.906L46.1788 3.812H53.5588C54.5428 3.812 55.3108 4.04 55.8628 4.496C56.4268 4.952 56.7088 5.582 56.7088 6.386C56.7088 7.13 56.4268 7.73 55.8628 8.186C55.3108 8.63 54.5368 8.894 53.5408 8.978L53.7208 8.546C54.8968 8.57 55.7968 8.81 56.4208 9.266C57.0448 9.722 57.3568 10.364 57.3568 11.192C57.3568 12.068 57.0388 12.758 56.4028 13.262C55.7788 13.754 54.9088 14 53.7928 14H46.1788ZM48.4468 13.424L47.5468 12.38H53.1988C53.8348 12.38 54.2908 12.26 54.5668 12.02C54.8548 11.768 54.9988 11.42 54.9988 10.976C54.9988 10.58 54.8368 10.25 54.5128 9.986C54.2008 9.722 53.6728 9.59 52.9288 9.59H48.0508V8.078H52.5868C53.1988 8.078 53.6428 7.958 53.9188 7.718C54.2068 7.466 54.3508 7.142 54.3508 6.746C54.3508 6.362 54.2248 6.05 53.9728 5.81C53.7328 5.558 53.3248 5.432 52.7488 5.432H47.5648L48.4468 4.406L48.9508 8.906L48.4468 13.424Z" fill="url(#paint4_linear_4002_7267)"/>
<path d="M70.7828 3.812H73.1228V14H70.7828V3.812ZM59.3348 14V3.812H61.6748V13.352L60.8468 12.272H65.2028C65.8388 12.272 66.3368 12.116 66.6968 11.804C67.0568 11.48 67.2368 11.042 67.2368 10.49C67.2368 9.926 67.0568 9.488 66.6968 9.176C66.3368 8.852 65.8388 8.69 65.2028 8.69H60.9188V7.016H65.5088C66.3368 7.016 67.0568 7.166 67.6688 7.466C68.2808 7.754 68.7548 8.162 69.0908 8.69C69.4388 9.206 69.6128 9.812 69.6128 10.508C69.6128 11.204 69.4388 11.816 69.0908 12.344C68.7548 12.872 68.2808 13.28 67.6688 13.568C67.0568 13.856 66.3428 14 65.5268 14H59.3348Z" fill="url(#paint5_linear_4002_7267)"/>
<path d="M86.1898 14.252C84.9538 14.252 83.8678 14.03 82.9318 13.586C82.0078 13.13 81.2818 12.5 80.7538 11.696C80.2378 10.892 79.9798 9.962 79.9798 8.906C79.9798 7.838 80.2378 6.908 80.7538 6.116C81.2818 5.312 82.0078 4.688 82.9318 4.244C83.8678 3.788 84.9538 3.56 86.1898 3.56C87.4258 3.56 88.5058 3.788 89.4298 4.244C90.3658 4.688 91.0918 5.312 91.6078 6.116C92.1358 6.908 92.3998 7.838 92.3998 8.906C92.3998 9.962 92.1358 10.892 91.6078 11.696C91.0918 12.5 90.3658 13.13 89.4298 13.586C88.5058 14.03 87.4258 14.252 86.1898 14.252ZM86.1898 12.416C86.9818 12.416 87.6598 12.272 88.2238 11.984C88.7998 11.696 89.2438 11.294 89.5558 10.778C89.8678 10.25 90.0238 9.626 90.0238 8.906C90.0238 8.186 89.8678 7.568 89.5558 7.052C89.2438 6.524 88.7998 6.116 88.2238 5.828C87.6598 5.54 86.9818 5.396 86.1898 5.396C85.4098 5.396 84.7318 5.54 84.1558 5.828C83.5798 6.116 83.1358 6.524 82.8238 7.052C82.5118 7.568 82.3558 8.186 82.3558 8.906C82.3558 9.626 82.5118 10.25 82.8238 10.778C83.1358 11.294 83.5798 11.696 84.1558 11.984C84.7318 12.272 85.4098 12.416 86.1898 12.416Z" fill="url(#paint6_linear_4002_7267)"/>
<path d="M100.44 14.252C99.0839 14.252 97.9199 13.988 96.9479 13.46C95.9879 12.92 95.2499 12.146 94.7339 11.138C94.2299 10.13 93.9779 8.918 93.9779 7.502C93.9779 5.39 94.5299 3.722 95.6339 2.498C96.7379 1.274 98.3159 0.578002 100.368 0.410002C101.196 0.338002 101.88 0.278002 102.42 0.230002C102.972 0.182002 103.422 0.134002 103.77 0.0860016C104.118 0.0260017 104.412 -0.0339983 104.652 -0.0939982C104.904 -0.153998 105.144 -0.225998 105.372 -0.309998V1.688C105.144 1.784 104.838 1.874 104.454 1.958C104.07 2.03 103.584 2.09 102.996 2.138C102.408 2.186 101.688 2.234 100.836 2.282C99.2279 2.366 98.0159 2.846 97.1999 3.722C96.3839 4.598 95.9759 5.846 95.9759 7.466V8.042L95.8499 7.898C96.1139 7.19 96.4919 6.59 96.9839 6.098C97.4879 5.606 98.0879 5.228 98.7839 4.964C99.4799 4.7 100.242 4.568 101.07 4.568C102.114 4.568 103.026 4.766 103.806 5.162C104.586 5.558 105.192 6.116 105.624 6.836C106.068 7.544 106.29 8.372 106.29 9.32C106.29 10.316 106.044 11.186 105.552 11.93C105.072 12.662 104.394 13.232 103.518 13.64C102.642 14.048 101.616 14.252 100.44 14.252ZM100.494 12.416C101.19 12.416 101.79 12.29 102.294 12.038C102.81 11.786 103.206 11.432 103.482 10.976C103.77 10.508 103.914 9.968 103.914 9.356C103.914 8.744 103.77 8.21 103.482 7.754C103.206 7.298 102.81 6.944 102.294 6.692C101.79 6.44 101.19 6.314 100.494 6.314C99.5579 6.314 98.7299 6.566 98.0099 7.07C97.3019 7.574 96.7739 8.288 96.4259 9.212C96.6299 10.196 97.0919 10.976 97.8119 11.552C98.5439 12.128 99.4379 12.416 100.494 12.416Z" fill="url(#paint7_linear_4002_7267)"/>
<path d="M119.566 9.986C119.446 10.826 119.116 11.57 118.576 12.218C118.036 12.854 117.346 13.352 116.506 13.712C115.666 14.072 114.73 14.252 113.698 14.252C112.522 14.252 111.484 14.03 110.584 13.586C109.696 13.13 109 12.5 108.496 11.696C107.992 10.892 107.74 9.962 107.74 8.906C107.74 7.85 107.992 6.92 108.496 6.116C109 5.312 109.696 4.688 110.584 4.244C111.484 3.788 112.522 3.56 113.698 3.56C114.73 3.56 115.666 3.74 116.506 4.1C117.346 4.46 118.036 4.964 118.576 5.612C119.116 6.248 119.446 6.992 119.566 7.844H117.208C117.04 7.076 116.638 6.476 116.002 6.044C115.366 5.612 114.598 5.396 113.698 5.396C112.978 5.396 112.348 5.54 111.808 5.828C111.268 6.104 110.848 6.506 110.548 7.034C110.26 7.55 110.116 8.174 110.116 8.906C110.116 9.626 110.26 10.25 110.548 10.778C110.848 11.306 111.268 11.714 111.808 12.002C112.348 12.278 112.978 12.416 113.698 12.416C114.61 12.416 115.384 12.194 116.02 11.75C116.656 11.306 117.052 10.718 117.208 9.986H119.566Z" fill="url(#paint8_linear_4002_7267)"/>
<path d="M123.405 17.222C122.805 17.222 122.259 17.144 121.767 16.988C121.287 16.844 120.837 16.64 120.417 16.376V14.594C120.873 14.882 121.305 15.092 121.713 15.224C122.133 15.356 122.601 15.422 123.117 15.422C123.609 15.422 124.047 15.308 124.431 15.08C124.815 14.864 125.133 14.48 125.385 13.928L129.975 3.812H132.459L127.185 14.72C126.897 15.32 126.555 15.8 126.159 16.16C125.775 16.532 125.349 16.802 124.881 16.97C124.425 17.138 123.933 17.222 123.405 17.222ZM124.575 13.676L119.895 3.812H122.469L126.897 13.676H124.575Z" fill="url(#paint9_linear_4002_7267)"/>
<path d="M146.247 12.2V16.574H144.213V14H134.025V16.574H131.991V12.2H134.619L135.267 12.236H142.701L143.277 12.2H146.247ZM134.259 3.812H144.357V13.316H142.017V4.532L143.097 5.612H135.483L136.491 4.82C136.551 5.348 136.587 5.858 136.599 6.35C136.623 6.83 136.635 7.28 136.635 7.7C136.635 9.452 136.395 10.826 135.915 11.822C135.447 12.818 134.787 13.316 133.935 13.316L132.981 12.506C133.965 11.786 134.457 10.034 134.457 7.25C134.457 6.71 134.439 6.152 134.403 5.576C134.367 4.988 134.319 4.4 134.259 3.812Z" fill="url(#paint10_linear_4002_7267)"/>
<path d="M148.031 14V3.812H150.335V12.83L149.633 12.668L156.599 3.812H159.623V14H157.319V4.856L158.039 5.036L150.983 14H148.031Z" fill="url(#paint11_linear_4002_7267)"/>
<path d="M165.423 4.622H167.763V14H165.423V4.622ZM161.193 3.812H171.993V5.648H161.193V3.812Z" fill="url(#paint12_linear_4002_7267)"/>
<path d="M173.559 14V3.812H175.899V13.352L175.071 12.272H179.427C180.063 12.272 180.561 12.116 180.921 11.804C181.281 11.48 181.461 11.042 181.461 10.49C181.461 9.926 181.281 9.488 180.921 9.176C180.561 8.852 180.063 8.69 179.427 8.69H175.143V7.016H179.733C180.561 7.016 181.281 7.166 181.893 7.466C182.505 7.754 182.979 8.162 183.315 8.69C183.663 9.206 183.837 9.812 183.837 10.508C183.837 11.204 183.663 11.816 183.315 12.344C182.979 12.872 182.505 13.28 181.893 13.568C181.281 13.856 180.567 14 179.751 14H173.559Z" fill="url(#paint13_linear_4002_7267)"/>
<path d="M189.694 14L190.216 8.906L189.694 3.812H197.074C198.058 3.812 198.826 4.04 199.378 4.496C199.942 4.952 200.224 5.582 200.224 6.386C200.224 7.13 199.942 7.73 199.378 8.186C198.826 8.63 198.052 8.894 197.056 8.978L197.236 8.546C198.412 8.57 199.312 8.81 199.936 9.266C200.56 9.722 200.872 10.364 200.872 11.192C200.872 12.068 200.554 12.758 199.918 13.262C199.294 13.754 198.424 14 197.308 14H189.694ZM191.962 13.424L191.062 12.38H196.714C197.35 12.38 197.806 12.26 198.082 12.02C198.37 11.768 198.514 11.42 198.514 10.976C198.514 10.58 198.352 10.25 198.028 9.986C197.716 9.722 197.188 9.59 196.444 9.59H191.566V8.078H196.102C196.714 8.078 197.158 7.958 197.434 7.718C197.722 7.466 197.866 7.142 197.866 6.746C197.866 6.362 197.74 6.05 197.488 5.81C197.248 5.558 196.84 5.432 196.264 5.432H191.08L191.962 4.406L192.466 8.906L191.962 13.424Z" fill="url(#paint14_linear_4002_7267)"/>
<path d="M212.354 14L211.958 10.22L212.426 8.906L211.958 7.61L212.354 3.812H214.766L214.226 8.906L214.766 14H212.354ZM213.074 8.906C212.846 9.974 212.468 10.91 211.94 11.714C211.412 12.518 210.758 13.142 209.978 13.586C209.21 14.03 208.352 14.252 207.404 14.252C206.408 14.252 205.526 14.03 204.758 13.586C203.99 13.13 203.39 12.5 202.958 11.696C202.526 10.892 202.31 9.962 202.31 8.906C202.31 7.838 202.526 6.908 202.958 6.116C203.39 5.312 203.99 4.688 204.758 4.244C205.526 3.788 206.408 3.56 207.404 3.56C208.352 3.56 209.21 3.782 209.978 4.226C210.758 4.67 211.412 5.294 211.94 6.098C212.48 6.89 212.858 7.826 213.074 8.906ZM204.686 8.906C204.686 9.59 204.824 10.196 205.1 10.724C205.388 11.24 205.778 11.648 206.27 11.948C206.762 12.236 207.326 12.38 207.962 12.38C208.61 12.38 209.21 12.236 209.762 11.948C210.314 11.648 210.8 11.24 211.22 10.724C211.652 10.196 211.994 9.59 212.246 8.906C211.994 8.222 211.652 7.622 211.22 7.106C210.8 6.578 210.314 6.17 209.762 5.882C209.21 5.582 208.61 5.432 207.962 5.432C207.326 5.432 206.762 5.582 206.27 5.882C205.778 6.17 205.388 6.578 205.1 7.106C204.824 7.622 204.686 8.222 204.686 8.906Z" fill="url(#paint15_linear_4002_7267)"/>
<path d="M217.108 14V3.812H219.448V12.902L218.728 12.2H225.208L224.812 12.902V3.812H227.152V12.902L226.576 12.2H233.236L232.516 12.902V3.812H234.856V14H217.108Z" fill="url(#paint16_linear_4002_7267)"/>
<path d="M253.192 3.812V14H250.852V4.55L251.932 5.612H243.544L244.624 4.55V14H242.284V3.812H253.192Z" fill="url(#paint17_linear_4002_7267)"/>
<path d="M255.769 3.812H258.109V7.358L258.001 7.718V9.77L258.109 10.4V16.97H255.769V3.812ZM257.209 8.906C257.437 7.826 257.815 6.89 258.343 6.098C258.871 5.294 259.519 4.67 260.287 4.226C261.067 3.782 261.931 3.56 262.879 3.56C263.875 3.56 264.757 3.788 265.525 4.244C266.293 4.688 266.893 5.312 267.325 6.116C267.757 6.908 267.973 7.838 267.973 8.906C267.973 9.962 267.757 10.892 267.325 11.696C266.893 12.5 266.293 13.13 265.525 13.586C264.757 14.03 263.875 14.252 262.879 14.252C261.931 14.252 261.073 14.03 260.305 13.586C259.537 13.142 258.883 12.518 258.343 11.714C257.815 10.91 257.437 9.974 257.209 8.906ZM265.597 8.906C265.597 8.222 265.453 7.622 265.165 7.106C264.889 6.578 264.505 6.17 264.013 5.882C263.521 5.582 262.957 5.432 262.321 5.432C261.685 5.432 261.085 5.582 260.521 5.882C259.969 6.17 259.483 6.578 259.063 7.106C258.643 7.622 258.301 8.222 258.037 8.906C258.301 9.59 258.643 10.196 259.063 10.724C259.483 11.24 259.969 11.648 260.521 11.948C261.085 12.236 261.685 12.38 262.321 12.38C262.957 12.38 263.521 12.236 264.013 11.948C264.505 11.648 264.889 11.24 265.165 10.724C265.453 10.196 265.597 9.59 265.597 8.906Z" fill="url(#paint18_linear_4002_7267)"/>
<path d="M275.643 14.252C274.407 14.252 273.321 14.03 272.385 13.586C271.461 13.13 270.735 12.5 270.207 11.696C269.691 10.892 269.433 9.962 269.433 8.906C269.433 7.838 269.691 6.908 270.207 6.116C270.735 5.312 271.461 4.688 272.385 4.244C273.321 3.788 274.407 3.56 275.643 3.56C276.879 3.56 277.959 3.788 278.883 4.244C279.819 4.688 280.545 5.312 281.061 6.116C281.589 6.908 281.853 7.838 281.853 8.906C281.853 9.962 281.589 10.892 281.061 11.696C280.545 12.5 279.819 13.13 278.883 13.586C277.959 14.03 276.879 14.252 275.643 14.252ZM275.643 12.416C276.435 12.416 277.113 12.272 277.677 11.984C278.253 11.696 278.697 11.294 279.009 10.778C279.321 10.25 279.477 9.626 279.477 8.906C279.477 8.186 279.321 7.568 279.009 7.052C278.697 6.524 278.253 6.116 277.677 5.828C277.113 5.54 276.435 5.396 275.643 5.396C274.863 5.396 274.185 5.54 273.609 5.828C273.033 6.116 272.589 6.524 272.277 7.052C271.965 7.568 271.809 8.186 271.809 8.906C271.809 9.626 271.965 10.25 272.277 10.778C272.589 11.294 273.033 11.696 273.609 11.984C274.185 12.272 274.863 12.416 275.643 12.416Z" fill="url(#paint19_linear_4002_7267)"/>
<path d="M289.407 14.252C288.219 14.252 287.163 14.03 286.239 13.586C285.315 13.13 284.589 12.5 284.061 11.696C283.533 10.892 283.269 9.956 283.269 8.888C283.269 7.832 283.515 6.908 284.007 6.116C284.511 5.312 285.201 4.688 286.077 4.244C286.965 3.788 287.979 3.56 289.119 3.56C290.259 3.56 291.243 3.818 292.071 4.334C292.911 4.838 293.559 5.552 294.015 6.476C294.471 7.4 294.699 8.486 294.699 9.734H285.105V7.952H293.529L292.359 8.618C292.323 7.946 292.161 7.37 291.873 6.89C291.597 6.41 291.219 6.044 290.739 5.792C290.271 5.528 289.713 5.396 289.065 5.396C288.381 5.396 287.781 5.534 287.265 5.81C286.761 6.086 286.365 6.476 286.077 6.98C285.789 7.472 285.645 8.06 285.645 8.744C285.645 9.5 285.813 10.154 286.149 10.706C286.497 11.258 286.983 11.684 287.607 11.984C288.243 12.272 288.993 12.416 289.857 12.416C290.637 12.416 291.435 12.296 292.251 12.056C293.067 11.804 293.787 11.456 294.411 11.012V12.704C293.787 13.184 293.025 13.562 292.125 13.838C291.237 14.114 290.331 14.252 289.407 14.252Z" fill="url(#paint20_linear_4002_7267)"/>
<path d="M296.715 14V3.812H299.055V12.02L298.353 11.768L304.851 3.812H307.515L298.875 14H296.715ZM305.103 14L301.935 8.96L303.573 7.484L307.839 14H305.103Z" fill="url(#paint21_linear_4002_7267)"/>
<path d="M312.314 4.622H314.654V14H312.314V4.622ZM308.084 3.812H318.884V5.648H308.084V3.812Z" fill="url(#paint22_linear_4002_7267)"/>
<path d="M324.324 9.284C324.324 8.72 324.474 8.246 324.774 7.862C325.074 7.466 325.542 7.1 326.178 6.764L327.546 6.026C327.918 5.822 328.218 5.582 328.446 5.306C328.674 5.018 328.788 4.706 328.788 4.37C328.788 3.698 328.512 3.164 327.96 2.768C327.42 2.372 326.67 2.174 325.71 2.174C324.762 2.174 323.988 2.396 323.388 2.84C322.788 3.272 322.44 3.872 322.344 4.64H320.076C320.184 3.26 320.73 2.186 321.714 1.418C322.71 0.638002 324.042 0.248002 325.71 0.248002C327.39 0.248002 328.698 0.602002 329.634 1.31C330.582 2.018 331.056 2.996 331.056 4.244C331.056 4.844 330.876 5.408 330.516 5.936C330.156 6.464 329.634 6.908 328.95 7.268L327.492 8.042C327.144 8.234 326.874 8.438 326.682 8.654C326.502 8.858 326.412 9.122 326.412 9.446V10.022H324.414C324.378 9.89 324.354 9.764 324.342 9.644C324.33 9.524 324.324 9.404 324.324 9.284ZM325.368 14.144C324.948 14.144 324.6 14.018 324.324 13.766C324.048 13.502 323.91 13.166 323.91 12.758C323.91 12.35 324.048 12.02 324.324 11.768C324.6 11.504 324.948 11.372 325.368 11.372C325.8 11.372 326.148 11.504 326.412 11.768C326.688 12.02 326.826 12.35 326.826 12.758C326.826 13.166 326.688 13.502 326.412 13.766C326.148 14.018 325.8 14.144 325.368 14.144Z" fill="url(#paint23_linear_4002_7267)"/>
</g>
<defs>
<linearGradient id="paint0_linear_4002_7267" x1="0.285645" y1="8.456" x2="211.601" y2="8.456" gradientUnits="userSpaceOnUse">
<stop stop-color="#6187EC"/>
<stop offset="0.0001" stop-color="#FF4043"/>
<stop offset="1" stop-color="#FF00C8"/>
</linearGradient>
<linearGradient id="paint1_linear_4002_7267" x1="0.285645" y1="8.456" x2="211.601" y2="8.456" gradientUnits="userSpaceOnUse">
<stop stop-color="#6187EC"/>
<stop offset="0.0001" stop-color="#FF4043"/>
<stop offset="1" stop-color="#FF00C8"/>
</linearGradient>
<linearGradient id="paint2_linear_4002_7267" x1="0.285645" y1="8.456" x2="211.601" y2="8.456" gradientUnits="userSpaceOnUse">
<stop stop-color="#6187EC"/>
<stop offset="0.0001" stop-color="#FF4043"/>
<stop offset="1" stop-color="#FF00C8"/>
</linearGradient>
<linearGradient id="paint3_linear_4002_7267" x1="0.285645" y1="8.456" x2="211.601" y2="8.456" gradientUnits="userSpaceOnUse">
<stop stop-color="#6187EC"/>
<stop offset="0.0001" stop-color="#FF4043"/>
<stop offset="1" stop-color="#FF00C8"/>
</linearGradient>
<linearGradient id="paint4_linear_4002_7267" x1="0.285645" y1="8.456" x2="211.601" y2="8.456" gradientUnits="userSpaceOnUse">
<stop stop-color="#6187EC"/>
<stop offset="0.0001" stop-color="#FF4043"/>
<stop offset="1" stop-color="#FF00C8"/>
</linearGradient>
<linearGradient id="paint5_linear_4002_7267" x1="0.285645" y1="8.456" x2="211.601" y2="8.456" gradientUnits="userSpaceOnUse">
<stop stop-color="#6187EC"/>
<stop offset="0.0001" stop-color="#FF4043"/>
<stop offset="1" stop-color="#FF00C8"/>
</linearGradient>
<linearGradient id="paint6_linear_4002_7267" x1="0.285645" y1="8.456" x2="211.601" y2="8.456" gradientUnits="userSpaceOnUse">
<stop stop-color="#6187EC"/>
<stop offset="0.0001" stop-color="#FF4043"/>
<stop offset="1" stop-color="#FF00C8"/>
</linearGradient>
<linearGradient id="paint7_linear_4002_7267" x1="0.285645" y1="8.456" x2="211.601" y2="8.456" gradientUnits="userSpaceOnUse">
<stop stop-color="#6187EC"/>
<stop offset="0.0001" stop-color="#FF4043"/>
<stop offset="1" stop-color="#FF00C8"/>
</linearGradient>
<linearGradient id="paint8_linear_4002_7267" x1="0.285645" y1="8.456" x2="211.601" y2="8.456" gradientUnits="userSpaceOnUse">
<stop stop-color="#6187EC"/>
<stop offset="0.0001" stop-color="#FF4043"/>
<stop offset="1" stop-color="#FF00C8"/>
</linearGradient>
<linearGradient id="paint9_linear_4002_7267" x1="0.285645" y1="8.456" x2="211.601" y2="8.456" gradientUnits="userSpaceOnUse">
<stop stop-color="#6187EC"/>
<stop offset="0.0001" stop-color="#FF4043"/>
<stop offset="1" stop-color="#FF00C8"/>
</linearGradient>
<linearGradient id="paint10_linear_4002_7267" x1="0.285645" y1="8.456" x2="211.601" y2="8.456" gradientUnits="userSpaceOnUse">
<stop stop-color="#6187EC"/>
<stop offset="0.0001" stop-color="#FF4043"/>
<stop offset="1" stop-color="#FF00C8"/>
</linearGradient>
<linearGradient id="paint11_linear_4002_7267" x1="0.285645" y1="8.456" x2="211.601" y2="8.456" gradientUnits="userSpaceOnUse">
<stop stop-color="#6187EC"/>
<stop offset="0.0001" stop-color="#FF4043"/>
<stop offset="1" stop-color="#FF00C8"/>
</linearGradient>
<linearGradient id="paint12_linear_4002_7267" x1="0.285645" y1="8.456" x2="211.601" y2="8.456" gradientUnits="userSpaceOnUse">
<stop stop-color="#6187EC"/>
<stop offset="0.0001" stop-color="#FF4043"/>
<stop offset="1" stop-color="#FF00C8"/>
</linearGradient>
<linearGradient id="paint13_linear_4002_7267" x1="0.285645" y1="8.456" x2="211.601" y2="8.456" gradientUnits="userSpaceOnUse">
<stop stop-color="#6187EC"/>
<stop offset="0.0001" stop-color="#FF4043"/>
<stop offset="1" stop-color="#FF00C8"/>
</linearGradient>
<linearGradient id="paint14_linear_4002_7267" x1="0.285645" y1="8.456" x2="211.601" y2="8.456" gradientUnits="userSpaceOnUse">
<stop stop-color="#6187EC"/>
<stop offset="0.0001" stop-color="#FF4043"/>
<stop offset="1" stop-color="#FF00C8"/>
</linearGradient>
<linearGradient id="paint15_linear_4002_7267" x1="0.285645" y1="8.456" x2="211.601" y2="8.456" gradientUnits="userSpaceOnUse">
<stop stop-color="#6187EC"/>
<stop offset="0.0001" stop-color="#FF4043"/>
<stop offset="1" stop-color="#FF00C8"/>
</linearGradient>
<linearGradient id="paint16_linear_4002_7267" x1="0.285645" y1="8.456" x2="211.601" y2="8.456" gradientUnits="userSpaceOnUse">
<stop stop-color="#6187EC"/>
<stop offset="0.0001" stop-color="#FF4043"/>
<stop offset="1" stop-color="#FF00C8"/>
</linearGradient>
<linearGradient id="paint17_linear_4002_7267" x1="0.285645" y1="8.456" x2="211.601" y2="8.456" gradientUnits="userSpaceOnUse">
<stop stop-color="#6187EC"/>
<stop offset="0.0001" stop-color="#FF4043"/>
<stop offset="1" stop-color="#FF00C8"/>
</linearGradient>
<linearGradient id="paint18_linear_4002_7267" x1="0.285645" y1="8.456" x2="211.601" y2="8.456" gradientUnits="userSpaceOnUse">
<stop stop-color="#6187EC"/>
<stop offset="0.0001" stop-color="#FF4043"/>
<stop offset="1" stop-color="#FF00C8"/>
</linearGradient>
<linearGradient id="paint19_linear_4002_7267" x1="0.285645" y1="8.456" x2="211.601" y2="8.456" gradientUnits="userSpaceOnUse">
<stop stop-color="#6187EC"/>
<stop offset="0.0001" stop-color="#FF4043"/>
<stop offset="1" stop-color="#FF00C8"/>
</linearGradient>
<linearGradient id="paint20_linear_4002_7267" x1="0.285645" y1="8.456" x2="211.601" y2="8.456" gradientUnits="userSpaceOnUse">
<stop stop-color="#6187EC"/>
<stop offset="0.0001" stop-color="#FF4043"/>
<stop offset="1" stop-color="#FF00C8"/>
</linearGradient>
<linearGradient id="paint21_linear_4002_7267" x1="0.285645" y1="8.456" x2="211.601" y2="8.456" gradientUnits="userSpaceOnUse">
<stop stop-color="#6187EC"/>
<stop offset="0.0001" stop-color="#FF4043"/>
<stop offset="1" stop-color="#FF00C8"/>
</linearGradient>
<linearGradient id="paint22_linear_4002_7267" x1="0.285645" y1="8.456" x2="211.601" y2="8.456" gradientUnits="userSpaceOnUse">
<stop stop-color="#6187EC"/>
<stop offset="0.0001" stop-color="#FF4043"/>
<stop offset="1" stop-color="#FF00C8"/>
</linearGradient>
<linearGradient id="paint23_linear_4002_7267" x1="0.285645" y1="8.456" x2="211.601" y2="8.456" gradientUnits="userSpaceOnUse">
<stop stop-color="#6187EC"/>
<stop offset="0.0001" stop-color="#FF4043"/>
<stop offset="1" stop-color="#FF00C8"/>
</linearGradient>
<clipPath id="clip0_4002_7267">
<rect width="189" height="17" fill="white"/>
</clipPath>
</defs>
</svg>
