<svg width="220" height="33" viewBox="0 0 220 33" fill="none" xmlns="http://www.w3.org/2000/svg">
<path d="M21.2959 6.63607V27.0492H16.7275V8.11475L18.836 10.2426H2.45992L4.56843 8.11475V27.0492H0V6.63607H21.2959Z" fill="#0A0A0A"/>
<path d="M44.881 27.0492L44.1078 19.4754L45.0215 16.8426L44.1078 14.2459L44.881 6.63607H49.59L48.5357 16.8426L49.59 27.0492H44.881ZM46.2866 16.8426C45.8415 18.9825 45.1035 20.8579 44.0727 22.4689C43.0419 24.0798 41.7651 25.3301 40.2423 26.2197C38.7429 27.1093 37.0678 27.5541 35.217 27.5541C33.2725 27.5541 31.5505 27.1093 30.0511 26.2197C28.5518 25.306 27.3804 24.0437 26.537 22.4328C25.6936 20.8219 25.2719 18.9585 25.2719 16.8426C25.2719 14.7027 25.6936 12.8393 26.537 11.2525C27.3804 9.64153 28.5518 8.39126 30.0511 7.50164C31.5505 6.58798 33.2725 6.13115 35.217 6.13115C37.0678 6.13115 38.7429 6.57596 40.2423 7.46557C41.7651 8.35519 43.0419 9.60546 44.0727 11.2164C45.127 12.8033 45.8649 14.6787 46.2866 16.8426ZM29.9106 16.8426C29.9106 18.2131 30.18 19.4273 30.7188 20.4852C31.2811 21.5191 32.0425 22.3366 33.003 22.9377C33.9636 23.5148 35.0647 23.8033 36.3064 23.8033C37.5715 23.8033 38.7429 23.5148 39.8205 22.9377C40.8982 22.3366 41.8471 21.5191 42.667 20.4852C43.5104 19.4273 44.1781 18.2131 44.6701 16.8426C44.1781 15.4721 43.5104 14.2699 42.667 13.2361C41.8471 12.1781 40.8982 11.3607 39.8205 10.7836C38.7429 10.1825 37.5715 9.88197 36.3064 9.88197C35.0647 9.88197 33.9636 10.1825 33.003 10.7836C32.0425 11.3607 31.2811 12.1781 30.7188 13.2361C30.18 14.2699 29.9106 15.4721 29.9106 16.8426Z" fill="#0A0A0A"/>
<path d="M54.1622 6.63607H58.7307V13.741L58.5198 14.4623V18.5738L58.7307 19.8361V33H54.1622V6.63607ZM56.9736 16.8426C57.4187 14.6787 58.1567 12.8033 59.1875 11.2164C60.2183 9.60546 61.4834 8.35519 62.9828 7.46557C64.5056 6.57596 66.1924 6.13115 68.0432 6.13115C69.9877 6.13115 71.7097 6.58798 73.2091 7.50164C74.7084 8.39126 75.8798 9.64153 76.7232 11.2525C77.5666 12.8393 77.9883 14.7027 77.9883 16.8426C77.9883 18.9585 77.5666 20.8219 76.7232 22.4328C75.8798 24.0437 74.7084 25.306 73.2091 26.2197C71.7097 27.1093 69.9877 27.5541 68.0432 27.5541C66.1924 27.5541 64.5173 27.1093 63.0179 26.2197C61.5186 25.3301 60.2418 24.0798 59.1875 22.4689C58.1567 20.8579 57.4187 18.9825 56.9736 16.8426ZM73.3496 16.8426C73.3496 15.4721 73.0685 14.2699 72.5062 13.2361C71.9674 12.1781 71.2177 11.3607 70.2571 10.7836C69.2966 10.1825 68.1955 9.88197 66.9538 9.88197C65.7122 9.88197 64.5408 10.1825 63.4396 10.7836C62.362 11.3607 61.4131 12.1781 60.5932 13.2361C59.7732 14.2699 59.1055 15.4721 58.5901 16.8426C59.1055 18.2131 59.7732 19.4273 60.5932 20.4852C61.4131 21.5191 62.362 22.3366 63.4396 22.9377C64.5408 23.5148 65.7122 23.8033 66.9538 23.8033C68.1955 23.8033 69.2966 23.5148 70.2571 22.9377C71.2177 22.3366 71.9674 21.5191 72.5062 20.4852C73.0685 19.4273 73.3496 18.2131 73.3496 16.8426Z" fill="#0A0A0A"/>
<path d="M87.4308 8.25902H91.9992V27.0492H87.4308V8.25902ZM79.1725 6.63607H100.258V10.3148H79.1725V6.63607Z" fill="#0A0A0A"/>
<path d="M103.314 6.63607H107.847V27.0492H103.314V6.63607ZM120.217 6.63607H124.75V27.0492H120.217V6.63607ZM105.879 14.8951H122.115V18.5016H105.879V14.8951Z" fill="#0A0A0A"/>
<path d="M140.636 27.5541C138.317 27.5541 136.255 27.1093 134.451 26.2197C132.647 25.306 131.23 24.0437 130.199 22.4328C129.168 20.8219 128.653 18.9464 128.653 16.8066C128.653 14.6907 129.133 12.8393 130.094 11.2525C131.078 9.64153 132.425 8.39126 134.135 7.50164C135.869 6.58798 137.848 6.13115 140.074 6.13115C142.3 6.13115 144.221 6.64809 145.837 7.68197C147.477 8.6918 148.742 10.1224 149.632 11.9738C150.523 13.8251 150.968 16.0011 150.968 18.5016H132.237V14.9311H148.684L146.399 16.2656C146.329 14.9191 146.013 13.765 145.451 12.8033C144.912 11.8415 144.174 11.1082 143.237 10.6033C142.323 10.0743 141.234 9.80984 139.969 9.80984C138.633 9.80984 137.462 10.0863 136.454 10.6393C135.47 11.1924 134.697 11.9738 134.135 12.9836C133.573 13.9694 133.292 15.1475 133.292 16.518C133.292 18.0328 133.62 19.3432 134.276 20.4492C134.955 21.5552 135.904 22.4087 137.122 23.0098C138.364 23.5869 139.828 23.8754 141.515 23.8754C143.038 23.8754 144.596 23.635 146.189 23.1541C147.782 22.6492 149.187 21.9519 150.406 21.0623V24.4525C149.187 25.4142 147.7 26.1716 145.943 26.7246C144.209 27.2776 142.44 27.5541 140.636 27.5541Z" fill="#0A0A0A"/>
<path d="M154.902 6.63607H159.471V13.741L159.26 14.4623V18.5738L159.471 19.8361V33H154.902V6.63607ZM157.714 16.8426C158.159 14.6787 158.897 12.8033 159.928 11.2164C160.958 9.60546 162.224 8.35519 163.723 7.46557C165.246 6.57596 166.933 6.13115 168.783 6.13115C170.728 6.13115 172.45 6.58798 173.949 7.50164C175.449 8.39126 176.62 9.64153 177.463 11.2525C178.307 12.8393 178.728 14.7027 178.728 16.8426C178.728 18.9585 178.307 20.8219 177.463 22.4328C176.62 24.0437 175.449 25.306 173.949 26.2197C172.45 27.1093 170.728 27.5541 168.783 27.5541C166.933 27.5541 165.257 27.1093 163.758 26.2197C162.259 25.3301 160.982 24.0798 159.928 22.4689C158.897 20.8579 158.159 18.9825 157.714 16.8426ZM174.09 16.8426C174.09 15.4721 173.809 14.2699 173.246 13.2361C172.708 12.1781 171.958 11.3607 170.997 10.7836C170.037 10.1825 168.936 9.88197 167.694 9.88197C166.452 9.88197 165.281 10.1825 164.18 10.7836C163.102 11.3607 162.153 12.1781 161.333 13.2361C160.513 14.2699 159.846 15.4721 159.33 16.8426C159.846 18.2131 160.513 19.4273 161.333 20.4852C162.153 21.5191 163.102 22.3366 164.18 22.9377C165.281 23.5148 166.452 23.8033 167.694 23.8033C168.936 23.8033 170.037 23.5148 170.997 22.9377C171.958 22.3366 172.708 21.5191 173.246 20.4852C173.809 19.4273 174.09 18.2131 174.09 16.8426Z" fill="#0A0A0A"/>
<path d="M205.054 6.63607H209.623V27.0492H205.054V6.63607ZM182.704 27.0492V6.63607H187.273V25.7508L185.656 23.5869H194.16C195.402 23.5869 196.374 23.2743 197.077 22.6492C197.78 22 198.131 21.1224 198.131 20.0164C198.131 18.8863 197.78 18.0087 197.077 17.3836C196.374 16.7344 195.402 16.4098 194.16 16.4098H185.797V13.0557H194.758C196.374 13.0557 197.78 13.3563 198.975 13.9574C200.17 14.5344 201.095 15.3519 201.751 16.4098C202.43 17.4437 202.77 18.6579 202.77 20.0525C202.77 21.447 202.43 22.6732 201.751 23.7311C201.095 24.7891 200.17 25.6066 198.975 26.1836C197.78 26.7607 196.386 27.0492 194.793 27.0492H182.704Z" fill="#0A0A0A"/>
<path d="M214.799 0H219.508L218.77 18.8262H215.537L214.799 0ZM217.154 27.3377C216.334 27.3377 215.654 27.0852 215.115 26.5803C214.576 26.0514 214.307 25.3781 214.307 24.5607C214.307 23.7432 214.576 23.082 215.115 22.577C215.654 22.0481 216.334 21.7836 217.154 21.7836C217.997 21.7836 218.676 22.0481 219.192 22.577C219.731 23.082 220 23.7432 220 24.5607C220 25.3781 219.731 26.0514 219.192 26.5803C218.676 27.0852 217.997 27.3377 217.154 27.3377Z" fill="#0A0A0A"/>
</svg>
