<svg width="224" height="28" viewBox="0 0 224 28" fill="none" xmlns="http://www.w3.org/2000/svg">
<path d="M7.08436 21.5969L10.6265 15.5497H10.6841L19.7268 0H23.8737L11.2313 21.5969H7.08436ZM10.7129 18.2565L0 0H4.20454L13.2472 15.4058L10.7129 18.2565Z" fill="#0A0A0A"/>
<path d="M23.7129 21.5969L24.548 13.4476L23.7129 5.29843H35.5201C37.0944 5.29843 38.3232 5.66318 39.2063 6.39267C40.1087 7.12217 40.5598 8.13002 40.5598 9.41623C40.5598 10.6065 40.1087 11.5663 39.2063 12.2958C38.3232 13.0061 37.0848 13.4284 35.4913 13.5628L35.7793 12.8717C37.6608 12.9101 39.1007 13.2941 40.0991 14.0236C41.0974 14.7531 41.5966 15.7801 41.5966 17.1047C41.5966 18.5061 41.0878 19.6099 40.0703 20.4162C39.0719 21.2033 37.68 21.5969 35.8945 21.5969H23.7129ZM27.3414 20.6754L25.9015 19.0052H34.9442C35.9617 19.0052 36.6913 18.8133 37.1328 18.4293C37.5936 18.0262 37.824 17.4695 37.824 16.7592C37.824 16.1257 37.5648 15.5977 37.0464 15.1754C36.5473 14.7531 35.7025 14.5419 34.5122 14.5419H26.7079V12.123H33.965C34.9442 12.123 35.6545 11.9311 36.0961 11.5471C36.5569 11.144 36.7873 10.6257 36.7873 9.99215C36.7873 9.37784 36.5857 8.87871 36.1825 8.49477C35.7985 8.09162 35.1458 7.89005 34.2242 7.89005H25.9303L27.3414 6.24869L28.1478 13.4476L27.3414 20.6754Z" fill="#0A0A0A"/>
<path d="M59.9667 21.5969L59.3331 15.5497L60.0819 13.4476L59.3331 11.3743L59.9667 5.29843H63.8256L62.9617 13.4476L63.8256 21.5969H59.9667ZM61.1186 13.4476C60.7538 15.1562 60.1491 16.6536 59.3043 17.9398C58.4596 19.226 57.4132 20.2243 56.1653 20.9346C54.9366 21.6449 53.5639 22 52.0472 22C50.4537 22 49.0426 21.6449 47.8138 20.9346C46.5851 20.2051 45.6252 19.1972 44.934 17.911C44.2428 16.6248 43.8973 15.137 43.8973 13.4476C43.8973 11.7391 44.2428 10.2513 44.934 8.98429C45.6252 7.69808 46.5851 6.69983 47.8138 5.98953C49.0426 5.26003 50.4537 4.89529 52.0472 4.89529C53.5639 4.89529 54.9366 5.25044 56.1653 5.96073C57.4132 6.67103 58.4596 7.66928 59.3043 8.9555C60.1683 10.2225 60.773 11.7199 61.1186 13.4476ZM47.6986 13.4476C47.6986 14.5419 47.9194 15.5113 48.361 16.356C48.8218 17.1815 49.4457 17.8342 50.2329 18.3141C51.02 18.7749 51.9224 19.0052 52.9399 19.0052C53.9766 19.0052 54.9366 18.7749 55.8197 18.3141C56.7029 17.8342 57.4804 17.1815 58.1524 16.356C58.8436 15.5113 59.3907 14.5419 59.7939 13.4476C59.3907 12.3534 58.8436 11.3935 58.1524 10.5681C57.4804 9.72339 56.7029 9.07068 55.8197 8.60995C54.9366 8.13002 53.9766 7.89005 52.9399 7.89005C51.9224 7.89005 51.02 8.13002 50.2329 8.60995C49.4457 9.07068 48.8218 9.72339 48.361 10.5681C47.9194 11.3935 47.6986 12.3534 47.6986 13.4476Z" fill="#0A0A0A"/>
<path d="M65.5567 21.5969L72.3819 11.1728L75.0025 13.534L69.934 21.5969H65.5567ZM92.915 21.5969L87.8753 13.534L90.4672 11.1728L97.2923 21.5969H92.915ZM83.2676 18.3717L82.1733 17.9686L92.5118 5.29843H96.774L82.922 21.5969H79.927L66.0751 5.29843H70.3372L80.6758 17.9686L79.5814 18.3717V5.29843H83.2676V18.3717Z" fill="#0A0A0A"/>
<path d="M113.829 21.5969L113.196 15.5497L113.945 13.4476L113.196 11.3743L113.829 5.29843H117.688L116.825 13.4476L117.688 21.5969H113.829ZM114.981 13.4476C114.617 15.1562 114.012 16.6536 113.167 17.9398C112.322 19.226 111.276 20.2243 110.028 20.9346C108.799 21.6449 107.427 22 105.91 22C104.316 22 102.905 21.6449 101.677 20.9346C100.448 20.2051 99.488 19.1972 98.7968 17.911C98.1057 16.6248 97.7601 15.137 97.7601 13.4476C97.7601 11.7391 98.1057 10.2513 98.7968 8.98429C99.488 7.69808 100.448 6.69983 101.677 5.98953C102.905 5.26003 104.316 4.89529 105.91 4.89529C107.427 4.89529 108.799 5.25044 110.028 5.96073C111.276 6.67103 112.322 7.66928 113.167 8.9555C114.031 10.2225 114.636 11.7199 114.981 13.4476ZM101.561 13.4476C101.561 14.5419 101.782 15.5113 102.224 16.356C102.685 17.1815 103.309 17.8342 104.096 18.3141C104.883 18.7749 105.785 19.0052 106.803 19.0052C107.839 19.0052 108.799 18.7749 109.683 18.3141C110.566 17.8342 111.343 17.1815 112.015 16.356C112.706 15.5113 113.254 14.5419 113.657 13.4476C113.254 12.3534 112.706 11.3935 112.015 10.5681C111.343 9.72339 110.566 9.07068 109.683 8.60995C108.799 8.13002 107.839 7.89005 106.803 7.89005C105.785 7.89005 104.883 8.13002 104.096 8.60995C103.309 9.07068 102.685 9.72339 102.224 10.5681C101.782 11.3935 101.561 12.3534 101.561 13.4476Z" fill="#0A0A0A"/>
<path d="M130.334 22C128.433 22 126.744 21.6449 125.266 20.9346C123.787 20.2051 122.626 19.1972 121.781 17.911C120.936 16.6248 120.514 15.1274 120.514 13.4188C120.514 11.7295 120.907 10.2513 121.695 8.98429C122.501 7.69808 123.605 6.69983 125.006 5.98953C126.427 5.26003 128.049 4.89529 129.873 4.89529C131.697 4.89529 133.271 5.30803 134.596 6.13351C135.94 6.93979 136.977 8.08203 137.706 9.56021C138.436 11.0384 138.801 12.7757 138.801 14.7723H123.451V11.9215H136.929L135.057 12.9869C134.999 11.9119 134.74 10.9904 134.279 10.2225C133.838 9.45463 133.233 8.86911 132.465 8.46597C131.716 8.04363 130.824 7.83246 129.787 7.83246C128.693 7.83246 127.733 8.05323 126.907 8.49477C126.101 8.9363 125.467 9.56021 125.006 10.3665C124.546 11.1536 124.315 12.0942 124.315 13.1885C124.315 14.3979 124.584 15.4442 125.122 16.3272C125.678 17.2103 126.456 17.8918 127.454 18.3717C128.472 18.8325 129.672 19.0628 131.054 19.0628C132.302 19.0628 133.579 18.8709 134.884 18.4869C136.19 18.0838 137.342 17.5271 138.34 16.8168V19.5236C137.342 20.2914 136.122 20.8962 134.683 21.3377C133.262 21.7792 131.812 22 130.334 22Z" fill="#0A0A0A"/>
<path d="M142.025 21.5969V5.29843H147.583L154.437 19.8115H152.968L159.765 5.29843H165.323V21.5969H161.809V6.53665H162.788L155.503 21.5969H151.845L144.559 6.59424L145.538 6.56545V21.5969H142.025Z" fill="#0A0A0A"/>
<path d="M187.764 5.29843H191.508V21.5969H187.764V5.29843ZM169.449 21.5969V5.29843H173.192V20.5602L171.868 18.8325H178.837C179.854 18.8325 180.651 18.5829 181.227 18.0838C181.803 17.5654 182.091 16.8647 182.091 15.9817C182.091 15.0794 181.803 14.3787 181.227 13.8796C180.651 13.3613 179.854 13.1021 178.837 13.1021H171.983V10.4241H179.326C180.651 10.4241 181.803 10.6641 182.782 11.144C183.761 11.6047 184.52 12.2574 185.057 13.1021C185.614 13.9276 185.892 14.897 185.892 16.0105C185.892 17.1239 185.614 18.103 185.057 18.9476C184.52 19.7923 183.761 20.445 182.782 20.9058C181.803 21.3665 180.661 21.5969 179.355 21.5969H169.449Z" fill="#0A0A0A"/>
<path d="M204.533 22C202.633 22 200.943 21.6449 199.465 20.9346C197.987 20.2051 196.825 19.1972 195.98 17.911C195.135 16.6248 194.713 15.1274 194.713 13.4188C194.713 11.7295 195.107 10.2513 195.894 8.98429C196.7 7.69808 197.804 6.69983 199.206 5.98953C200.626 5.26003 202.249 4.89529 204.073 4.89529C205.896 4.89529 207.471 5.30803 208.795 6.13351C210.139 6.93979 211.176 8.08203 211.906 9.56021C212.635 11.0384 213 12.7757 213 14.7723H197.651V11.9215H211.128L209.256 12.9869C209.199 11.9119 208.939 10.9904 208.479 10.2225C208.037 9.45463 207.432 8.86911 206.664 8.46597C205.916 8.04363 205.023 7.83246 203.986 7.83246C202.892 7.83246 201.932 8.05323 201.106 8.49477C200.3 8.9363 199.666 9.56021 199.206 10.3665C198.745 11.1536 198.514 12.0942 198.514 13.1885C198.514 14.3979 198.783 15.4442 199.321 16.3272C199.878 17.2103 200.655 17.8918 201.653 18.3717C202.671 18.8325 203.871 19.0628 205.253 19.0628C206.501 19.0628 207.778 18.8709 209.083 18.4869C210.389 18.0838 211.541 17.5271 212.539 16.8168V19.5236C211.541 20.2914 210.322 20.8962 208.882 21.3377C207.461 21.7792 206.012 22 204.533 22Z" fill="#0A0A0A"/>
</svg>
