<svg width="201" height="30" viewBox="0 0 201 30" fill="none" xmlns="http://www.w3.org/2000/svg">
<path d="M19.392 5.888V24H15.232V7.2L17.152 9.088H2.24L4.16 7.2V24H0V5.888H19.392Z" fill="#0A0A0A"/>
<path d="M40.8685 24L40.1645 17.28L40.9965 14.944L40.1645 12.64L40.8685 5.888H45.1565L44.1965 14.944L45.1565 24H40.8685ZM42.1485 14.944C41.7432 16.8427 41.0712 18.5067 40.1325 19.936C39.1938 21.3653 38.0312 22.4747 36.6445 23.264C35.2792 24.0533 33.7538 24.448 32.0685 24.448C30.2978 24.448 28.7298 24.0533 27.3645 23.264C25.9992 22.4533 24.9325 21.3333 24.1645 19.904C23.3965 18.4747 23.0125 16.8213 23.0125 14.944C23.0125 13.0453 23.3965 11.392 24.1645 9.984C24.9325 8.55467 25.9992 7.44533 27.3645 6.656C28.7298 5.84533 30.2978 5.44 32.0685 5.44C33.7538 5.44 35.2792 5.83467 36.6445 6.624C38.0312 7.41333 39.1938 8.52267 40.1325 9.952C41.0925 11.36 41.7645 13.024 42.1485 14.944ZM27.2365 14.944C27.2365 16.16 27.4818 17.2373 27.9725 18.176C28.4845 19.0933 29.1778 19.8187 30.0525 20.352C30.9272 20.864 31.9298 21.12 33.0605 21.12C34.2125 21.12 35.2792 20.864 36.2605 20.352C37.2418 19.8187 38.1058 19.0933 38.8525 18.176C39.6205 17.2373 40.2285 16.16 40.6765 14.944C40.2285 13.728 39.6205 12.6613 38.8525 11.744C38.1058 10.8053 37.2418 10.08 36.2605 9.568C35.2792 9.03467 34.2125 8.768 33.0605 8.768C31.9298 8.768 30.9272 9.03467 30.0525 9.568C29.1778 10.08 28.4845 10.8053 27.9725 11.744C27.4818 12.6613 27.2365 13.728 27.2365 14.944Z" fill="#0A0A0A"/>
<path d="M49.32 5.888H53.48V12.192L53.288 12.832V16.48L53.48 17.6V29.28H49.32V5.888ZM51.88 14.944C52.2853 13.024 52.9573 11.36 53.896 9.952C54.8347 8.52267 55.9867 7.41333 57.352 6.624C58.7387 5.83467 60.2747 5.44 61.96 5.44C63.7307 5.44 65.2987 5.84533 66.664 6.656C68.0293 7.44533 69.096 8.55467 69.864 9.984C70.632 11.392 71.016 13.0453 71.016 14.944C71.016 16.8213 70.632 18.4747 69.864 19.904C69.096 21.3333 68.0293 22.4533 66.664 23.264C65.2987 24.0533 63.7307 24.448 61.96 24.448C60.2747 24.448 58.7493 24.0533 57.384 23.264C56.0187 22.4747 54.856 21.3653 53.896 19.936C52.9573 18.5067 52.2853 16.8427 51.88 14.944ZM66.792 14.944C66.792 13.728 66.536 12.6613 66.024 11.744C65.5333 10.8053 64.8507 10.08 63.976 9.568C63.1013 9.03467 62.0987 8.768 60.968 8.768C59.8373 8.768 58.7707 9.03467 57.768 9.568C56.7867 10.08 55.9227 10.8053 55.176 11.744C54.4293 12.6613 53.8213 13.728 53.352 14.944C53.8213 16.16 54.4293 17.2373 55.176 18.176C55.9227 19.0933 56.7867 19.8187 57.768 20.352C58.7707 20.864 59.8373 21.12 60.968 21.12C62.0987 21.12 63.1013 20.864 63.976 20.352C64.8507 19.8187 65.5333 19.0933 66.024 18.176C66.536 17.2373 66.792 16.16 66.792 14.944Z" fill="#0A0A0A"/>
<path d="M79.6143 7.328H83.7743V24H79.6143V7.328ZM72.0943 5.888H91.2943V9.152H72.0943V5.888Z" fill="#0A0A0A"/>
<path d="M94.0775 5.888H98.2055V24H94.0775V5.888ZM109.469 5.888H113.598V24H109.469V5.888ZM96.4135 13.216H111.198V16.416H96.4135V13.216Z" fill="#0A0A0A"/>
<path d="M128.063 24.448C125.951 24.448 124.074 24.0533 122.431 23.264C120.788 22.4533 119.498 21.3333 118.559 19.904C117.62 18.4747 117.151 16.8107 117.151 14.912C117.151 13.0347 117.588 11.392 118.463 9.984C119.359 8.55467 120.586 7.44533 122.143 6.656C123.722 5.84533 125.524 5.44 127.551 5.44C129.578 5.44 131.327 5.89867 132.799 6.816C134.292 7.712 135.444 8.98133 136.255 10.624C137.066 12.2667 137.471 14.1973 137.471 16.416H120.415V13.248H135.391L133.311 14.432C133.247 13.2373 132.959 12.2133 132.447 11.36C131.956 10.5067 131.284 9.856 130.431 9.408C129.599 8.93867 128.607 8.704 127.455 8.704C126.239 8.704 125.172 8.94933 124.255 9.44C123.359 9.93067 122.655 10.624 122.143 11.52C121.631 12.3947 121.375 13.44 121.375 14.656C121.375 16 121.674 17.1627 122.271 18.144C122.89 19.1253 123.754 19.8827 124.863 20.416C125.994 20.928 127.327 21.184 128.863 21.184C130.25 21.184 131.668 20.9707 133.119 20.544C134.57 20.096 135.85 19.4773 136.959 18.688V21.696C135.85 22.5493 134.495 23.2213 132.895 23.712C131.316 24.2027 129.706 24.448 128.063 24.448Z" fill="#0A0A0A"/>
<path d="M141.054 5.888H145.214V12.192L145.022 12.832V16.48L145.214 17.6V29.28H141.054V5.888ZM143.614 14.944C144.019 13.024 144.691 11.36 145.63 9.952C146.568 8.52267 147.72 7.41333 149.086 6.624C150.472 5.83467 152.008 5.44 153.694 5.44C155.464 5.44 157.032 5.84533 158.398 6.656C159.763 7.44533 160.83 8.55467 161.598 9.984C162.366 11.392 162.75 13.0453 162.75 14.944C162.75 16.8213 162.366 18.4747 161.598 19.904C160.83 21.3333 159.763 22.4533 158.398 23.264C157.032 24.0533 155.464 24.448 153.694 24.448C152.008 24.448 150.483 24.0533 149.118 23.264C147.752 22.4747 146.59 21.3653 145.63 19.936C144.691 18.5067 144.019 16.8427 143.614 14.944ZM158.526 14.944C158.526 13.728 158.27 12.6613 157.758 11.744C157.267 10.8053 156.584 10.08 155.71 9.568C154.835 9.03467 153.832 8.768 152.702 8.768C151.571 8.768 150.504 9.03467 149.502 9.568C148.52 10.08 147.656 10.8053 146.91 11.744C146.163 12.6613 145.555 13.728 145.086 14.944C145.555 16.16 146.163 17.2373 146.91 18.176C147.656 19.0933 148.52 19.8187 149.502 20.352C150.504 20.864 151.571 21.12 152.702 21.12C153.832 21.12 154.835 20.864 155.71 20.352C156.584 19.8187 157.267 19.0933 157.758 18.176C158.27 17.2373 158.526 16.16 158.526 14.944Z" fill="#0A0A0A"/>
<path d="M186.722 5.888H190.882V24H186.722V5.888ZM166.37 24V5.888H170.53V22.848L169.058 20.928H176.802C177.933 20.928 178.818 20.6507 179.458 20.096C180.098 19.52 180.418 18.7413 180.418 17.76C180.418 16.7573 180.098 15.9787 179.458 15.424C178.818 14.848 177.933 14.56 176.802 14.56H169.186V11.584H177.346C178.818 11.584 180.098 11.8507 181.186 12.384C182.274 12.896 183.117 13.6213 183.714 14.56C184.333 15.4773 184.642 16.5547 184.642 17.792C184.642 19.0293 184.333 20.1173 183.714 21.056C183.117 21.9947 182.274 22.72 181.186 23.232C180.098 23.744 178.829 24 177.378 24H166.37Z" fill="#0A0A0A"/>
<path d="M195.596 0H199.883L199.212 16.704H196.268L195.596 0ZM197.74 24.256C196.993 24.256 196.374 24.032 195.883 23.584C195.393 23.1147 195.147 22.5173 195.147 21.792C195.147 21.0667 195.393 20.48 195.883 20.032C196.374 19.5627 196.993 19.328 197.74 19.328C198.508 19.328 199.126 19.5627 199.596 20.032C200.086 20.48 200.331 21.0667 200.331 21.792C200.331 22.5173 200.086 23.1147 199.596 23.584C199.126 24.032 198.508 24.256 197.74 24.256Z" fill="#0A0A0A"/>
</svg>
