<svg width="187" height="28" viewBox="0 0 187 28" fill="none" xmlns="http://www.w3.org/2000/svg">
<path d="M18.1015 5.6306V22.9508H14.2184V6.88525L16.0106 8.69071H2.09093L3.88316 6.88525V22.9508H0V5.6306H18.1015Z" fill="#0A0A0A"/>
<path d="M38.1488 22.9508L37.4917 16.5246L38.2683 14.2907L37.4917 12.0874L38.1488 5.6306H42.1515L41.2554 14.2907L42.1515 22.9508H38.1488ZM39.3436 14.2907C38.9653 16.1064 38.338 17.6976 37.4618 19.0645C36.5856 20.4313 35.5003 21.4922 34.2059 22.247C32.9314 23.0018 31.5076 23.3792 29.9344 23.3792C28.2816 23.3792 26.8179 23.0018 25.5435 22.247C24.269 21.4718 23.2733 20.4007 22.5564 19.0339C21.8395 17.667 21.4811 16.086 21.4811 14.2907C21.4811 12.475 21.8395 10.894 22.5564 9.54754C23.2733 8.18069 24.269 7.11985 25.5435 6.36503C26.8179 5.5898 28.2816 5.20219 29.9344 5.20219C31.5076 5.20219 32.9314 5.5796 34.2059 6.33443C35.5003 7.08925 36.5856 8.15009 37.4618 9.51694C38.3579 10.8634 38.9852 12.4546 39.3436 14.2907ZM25.424 14.2907C25.424 15.4536 25.653 16.4838 26.111 17.3814C26.5889 18.2587 27.2361 18.9523 28.0526 19.4623C28.8691 19.9519 29.805 20.1967 30.8604 20.1967C31.9358 20.1967 32.9314 19.9519 33.8475 19.4623C34.7635 18.9523 35.57 18.2587 36.267 17.3814C36.9839 16.4838 37.5514 15.4536 37.9696 14.2907C37.5514 13.1279 36.9839 12.1078 36.267 11.2306C35.57 10.333 34.7635 9.63934 33.8475 9.14973C32.9314 8.63971 31.9358 8.3847 30.8604 8.3847C29.805 8.3847 28.8691 8.63971 28.0526 9.14973C27.2361 9.63934 26.5889 10.333 26.111 11.2306C25.653 12.1078 25.424 13.1279 25.424 14.2907Z" fill="#0A0A0A"/>
<path d="M46.0379 5.6306H49.9211V11.659L49.7418 12.271V15.7596L49.9211 16.8306V28H46.0379V5.6306ZM48.4275 14.2907C48.8059 12.4546 49.4332 10.8634 50.3094 9.51694C51.1856 8.15009 52.2609 7.08925 53.5354 6.33443C54.8298 5.5796 56.2636 5.20219 57.8367 5.20219C59.4896 5.20219 60.9532 5.5898 62.2277 6.36503C63.5022 7.11985 64.4979 8.18069 65.2147 9.54754C65.9316 10.894 66.2901 12.475 66.2901 14.2907C66.2901 16.086 65.9316 17.667 65.2147 19.0339C64.4979 20.4007 63.5022 21.4718 62.2277 22.247C60.9532 23.0018 59.4896 23.3792 57.8367 23.3792C56.2636 23.3792 54.8397 23.0018 53.5653 22.247C52.2908 21.4922 51.2055 20.4313 50.3094 19.0645C49.4332 17.6976 48.8059 16.1064 48.4275 14.2907ZM62.3472 14.2907C62.3472 13.1279 62.1082 12.1078 61.6303 11.2306C61.1723 10.333 60.535 9.63934 59.7186 9.14973C58.9021 8.63971 57.9662 8.3847 56.9108 8.3847C55.8553 8.3847 54.8596 8.63971 53.9237 9.14973C53.0077 9.63934 52.2012 10.333 51.5042 11.2306C50.8072 12.1078 50.2397 13.1279 49.8016 14.2907C50.2397 15.4536 50.8072 16.4838 51.5042 17.3814C52.2012 18.2587 53.0077 18.9523 53.9237 19.4623C54.8596 19.9519 55.8553 20.1967 56.9108 20.1967C57.9662 20.1967 58.9021 19.9519 59.7186 19.4623C60.535 18.9523 61.1723 18.2587 61.6303 17.3814C62.1082 16.4838 62.3472 15.4536 62.3472 14.2907Z" fill="#0A0A0A"/>
<path d="M74.3161 7.00765H78.1993V22.9508H74.3161V7.00765ZM67.2966 5.6306H85.2189V8.75191H67.2966V5.6306Z" fill="#0A0A0A"/>
<path d="M87.8169 5.6306H91.6702V22.9508H87.8169V5.6306ZM102.185 5.6306H106.038V22.9508H102.185V5.6306ZM89.9975 12.6383H103.798V15.6984H89.9975V12.6383Z" fill="#0A0A0A"/>
<path d="M119.541 23.3792C117.569 23.3792 115.817 23.0018 114.284 22.247C112.75 21.4718 111.545 20.4007 110.669 19.0339C109.793 17.667 109.355 16.0758 109.355 14.2601C109.355 12.4648 109.763 10.894 110.58 9.54754C111.416 8.18069 112.561 7.11985 114.015 6.36503C115.488 5.5898 117.171 5.20219 119.063 5.20219C120.955 5.20219 122.588 5.6408 123.962 6.51803C125.356 7.37486 126.431 8.58871 127.188 10.1596C127.944 11.7304 128.323 13.5767 128.323 15.6984H112.402V12.6689H126.381L124.44 13.8011C124.38 12.6587 124.111 11.6794 123.633 10.8634C123.175 10.0474 122.548 9.42514 121.751 8.99672C120.975 8.54791 120.049 8.3235 118.973 8.3235C117.838 8.3235 116.842 8.55811 115.986 9.02732C115.15 9.49654 114.493 10.1596 114.015 11.0164C113.537 11.8528 113.298 12.8525 113.298 14.0153C113.298 15.3005 113.577 16.4124 114.134 17.3508C114.712 18.2893 115.518 19.0135 116.554 19.5235C117.609 20.0131 118.854 20.2579 120.288 20.2579C121.582 20.2579 122.906 20.0539 124.26 19.6459C125.614 19.2175 126.809 18.6259 127.845 17.871V20.7475C126.809 21.5636 125.545 22.2062 124.051 22.6754C122.578 23.1446 121.074 23.3792 119.541 23.3792Z" fill="#0A0A0A"/>
<path d="M131.667 5.6306H135.55V11.659L135.371 12.271V15.7596L135.55 16.8306V28H131.667V5.6306ZM134.057 14.2907C134.435 12.4546 135.062 10.8634 135.939 9.51694C136.815 8.15009 137.89 7.08925 139.165 6.33443C140.459 5.5796 141.893 5.20219 143.466 5.20219C145.119 5.20219 146.582 5.5898 147.857 6.36503C149.131 7.11985 150.127 8.18069 150.844 9.54754C151.561 10.894 151.919 12.475 151.919 14.2907C151.919 16.086 151.561 17.667 150.844 19.0339C150.127 20.4007 149.131 21.4718 147.857 22.247C146.582 23.0018 145.119 23.3792 143.466 23.3792C141.893 23.3792 140.469 23.0018 139.194 22.247C137.92 21.4922 136.835 20.4313 135.939 19.0645C135.062 17.6976 134.435 16.1064 134.057 14.2907ZM147.976 14.2907C147.976 13.1279 147.737 12.1078 147.259 11.2306C146.801 10.333 146.164 9.63934 145.348 9.14973C144.531 8.63971 143.595 8.3847 142.54 8.3847C141.484 8.3847 140.489 8.63971 139.553 9.14973C138.637 9.63934 137.83 10.333 137.133 11.2306C136.436 12.1078 135.869 13.1279 135.431 14.2907C135.869 15.4536 136.436 16.4838 137.133 17.3814C137.83 18.2587 138.637 18.9523 139.553 19.4623C140.489 19.9519 141.484 20.1967 142.54 20.1967C143.595 20.1967 144.531 19.9519 145.348 19.4623C146.164 18.9523 146.801 18.2587 147.259 17.3814C147.737 16.4838 147.976 15.4536 147.976 14.2907Z" fill="#0A0A0A"/>
<path d="M174.296 5.6306H178.179V22.9508H174.296V5.6306ZM155.299 22.9508V5.6306H159.182V21.8492L157.808 20.0131H165.036C166.092 20.0131 166.918 19.7479 167.516 19.2175C168.113 18.6667 168.412 17.922 168.412 16.9836C168.412 16.0248 168.113 15.2801 167.516 14.7497C166.918 14.1989 166.092 13.9235 165.036 13.9235H157.927V11.0776H165.544C166.918 11.0776 168.113 11.3326 169.129 11.8426C170.144 12.3322 170.931 13.0259 171.488 13.9235C172.066 14.8007 172.355 15.831 172.355 17.0142C172.355 18.1974 172.066 19.2379 171.488 20.1355C170.931 21.0332 170.144 21.7268 169.129 22.2164C168.113 22.706 166.928 22.9508 165.574 22.9508H155.299Z" fill="#0A0A0A"/>
<path d="M182.579 0H186.582L185.955 15.9738H183.206L182.579 0ZM184.581 23.1956C183.884 23.1956 183.306 22.9814 182.848 22.553C182.39 22.1042 182.161 21.533 182.161 20.8393C182.161 20.1457 182.39 19.5847 182.848 19.1563C183.306 18.7075 183.884 18.4831 184.581 18.4831C185.297 18.4831 185.875 18.7075 186.313 19.1563C186.771 19.5847 187 20.1457 187 20.8393C187 21.533 186.771 22.1042 186.313 22.553C185.875 22.9814 185.297 23.1956 184.581 23.1956Z" fill="#0A0A0A"/>
</svg>
