<svg width="240" height="36" viewBox="0 0 240 36" fill="none" xmlns="http://www.w3.org/2000/svg">
<path d="M23.2319 7.23934V29.5082H18.2482V8.85246L20.5483 11.1738H2.68355L4.98374 8.85246V29.5082H0V7.23934H23.2319Z" fill="#0A0A0A"/>
<path d="M48.961 29.5082L48.1176 21.2459L49.1144 18.3738L48.1176 15.541L48.961 7.23934H54.0981L52.948 18.3738L54.0981 29.5082H48.961ZM50.4945 18.3738C50.0089 20.7082 49.2038 22.7541 48.0793 24.5115C46.9548 26.2689 45.5619 27.6328 43.9006 28.6033C42.2649 29.5738 40.4376 30.059 38.4185 30.059C36.2972 30.059 34.4187 29.5738 32.7831 28.6033C31.1474 27.6066 29.8695 26.2295 28.9494 24.4721C28.0293 22.7148 27.5693 20.682 27.5693 18.3738C27.5693 16.0393 28.0293 14.0066 28.9494 12.2754C29.8695 10.518 31.1474 9.1541 32.7831 8.18361C34.4187 7.18688 36.2972 6.68852 38.4185 6.68852C40.4376 6.68852 42.2649 7.17377 43.9006 8.14426C45.5619 9.11475 46.9548 10.4787 48.0793 12.2361C49.2294 13.9672 50.0345 16.0131 50.4945 18.3738ZM32.6297 18.3738C32.6297 19.8689 32.9236 21.1934 33.5115 22.3475C34.1248 23.4754 34.9555 24.3672 36.0033 25.0229C37.0512 25.6525 38.2524 25.9672 39.607 25.9672C40.9871 25.9672 42.2649 25.6525 43.4406 25.0229C44.6162 24.3672 45.6513 23.4754 46.5459 22.3475C47.4659 21.1934 48.1943 19.8689 48.731 18.3738C48.1943 16.8787 47.4659 15.5672 46.5459 14.4393C45.6513 13.2852 44.6162 12.3934 43.4406 11.7639C42.2649 11.1082 40.9871 10.7803 39.607 10.7803C38.2524 10.7803 37.0512 11.1082 36.0033 11.7639C34.9555 12.3934 34.1248 13.2852 33.5115 14.4393C32.9236 15.5672 32.6297 16.8787 32.6297 18.3738Z" fill="#0A0A0A"/>
<path d="M59.0861 7.23934H64.0698V14.9902L63.8398 15.777V20.2623L64.0698 21.6393V36H59.0861V7.23934ZM62.153 18.3738C62.6386 16.0131 63.4436 13.9672 64.5682 12.2361C65.6927 10.4787 67.0728 9.11475 68.7085 8.14426C70.3698 7.17377 72.2099 6.68852 74.229 6.68852C76.3502 6.68852 78.2287 7.18688 79.8644 8.18361C81.5001 9.1541 82.778 10.518 83.6981 12.2754C84.6181 14.0066 85.0782 16.0393 85.0782 18.3738C85.0782 20.682 84.6181 22.7148 83.6981 24.4721C82.778 26.2295 81.5001 27.6066 79.8644 28.6033C78.2287 29.5738 76.3502 30.059 74.229 30.059C72.2099 30.059 70.3825 29.5738 68.7468 28.6033C67.1112 27.6328 65.7183 26.2689 64.5682 24.5115C63.4436 22.7541 62.6386 20.7082 62.153 18.3738ZM80.0178 18.3738C80.0178 16.8787 79.7111 15.5672 79.0977 14.4393C78.5099 13.2852 77.692 12.3934 76.6442 11.7639C75.5963 11.1082 74.3951 10.7803 73.0405 10.7803C71.686 10.7803 70.4081 11.1082 69.2069 11.7639C68.0312 12.3934 66.9962 13.2852 66.1016 14.4393C65.2071 15.5672 64.4787 16.8787 63.9165 18.3738C64.4787 19.8689 65.2071 21.1934 66.1016 22.3475C66.9962 23.4754 68.0312 24.3672 69.2069 25.0229C70.4081 25.6525 71.686 25.9672 73.0405 25.9672C74.3951 25.9672 75.5963 25.6525 76.6442 25.0229C77.692 24.3672 78.5099 23.4754 79.0977 22.3475C79.7111 21.1934 80.0178 19.8689 80.0178 18.3738Z" fill="#0A0A0A"/>
<path d="M95.379 9.00984H100.363V29.5082H95.379V9.00984ZM86.3699 7.23934H109.372V11.2525H86.3699V7.23934Z" fill="#0A0A0A"/>
<path d="M112.706 7.23934H117.652V29.5082H112.706V7.23934ZM131.146 7.23934H136.091V29.5082H131.146V7.23934ZM115.505 16.2492H133.216V20.1836H115.505V16.2492Z" fill="#0A0A0A"/>
<path d="M153.421 30.059C150.891 30.059 148.642 29.5738 146.674 28.6033C144.706 27.6066 143.16 26.2295 142.035 24.4721C140.911 22.7148 140.349 20.6689 140.349 18.3344C140.349 16.0262 140.873 14.0066 141.92 12.2754C142.994 10.518 144.463 9.1541 146.329 8.18361C148.22 7.18688 150.38 6.68852 152.808 6.68852C155.236 6.68852 157.332 7.25246 159.095 8.38033C160.884 9.48197 162.264 11.0426 163.235 13.0623C164.207 15.082 164.692 17.4557 164.692 20.1836H144.259V16.2885H162.2L159.708 17.7443C159.632 16.2754 159.287 15.0164 158.673 13.9672C158.086 12.918 157.281 12.118 156.258 11.5672C155.261 10.9902 154.073 10.7016 152.693 10.7016C151.236 10.7016 149.958 11.0033 148.859 11.6066C147.786 12.2098 146.942 13.0623 146.329 14.1639C145.716 15.2393 145.409 16.5246 145.409 18.0197C145.409 19.6721 145.767 21.1016 146.482 22.3082C147.224 23.5148 148.259 24.4459 149.588 25.1016C150.942 25.7311 152.54 26.0459 154.38 26.0459C156.041 26.0459 157.741 25.7836 159.478 25.259C161.216 24.7082 162.75 23.9475 164.079 22.977V26.6754C162.75 27.7246 161.127 28.5508 159.21 29.1541C157.319 29.7574 155.389 30.059 153.421 30.059Z" fill="#0A0A0A"/>
<path d="M168.984 7.23934H173.968V14.9902L173.738 15.777V20.2623L173.968 21.6393V36H168.984V7.23934ZM172.051 18.3738C172.537 16.0131 173.342 13.9672 174.467 12.2361C175.591 10.4787 176.971 9.11475 178.607 8.14426C180.268 7.17377 182.108 6.68852 184.127 6.68852C186.249 6.68852 188.127 7.18688 189.763 8.18361C191.398 9.1541 192.676 10.518 193.596 12.2754C194.516 14.0066 194.977 16.0393 194.977 18.3738C194.977 20.682 194.516 22.7148 193.596 24.4721C192.676 26.2295 191.398 27.6066 189.763 28.6033C188.127 29.5738 186.249 30.059 184.127 30.059C182.108 30.059 180.281 29.5738 178.645 28.6033C177.01 27.6328 175.617 26.2689 174.467 24.5115C173.342 22.7541 172.537 20.7082 172.051 18.3738ZM189.916 18.3738C189.916 16.8787 189.609 15.5672 188.996 14.4393C188.408 13.2852 187.59 12.3934 186.543 11.7639C185.495 11.1082 184.293 10.7803 182.939 10.7803C181.584 10.7803 180.306 11.1082 179.105 11.7639C177.93 12.3934 176.895 13.2852 176 14.4393C175.105 15.5672 174.377 16.8787 173.815 18.3738C174.377 19.8689 175.105 21.1934 176 22.3475C176.895 23.4754 177.93 24.3672 179.105 25.0229C180.306 25.6525 181.584 25.9672 182.939 25.9672C184.293 25.9672 185.495 25.6525 186.543 25.0229C187.59 24.3672 188.408 23.4754 188.996 22.3475C189.609 21.1934 189.916 19.8689 189.916 18.3738Z" fill="#0A0A0A"/>
<path d="M223.696 7.23934H228.679V29.5082H223.696V7.23934ZM199.314 29.5082V7.23934H204.297V28.0918L202.534 25.7311H211.811C213.166 25.7311 214.227 25.3902 214.993 24.7082C215.76 24 216.143 23.0426 216.143 21.8361C216.143 20.6033 215.76 19.6459 214.993 18.9639C214.227 18.2557 213.166 17.9016 211.811 17.9016H202.687V14.2426H212.463C214.227 14.2426 215.76 14.5705 217.063 15.2262C218.367 15.8557 219.376 16.7475 220.092 17.9016C220.833 19.0295 221.204 20.3541 221.204 21.8754C221.204 23.3967 220.833 24.7344 220.092 25.8885C219.376 27.0426 218.367 27.9344 217.063 28.5639C215.76 29.1934 214.239 29.5082 212.501 29.5082H199.314Z" fill="#0A0A0A"/>
<path d="M234.326 0H239.463L238.658 20.5377H235.131L234.326 0ZM236.895 29.823C236 29.823 235.259 29.5475 234.671 28.9967C234.083 28.4197 233.789 27.6852 233.789 26.7934C233.789 25.9016 234.083 25.1803 234.671 24.6295C235.259 24.0525 236 23.7639 236.895 23.7639C237.815 23.7639 238.556 24.0525 239.118 24.6295C239.706 25.1803 240 25.9016 240 26.7934C240 27.6852 239.706 28.4197 239.118 28.9967C238.556 29.5475 237.815 29.823 236.895 29.823Z" fill="#0A0A0A"/>
</svg>
