<svg width="170" height="32" viewBox="0 0 170 32" fill="none" xmlns="http://www.w3.org/2000/svg">
<g clip-path="url(#clip0_4002_7247)">
<path d="M-161.834 7.00001V25H-164.978V8.36801L-163.538 9.80801H-177.818L-176.378 8.36801V25H-179.546V7.00001H-161.834Z" fill="black"/>
<path d="M-150.711 25.336C-152.359 25.336 -153.807 25.04 -155.055 24.448C-156.287 23.84 -157.255 23 -157.959 21.928C-158.647 20.856 -158.991 19.616 -158.991 18.208C-158.991 16.784 -158.647 15.544 -157.959 14.488C-157.255 13.416 -156.287 12.584 -155.055 11.992C-153.807 11.384 -152.359 11.08 -150.711 11.08C-149.063 11.08 -147.623 11.384 -146.391 11.992C-145.143 12.584 -144.175 13.416 -143.487 14.488C-142.783 15.544 -142.431 16.784 -142.431 18.208C-142.431 19.616 -142.783 20.856 -143.487 21.928C-144.175 23 -145.143 23.84 -146.391 24.448C-147.623 25.04 -149.063 25.336 -150.711 25.336ZM-150.711 22.888C-149.655 22.888 -148.751 22.696 -147.999 22.312C-147.231 21.928 -146.639 21.392 -146.223 20.704C-145.807 20 -145.599 19.168 -145.599 18.208C-145.599 17.248 -145.807 16.424 -146.223 15.736C-146.639 15.032 -147.231 14.488 -147.999 14.104C-148.751 13.72 -149.655 13.528 -150.711 13.528C-151.751 13.528 -152.655 13.72 -153.423 14.104C-154.191 14.488 -154.783 15.032 -155.199 15.736C-155.615 16.424 -155.823 17.248 -155.823 18.208C-155.823 19.168 -155.615 20 -155.199 20.704C-154.783 21.392 -154.191 21.928 -153.423 22.312C-152.655 22.696 -151.751 22.888 -150.711 22.888Z" fill="black"/>
<path d="M-134.972 20.8C-136.828 20.8 -138.244 20.296 -139.22 19.288C-140.196 18.264 -140.684 16.776 -140.684 14.824V11.416H-137.588V14.704C-137.588 17.104 -136.46 18.304 -134.204 18.304C-133.276 18.304 -132.404 18.088 -131.588 17.656C-130.756 17.224 -129.996 16.576 -129.308 15.712L-129.116 17.92C-129.676 18.832 -130.476 19.544 -131.516 20.056C-132.54 20.552 -133.692 20.8 -134.972 20.8ZM-129.692 25V11.416H-126.572V25H-129.692Z" fill="black"/>
<path d="M-115.716 25.336C-117.3 25.336 -118.708 25.04 -119.94 24.448C-121.172 23.84 -122.14 23 -122.844 21.928C-123.548 20.856 -123.9 19.608 -123.9 18.184C-123.9 16.776 -123.572 15.544 -122.916 14.488C-122.244 13.416 -121.324 12.584 -120.156 11.992C-118.972 11.384 -117.62 11.08 -116.1 11.08C-114.58 11.08 -113.268 11.424 -112.164 12.112C-111.044 12.784 -110.18 13.736 -109.572 14.968C-108.964 16.2 -108.66 17.648 -108.66 19.312H-121.452V16.936H-110.22L-111.78 17.824C-111.828 16.928 -112.044 16.16 -112.428 15.52C-112.796 14.88 -113.3 14.392 -113.94 14.056C-114.564 13.704 -115.308 13.528 -116.172 13.528C-117.084 13.528 -117.884 13.712 -118.572 14.08C-119.244 14.448 -119.772 14.968 -120.156 15.64C-120.54 16.296 -120.732 17.08 -120.732 17.992C-120.732 19 -120.508 19.872 -120.06 20.608C-119.596 21.344 -118.948 21.912 -118.116 22.312C-117.268 22.696 -116.268 22.888 -115.116 22.888C-114.076 22.888 -113.012 22.728 -111.924 22.408C-110.836 22.072 -109.876 21.608 -109.044 21.016V23.272C-109.876 23.912 -110.892 24.416 -112.092 24.784C-113.276 25.152 -114.484 25.336 -115.716 25.336Z" fill="black"/>
<path d="M-105.973 25V11.416H-101.341L-95.6288 23.512H-96.8528L-91.1888 11.416H-86.5568V25H-89.4848V12.448H-88.6688L-94.7408 25H-97.7888L-103.861 12.496L-103.045 12.472V25H-105.973Z" fill="black"/>
<path d="M-79.8544 29.296C-80.6544 29.296 -81.3824 29.192 -82.0384 28.984C-82.6784 28.792 -83.2784 28.52 -83.8384 28.168V25.792C-83.2304 26.176 -82.6544 26.456 -82.1104 26.632C-81.5504 26.808 -80.9264 26.896 -80.2384 26.896C-79.5824 26.896 -78.9984 26.744 -78.4864 26.44C-77.9744 26.152 -77.5504 25.64 -77.2144 24.904L-71.0944 11.416H-67.7824L-74.8144 25.96C-75.1984 26.76 -75.6544 27.4 -76.1824 27.88C-76.6944 28.376 -77.2624 28.736 -77.8864 28.96C-78.4944 29.184 -79.1504 29.296 -79.8544 29.296ZM-78.2944 24.568L-84.5344 11.416H-81.1024L-75.1984 24.568H-78.2944Z" fill="black"/>
<path d="M-60.1206 11.416H-57.0246V25H-60.1206V11.416ZM-48.5766 11.416H-45.4806V25H-48.5766V11.416ZM-58.3686 16.912H-47.2806V19.312H-58.3686V16.912Z" fill="black"/>
<path d="M-29.3755 25L-29.9035 19.96L-29.2794 18.208L-29.9035 16.48L-29.3755 11.416H-26.1595L-26.8795 18.208L-26.1595 25H-29.3755ZM-28.4155 18.208C-28.7195 19.632 -29.2235 20.88 -29.9275 21.952C-30.6315 23.024 -31.5035 23.856 -32.5435 24.448C-33.5675 25.04 -34.7114 25.336 -35.9754 25.336C-37.3034 25.336 -38.4794 25.04 -39.5034 24.448C-40.5274 23.84 -41.3275 23 -41.9035 21.928C-42.4795 20.856 -42.7675 19.616 -42.7675 18.208C-42.7675 16.784 -42.4795 15.544 -41.9035 14.488C-41.3275 13.416 -40.5274 12.584 -39.5034 11.992C-38.4794 11.384 -37.3034 11.08 -35.9754 11.08C-34.7114 11.08 -33.5675 11.376 -32.5435 11.968C-31.5035 12.56 -30.6315 13.392 -29.9275 14.464C-29.2075 15.52 -28.7035 16.768 -28.4155 18.208ZM-39.5995 18.208C-39.5995 19.12 -39.4155 19.928 -39.0475 20.632C-38.6635 21.32 -38.1435 21.864 -37.4875 22.264C-36.8315 22.648 -36.0795 22.84 -35.2315 22.84C-34.3675 22.84 -33.5675 22.648 -32.8315 22.264C-32.0955 21.864 -31.4475 21.32 -30.8875 20.632C-30.3115 19.928 -29.8555 19.12 -29.5195 18.208C-29.8555 17.296 -30.3115 16.496 -30.8875 15.808C-31.4475 15.104 -32.0955 14.56 -32.8315 14.176C-33.5675 13.776 -34.3675 13.576 -35.2315 13.576C-36.0795 13.576 -36.8315 13.776 -37.4875 14.176C-38.1435 14.56 -38.6635 15.104 -39.0475 15.808C-39.4155 16.496 -39.5995 17.296 -39.5995 18.208Z" fill="black"/>
<path d="M-8.03683 19.648C-8.19683 20.768 -8.63683 21.76 -9.35683 22.624C-10.0768 23.472 -10.9968 24.136 -12.1168 24.616C-13.2368 25.096 -14.4848 25.336 -15.8608 25.336C-17.4288 25.336 -18.8128 25.04 -20.0128 24.448C-21.1968 23.84 -22.1248 23 -22.7968 21.928C-23.4688 20.856 -23.8048 19.616 -23.8048 18.208C-23.8048 16.8 -23.4688 15.56 -22.7968 14.488C-22.1248 13.416 -21.1968 12.584 -20.0128 11.992C-18.8128 11.384 -17.4288 11.08 -15.8608 11.08C-14.4848 11.08 -13.2368 11.32 -12.1168 11.8C-10.9968 12.28 -10.0768 12.952 -9.35683 13.816C-8.63683 14.664 -8.19683 15.656 -8.03683 16.792H-11.1808C-11.4048 15.768 -11.9408 14.968 -12.7888 14.392C-13.6368 13.816 -14.6608 13.528 -15.8608 13.528C-16.8208 13.528 -17.6608 13.72 -18.3808 14.104C-19.1008 14.472 -19.6608 15.008 -20.0608 15.712C-20.4448 16.4 -20.6368 17.232 -20.6368 18.208C-20.6368 19.168 -20.4448 20 -20.0608 20.704C-19.6608 21.408 -19.1008 21.952 -18.3808 22.336C-17.6608 22.704 -16.8208 22.888 -15.8608 22.888C-14.6448 22.888 -13.6128 22.592 -12.7648 22C-11.9168 21.408 -11.3888 20.624 -11.1808 19.648H-8.03683Z" fill="black"/>
<path d="M0.609909 25L1.30591 18.208L0.609909 11.416H10.4499C11.7619 11.416 12.7859 11.72 13.5219 12.328C14.2739 12.936 14.6499 13.776 14.6499 14.848C14.6499 15.84 14.2739 16.64 13.5219 17.248C12.7859 17.84 11.7539 18.192 10.4259 18.304L10.6659 17.728C12.2339 17.76 13.4339 18.08 14.2659 18.688C15.0979 19.296 15.5139 20.152 15.5139 21.256C15.5139 22.424 15.0899 23.344 14.2419 24.016C13.4099 24.672 12.2499 25 10.7619 25H0.609909ZM3.63391 24.232L2.4339 22.84H9.96991C10.8179 22.84 11.4259 22.68 11.7939 22.36C12.1779 22.024 12.3699 21.56 12.3699 20.968C12.3699 20.44 12.1539 20 11.7219 19.648C11.3059 19.296 10.6019 19.12 9.60991 19.12H3.10591V17.104H9.1539C9.9699 17.104 10.5619 16.944 10.9299 16.624C11.3139 16.288 11.5059 15.856 11.5059 15.328C11.5059 14.816 11.3379 14.4 11.0019 14.08C10.6819 13.744 10.1379 13.576 9.3699 13.576H2.4579L3.63391 12.208L4.30591 18.208L3.63391 24.232Z" fill="url(#paint0_linear_4002_7247)"/>
<path d="M33.4153 11.416H36.5353V25H33.4153V11.416ZM18.1513 25V11.416H21.2713V24.136L20.1673 22.696H25.9753C26.8233 22.696 27.4873 22.488 27.9673 22.072C28.4473 21.64 28.6873 21.056 28.6873 20.32C28.6873 19.568 28.4473 18.984 27.9673 18.568C27.4873 18.136 26.8233 17.92 25.9753 17.92H20.2633V15.688H26.3833C27.4873 15.688 28.4473 15.888 29.2633 16.288C30.0793 16.672 30.7113 17.216 31.1593 17.92C31.6233 18.608 31.8553 19.416 31.8553 20.344C31.8553 21.272 31.6233 22.088 31.1593 22.792C30.7113 23.496 30.0793 24.04 29.2633 24.424C28.4473 24.808 27.4953 25 26.4073 25H18.1513Z" fill="url(#paint1_linear_4002_7247)"/>
<path d="M48.0384 25.336C46.2304 25.336 44.6784 24.984 43.3824 24.28C42.1024 23.56 41.1184 22.528 40.4304 21.184C39.7584 19.84 39.4224 18.224 39.4224 16.336C39.4224 13.52 40.1584 11.296 41.6304 9.66401C43.1024 8.03201 45.2064 7.10401 47.9424 6.88001C49.0464 6.78401 49.9584 6.70401 50.6784 6.64001C51.4144 6.57601 52.0144 6.51201 52.4784 6.44801C52.9424 6.36801 53.3344 6.28801 53.6544 6.20801C53.9904 6.12801 54.3104 6.03201 54.6144 5.92001V8.58401C54.3104 8.71201 53.9024 8.83201 53.3904 8.94401C52.8784 9.04001 52.2304 9.12001 51.4464 9.18401C50.6624 9.24801 49.7024 9.31201 48.5664 9.37601C46.4224 9.48801 44.8064 10.128 43.7184 11.296C42.6304 12.464 42.0864 14.128 42.0864 16.288V17.056L41.9184 16.864C42.2704 15.92 42.7744 15.12 43.4304 14.464C44.1024 13.808 44.9024 13.304 45.8304 12.952C46.7584 12.6 47.7744 12.424 48.8784 12.424C50.2704 12.424 51.4864 12.688 52.5264 13.216C53.5664 13.744 54.3744 14.488 54.9504 15.448C55.5424 16.392 55.8384 17.496 55.8384 18.76C55.8384 20.088 55.5104 21.248 54.8544 22.24C54.2144 23.216 53.3104 23.976 52.1424 24.52C50.9744 25.064 49.6064 25.336 48.0384 25.336ZM48.1104 22.888C49.0384 22.888 49.8384 22.72 50.5104 22.384C51.1984 22.048 51.7264 21.576 52.0944 20.968C52.4784 20.344 52.6704 19.624 52.6704 18.808C52.6704 17.992 52.4784 17.28 52.0944 16.672C51.7264 16.064 51.1984 15.592 50.5104 15.256C49.8384 14.92 49.0384 14.752 48.1104 14.752C46.8624 14.752 45.7584 15.088 44.7984 15.76C43.8544 16.432 43.1504 17.384 42.6864 18.616C42.9584 19.928 43.5744 20.968 44.5344 21.736C45.5104 22.504 46.7024 22.888 48.1104 22.888Z" fill="url(#paint2_linear_4002_7247)"/>
<path d="M58.5397 25V11.416H61.6117V23.44L60.6757 23.224L69.9637 11.416H73.9957V25H70.9237V12.808L71.8837 13.048L62.4757 25H58.5397Z" fill="url(#paint3_linear_4002_7247)"/>
<path d="M77.4331 11.416H80.5531V16.144L80.4091 16.624V19.36L80.5531 20.2V28.96H77.4331V11.416ZM79.3531 18.208C79.6571 16.768 80.1611 15.52 80.8651 14.464C81.5691 13.392 82.4331 12.56 83.4571 11.968C84.4971 11.376 85.6491 11.08 86.9131 11.08C88.2411 11.08 89.4171 11.384 90.4411 11.992C91.4651 12.584 92.2651 13.416 92.8411 14.488C93.4171 15.544 93.7051 16.784 93.7051 18.208C93.7051 19.616 93.4171 20.856 92.8411 21.928C92.2651 23 91.4651 23.84 90.4411 24.448C89.4171 25.04 88.2411 25.336 86.9131 25.336C85.6491 25.336 84.5051 25.04 83.4811 24.448C82.4571 23.856 81.5851 23.024 80.8651 21.952C80.1611 20.88 79.6571 19.632 79.3531 18.208ZM90.5371 18.208C90.5371 17.296 90.3452 16.496 89.9612 15.808C89.5932 15.104 89.0811 14.56 88.4251 14.176C87.7691 13.776 87.0171 13.576 86.1691 13.576C85.3211 13.576 84.5211 13.776 83.7691 14.176C83.0331 14.56 82.3851 15.104 81.8251 15.808C81.2651 16.496 80.8091 17.296 80.4571 18.208C80.8091 19.12 81.2651 19.928 81.8251 20.632C82.3851 21.32 83.0331 21.864 83.7691 22.264C84.5211 22.648 85.3211 22.84 86.1691 22.84C87.0171 22.84 87.7691 22.648 88.4251 22.264C89.0811 21.864 89.5932 21.32 89.9612 20.632C90.3452 19.928 90.5371 19.12 90.5371 18.208Z" fill="url(#paint4_linear_4002_7247)"/>
<path d="M109.092 25L108.564 19.96L109.188 18.208L108.564 16.48L109.092 11.416H112.308L111.588 18.208L112.308 25H109.092ZM110.052 18.208C109.748 19.632 109.244 20.88 108.54 21.952C107.836 23.024 106.964 23.856 105.924 24.448C104.9 25.04 103.756 25.336 102.492 25.336C101.164 25.336 99.9884 25.04 98.9644 24.448C97.9404 23.84 97.1404 23 96.5644 21.928C95.9884 20.856 95.7004 19.616 95.7004 18.208C95.7004 16.784 95.9884 15.544 96.5644 14.488C97.1404 13.416 97.9404 12.584 98.9644 11.992C99.9884 11.384 101.164 11.08 102.492 11.08C103.756 11.08 104.9 11.376 105.924 11.968C106.964 12.56 107.836 13.392 108.54 14.464C109.26 15.52 109.764 16.768 110.052 18.208ZM98.8684 18.208C98.8684 19.12 99.0524 19.928 99.4204 20.632C99.8044 21.32 100.324 21.864 100.98 22.264C101.636 22.648 102.388 22.84 103.236 22.84C104.1 22.84 104.9 22.648 105.636 22.264C106.372 21.864 107.02 21.32 107.58 20.632C108.156 19.928 108.612 19.12 108.948 18.208C108.612 17.296 108.156 16.496 107.58 15.808C107.02 15.104 106.372 14.56 105.636 14.176C104.9 13.776 104.1 13.576 103.236 13.576C102.388 13.576 101.636 13.776 100.98 14.176C100.324 14.56 99.8044 15.104 99.4204 15.808C99.0524 16.496 98.8684 17.296 98.8684 18.208Z" fill="url(#paint5_linear_4002_7247)"/>
<path d="M129.399 25.336C127.783 25.336 126.359 25.04 125.127 24.448C123.895 23.84 122.935 23 122.247 21.928C121.575 20.856 121.239 19.616 121.239 18.208C121.239 16.784 121.575 15.544 122.247 14.488C122.935 13.416 123.895 12.584 125.127 11.992C126.359 11.384 127.783 11.08 129.399 11.08C131.031 11.08 132.455 11.384 133.671 11.992C134.903 12.584 135.863 13.416 136.551 14.488C137.239 15.544 137.583 16.784 137.583 18.208C137.583 19.616 137.239 20.856 136.551 21.928C135.863 23 134.903 23.84 133.671 24.448C132.455 25.04 131.031 25.336 129.399 25.336ZM115.431 25V11.416H118.551V25H115.431ZM117.159 19.312V16.912H123.159V19.312H117.159ZM129.399 22.888C130.439 22.888 131.327 22.696 132.063 22.312C132.815 21.928 133.391 21.384 133.791 20.68C134.207 19.976 134.415 19.152 134.415 18.208C134.415 17.248 134.207 16.424 133.791 15.736C133.391 15.032 132.815 14.488 132.063 14.104C131.327 13.72 130.439 13.528 129.399 13.528C128.375 13.528 127.487 13.72 126.735 14.104C125.983 14.488 125.399 15.032 124.983 15.736C124.583 16.424 124.383 17.248 124.383 18.208C124.383 19.152 124.583 19.976 124.983 20.68C125.399 21.384 125.983 21.928 126.735 22.312C127.487 22.696 128.375 22.888 129.399 22.888Z" fill="url(#paint6_linear_4002_7247)"/>
<path d="M143.964 12.496H147.084V25H143.964V12.496ZM138.324 11.416H152.724V13.864H138.324V11.416Z" fill="url(#paint7_linear_4002_7247)"/>
<path d="M159.978 18.712C159.978 17.96 160.178 17.328 160.578 16.816C160.978 16.288 161.602 15.8 162.45 15.352L164.274 14.368C164.77 14.096 165.17 13.776 165.474 13.408C165.778 13.024 165.93 12.608 165.93 12.16C165.93 11.264 165.562 10.552 164.826 10.024C164.106 9.49601 163.106 9.23201 161.826 9.23201C160.562 9.23201 159.53 9.52801 158.73 10.12C157.93 10.696 157.466 11.496 157.338 12.52H154.314C154.458 10.68 155.186 9.24801 156.498 8.22401C157.826 7.18401 159.602 6.66401 161.826 6.66401C164.066 6.66401 165.81 7.13601 167.058 8.08001C168.322 9.02401 168.954 10.328 168.954 11.992C168.954 12.792 168.714 13.544 168.234 14.248C167.754 14.952 167.058 15.544 166.146 16.024L164.202 17.056C163.738 17.312 163.378 17.584 163.122 17.872C162.882 18.144 162.762 18.496 162.762 18.928V19.696H160.098C160.05 19.52 160.018 19.352 160.002 19.192C159.986 19.032 159.978 18.872 159.978 18.712ZM161.37 25.192C160.81 25.192 160.346 25.024 159.978 24.688C159.61 24.336 159.426 23.888 159.426 23.344C159.426 22.8 159.61 22.36 159.978 22.024C160.346 21.672 160.81 21.496 161.37 21.496C161.946 21.496 162.41 21.672 162.762 22.024C163.13 22.36 163.314 22.8 163.314 23.344C163.314 23.888 163.13 24.336 162.762 24.688C162.41 25.024 161.946 25.192 161.37 25.192Z" fill="url(#paint8_linear_4002_7247)"/>
</g>
<defs>
<linearGradient id="paint0_linear_4002_7247" x1="-326" y1="16" x2="314" y2="16" gradientUnits="userSpaceOnUse">
<stop stop-color="#6187EC"/>
<stop offset="0.485577" stop-color="#FF4043"/>
<stop offset="0.740385" stop-color="#FF00C8"/>
</linearGradient>
<linearGradient id="paint1_linear_4002_7247" x1="-326" y1="16" x2="314" y2="16" gradientUnits="userSpaceOnUse">
<stop stop-color="#6187EC"/>
<stop offset="0.485577" stop-color="#FF4043"/>
<stop offset="0.740385" stop-color="#FF00C8"/>
</linearGradient>
<linearGradient id="paint2_linear_4002_7247" x1="-326" y1="16" x2="314" y2="16" gradientUnits="userSpaceOnUse">
<stop stop-color="#6187EC"/>
<stop offset="0.485577" stop-color="#FF4043"/>
<stop offset="0.740385" stop-color="#FF00C8"/>
</linearGradient>
<linearGradient id="paint3_linear_4002_7247" x1="-326" y1="16" x2="314" y2="16" gradientUnits="userSpaceOnUse">
<stop stop-color="#6187EC"/>
<stop offset="0.485577" stop-color="#FF4043"/>
<stop offset="0.740385" stop-color="#FF00C8"/>
</linearGradient>
<linearGradient id="paint4_linear_4002_7247" x1="-326" y1="16" x2="314" y2="16" gradientUnits="userSpaceOnUse">
<stop stop-color="#6187EC"/>
<stop offset="0.485577" stop-color="#FF4043"/>
<stop offset="0.740385" stop-color="#FF00C8"/>
</linearGradient>
<linearGradient id="paint5_linear_4002_7247" x1="-326" y1="16" x2="314" y2="16" gradientUnits="userSpaceOnUse">
<stop stop-color="#6187EC"/>
<stop offset="0.485577" stop-color="#FF4043"/>
<stop offset="0.740385" stop-color="#FF00C8"/>
</linearGradient>
<linearGradient id="paint6_linear_4002_7247" x1="-326" y1="16" x2="314" y2="16" gradientUnits="userSpaceOnUse">
<stop stop-color="#6187EC"/>
<stop offset="0.485577" stop-color="#FF4043"/>
<stop offset="0.740385" stop-color="#FF00C8"/>
</linearGradient>
<linearGradient id="paint7_linear_4002_7247" x1="-326" y1="16" x2="314" y2="16" gradientUnits="userSpaceOnUse">
<stop stop-color="#6187EC"/>
<stop offset="0.485577" stop-color="#FF4043"/>
<stop offset="0.740385" stop-color="#FF00C8"/>
</linearGradient>
<linearGradient id="paint8_linear_4002_7247" x1="-326" y1="16" x2="314" y2="16" gradientUnits="userSpaceOnUse">
<stop stop-color="#6187EC"/>
<stop offset="0.484033" stop-color="#FF4043"/>
<stop offset="1" stop-color="#FF00C8"/>
</linearGradient>
<clipPath id="clip0_4002_7247">
<rect width="170" height="32" fill="white"/>
</clipPath>
</defs>
</svg>
